%TF.GenerationSoftware,KiCad,Pcbnew,9.0.2*%
%TF.CreationDate,2025-06-02T23:35:36+05:30*%
%TF.ProjectId,RemoteV2,52656d6f-7465-4563-922e-6b696361645f,rev?*%
%TF.SameCoordinates,Original*%
%TF.FileFunction,Soldermask,Top*%
%TF.FilePolarity,Negative*%
%FSLAX46Y46*%
G04 Gerber Fmt 4.6, Leading zero omitted, Abs format (unit mm)*
G04 Created by KiCad (PCBNEW 9.0.2) date 2025-06-02 23:35:36*
%MOMM*%
%LPD*%
G01*
G04 APERTURE LIST*
%ADD10C,0.850900*%
%ADD11C,1.001600*%
%ADD12C,0.990600*%
%ADD13C,0.863600*%
%ADD14C,0.000000*%
%ADD15C,1.301600*%
%ADD16C,1.041400*%
%ADD17C,1.244600*%
%ADD18C,0.903200*%
%ADD19C,1.651590*%
%ADD20C,2.203200*%
%ADD21C,1.351600*%
%ADD22C,0.901600*%
%ADD23C,0.886600*%
G04 APERTURE END LIST*
D10*
X144381450Y-99797000D02*
G75*
G02*
X143530550Y-99797000I-425450J0D01*
G01*
X143530550Y-99797000D02*
G75*
G02*
X144381450Y-99797000I425450J0D01*
G01*
D11*
X188906800Y-86859000D02*
G75*
G02*
X187905200Y-86859000I-500800J0D01*
G01*
X187905200Y-86859000D02*
G75*
G02*
X188906800Y-86859000I500800J0D01*
G01*
D12*
X168581300Y-118599000D02*
G75*
G02*
X167590700Y-118599000I-495300J0D01*
G01*
X167590700Y-118599000D02*
G75*
G02*
X168581300Y-118599000I495300J0D01*
G01*
X166041300Y-109709000D02*
G75*
G02*
X165050700Y-109709000I-495300J0D01*
G01*
X165050700Y-109709000D02*
G75*
G02*
X166041300Y-109709000I495300J0D01*
G01*
X192203300Y-96241000D02*
G75*
G02*
X191212700Y-96241000I-495300J0D01*
G01*
X191212700Y-96241000D02*
G75*
G02*
X192203300Y-96241000I495300J0D01*
G01*
D13*
X107303800Y-131547000D02*
G75*
G02*
X106440200Y-131547000I-431800J0D01*
G01*
X106440200Y-131547000D02*
G75*
G02*
X107303800Y-131547000I431800J0D01*
G01*
D12*
X154611300Y-122403000D02*
G75*
G02*
X153620700Y-122403000I-495300J0D01*
G01*
X153620700Y-122403000D02*
G75*
G02*
X154611300Y-122403000I495300J0D01*
G01*
D14*
G36*
X177100000Y-106526000D02*
G01*
X175327000Y-106526000D01*
X175327000Y-104753000D01*
X177100000Y-104753000D01*
X177100000Y-106526000D01*
G37*
D15*
X181085800Y-80742000D02*
G75*
G02*
X179784200Y-80742000I-650800J0D01*
G01*
X179784200Y-80742000D02*
G75*
G02*
X181085800Y-80742000I650800J0D01*
G01*
D16*
X115520700Y-124689000D02*
G75*
G02*
X114479300Y-124689000I-520700J0D01*
G01*
X114479300Y-124689000D02*
G75*
G02*
X115520700Y-124689000I520700J0D01*
G01*
D12*
X166041300Y-124949000D02*
G75*
G02*
X165050700Y-124949000I-495300J0D01*
G01*
X165050700Y-124949000D02*
G75*
G02*
X166041300Y-124949000I495300J0D01*
G01*
X140641300Y-124949000D02*
G75*
G02*
X139650700Y-124949000I-495300J0D01*
G01*
X139650700Y-124949000D02*
G75*
G02*
X140641300Y-124949000I495300J0D01*
G01*
D17*
X183353300Y-108869000D02*
G75*
G02*
X182108700Y-108869000I-622300J0D01*
G01*
X182108700Y-108869000D02*
G75*
G02*
X183353300Y-108869000I622300J0D01*
G01*
D12*
X150801300Y-124949000D02*
G75*
G02*
X149810700Y-124949000I-495300J0D01*
G01*
X149810700Y-124949000D02*
G75*
G02*
X150801300Y-124949000I495300J0D01*
G01*
D18*
X172889000Y-105183000D02*
X172889000Y-103983000D01*
D12*
X138101300Y-109709000D02*
G75*
G02*
X137110700Y-109709000I-495300J0D01*
G01*
X137110700Y-109709000D02*
G75*
G02*
X138101300Y-109709000I495300J0D01*
G01*
D13*
X199084800Y-140505000D02*
G75*
G02*
X198221200Y-140505000I-431800J0D01*
G01*
X198221200Y-140505000D02*
G75*
G02*
X199084800Y-140505000I431800J0D01*
G01*
D12*
X189663300Y-96241000D02*
G75*
G02*
X188672700Y-96241000I-495300J0D01*
G01*
X188672700Y-96241000D02*
G75*
G02*
X189663300Y-96241000I495300J0D01*
G01*
X148261300Y-109709000D02*
G75*
G02*
X147270700Y-109709000I-495300J0D01*
G01*
X147270700Y-109709000D02*
G75*
G02*
X148261300Y-109709000I495300J0D01*
G01*
D15*
X178086800Y-80742000D02*
G75*
G02*
X176785200Y-80742000I-650800J0D01*
G01*
X176785200Y-80742000D02*
G75*
G02*
X178086800Y-80742000I650800J0D01*
G01*
X119001800Y-80473000D02*
G75*
G02*
X117700200Y-80473000I-650800J0D01*
G01*
X117700200Y-80473000D02*
G75*
G02*
X119001800Y-80473000I650800J0D01*
G01*
D12*
X145721300Y-124949000D02*
G75*
G02*
X144730700Y-124949000I-495300J0D01*
G01*
X144730700Y-124949000D02*
G75*
G02*
X145721300Y-124949000I495300J0D01*
G01*
X87671300Y-107904000D02*
G75*
G02*
X86680700Y-107904000I-495300J0D01*
G01*
X86680700Y-107904000D02*
G75*
G02*
X87671300Y-107904000I495300J0D01*
G01*
D13*
X174359800Y-135611000D02*
G75*
G02*
X173496200Y-135611000I-431800J0D01*
G01*
X173496200Y-135611000D02*
G75*
G02*
X174359800Y-135611000I431800J0D01*
G01*
D12*
X187671300Y-107904000D02*
G75*
G02*
X186680700Y-107904000I-495300J0D01*
G01*
X186680700Y-107904000D02*
G75*
G02*
X187671300Y-107904000I495300J0D01*
G01*
D13*
X82480800Y-136441000D02*
G75*
G02*
X81617200Y-136441000I-431800J0D01*
G01*
X81617200Y-136441000D02*
G75*
G02*
X82480800Y-136441000I431800J0D01*
G01*
D12*
X94021300Y-107904000D02*
G75*
G02*
X93030700Y-107904000I-495300J0D01*
G01*
X93030700Y-107904000D02*
G75*
G02*
X94021300Y-107904000I495300J0D01*
G01*
D19*
X181176795Y-87473000D02*
G75*
G02*
X179525205Y-87473000I-825795J0D01*
G01*
X179525205Y-87473000D02*
G75*
G02*
X181176795Y-87473000I825795J0D01*
G01*
D13*
X100699800Y-131547000D02*
G75*
G02*
X99836200Y-131547000I-431800J0D01*
G01*
X99836200Y-131547000D02*
G75*
G02*
X100699800Y-131547000I431800J0D01*
G01*
D12*
X80686300Y-118064000D02*
G75*
G02*
X79695700Y-118064000I-495300J0D01*
G01*
X79695700Y-118064000D02*
G75*
G02*
X80686300Y-118064000I495300J0D01*
G01*
X153341300Y-124949000D02*
G75*
G02*
X152350700Y-124949000I-495300J0D01*
G01*
X152350700Y-124949000D02*
G75*
G02*
X153341300Y-124949000I495300J0D01*
G01*
D14*
G36*
X137186000Y-103188000D02*
G01*
X135485000Y-103188000D01*
X135485000Y-101487000D01*
X137186000Y-101487000D01*
X137186000Y-103188000D01*
G37*
D12*
X145721300Y-109709000D02*
G75*
G02*
X144730700Y-109709000I-495300J0D01*
G01*
X144730700Y-109709000D02*
G75*
G02*
X145721300Y-109709000I495300J0D01*
G01*
X138101300Y-124949000D02*
G75*
G02*
X137110700Y-124949000I-495300J0D01*
G01*
X137110700Y-124949000D02*
G75*
G02*
X138101300Y-124949000I495300J0D01*
G01*
X105152300Y-80519000D02*
G75*
G02*
X104161700Y-80519000I-495300J0D01*
G01*
X104161700Y-80519000D02*
G75*
G02*
X105152300Y-80519000I495300J0D01*
G01*
D10*
X144381450Y-102337000D02*
G75*
G02*
X143530550Y-102337000I-425450J0D01*
G01*
X143530550Y-102337000D02*
G75*
G02*
X144381450Y-102337000I425450J0D01*
G01*
D17*
X83353300Y-122179000D02*
G75*
G02*
X82108700Y-122179000I-622300J0D01*
G01*
X82108700Y-122179000D02*
G75*
G02*
X83353300Y-122179000I622300J0D01*
G01*
D13*
X199084800Y-136441000D02*
G75*
G02*
X198221200Y-136441000I-431800J0D01*
G01*
X198221200Y-136441000D02*
G75*
G02*
X199084800Y-136441000I431800J0D01*
G01*
D12*
X107692300Y-80519000D02*
G75*
G02*
X106701700Y-80519000I-495300J0D01*
G01*
X106701700Y-80519000D02*
G75*
G02*
X107692300Y-80519000I495300J0D01*
G01*
D10*
X141841450Y-99797000D02*
G75*
G02*
X140990550Y-99797000I-425450J0D01*
G01*
X140990550Y-99797000D02*
G75*
G02*
X141841450Y-99797000I425450J0D01*
G01*
D12*
X155881300Y-109709000D02*
G75*
G02*
X154890700Y-109709000I-495300J0D01*
G01*
X154890700Y-109709000D02*
G75*
G02*
X155881300Y-109709000I495300J0D01*
G01*
X148261300Y-124949000D02*
G75*
G02*
X147270700Y-124949000I-495300J0D01*
G01*
X147270700Y-124949000D02*
G75*
G02*
X148261300Y-124949000I495300J0D01*
G01*
D10*
X139301450Y-102337000D02*
G75*
G02*
X138450550Y-102337000I-425450J0D01*
G01*
X138450550Y-102337000D02*
G75*
G02*
X139301450Y-102337000I425450J0D01*
G01*
D19*
X101176795Y-92172000D02*
G75*
G02*
X99525205Y-92172000I-825795J0D01*
G01*
X99525205Y-92172000D02*
G75*
G02*
X101176795Y-92172000I825795J0D01*
G01*
D12*
X168581300Y-110979000D02*
G75*
G02*
X167590700Y-110979000I-495300J0D01*
G01*
X167590700Y-110979000D02*
G75*
G02*
X168581300Y-110979000I495300J0D01*
G01*
X100072300Y-80519000D02*
G75*
G02*
X99081700Y-80519000I-495300J0D01*
G01*
X99081700Y-80519000D02*
G75*
G02*
X100072300Y-80519000I495300J0D01*
G01*
D13*
X174359800Y-131547000D02*
G75*
G02*
X173496200Y-131547000I-431800J0D01*
G01*
X173496200Y-131547000D02*
G75*
G02*
X174359800Y-131547000I431800J0D01*
G01*
D14*
G36*
X129109000Y-104215000D02*
G01*
X127306000Y-104215000D01*
X127306000Y-102411000D01*
X129109000Y-102411000D01*
X129109000Y-104215000D01*
G37*
D12*
X180686300Y-112984000D02*
G75*
G02*
X179695700Y-112984000I-495300J0D01*
G01*
X179695700Y-112984000D02*
G75*
G02*
X180686300Y-112984000I495300J0D01*
G01*
X158421300Y-124949000D02*
G75*
G02*
X157430700Y-124949000I-495300J0D01*
G01*
X157430700Y-124949000D02*
G75*
G02*
X158421300Y-124949000I495300J0D01*
G01*
X194021300Y-102824000D02*
G75*
G02*
X193030700Y-102824000I-495300J0D01*
G01*
X193030700Y-102824000D02*
G75*
G02*
X194021300Y-102824000I495300J0D01*
G01*
D19*
X181176795Y-96871000D02*
G75*
G02*
X179525205Y-96871000I-825795J0D01*
G01*
X179525205Y-96871000D02*
G75*
G02*
X181176795Y-96871000I825795J0D01*
G01*
D16*
X112980700Y-124689000D02*
G75*
G02*
X111939300Y-124689000I-520700J0D01*
G01*
X111939300Y-124689000D02*
G75*
G02*
X112980700Y-124689000I520700J0D01*
G01*
D12*
X88306300Y-125684000D02*
G75*
G02*
X87315700Y-125684000I-495300J0D01*
G01*
X87315700Y-125684000D02*
G75*
G02*
X88306300Y-125684000I495300J0D01*
G01*
D20*
X171388000Y-102834000D02*
X171388000Y-101334000D01*
D16*
X120600700Y-124689000D02*
G75*
G02*
X119559300Y-124689000I-520700J0D01*
G01*
X119559300Y-124689000D02*
G75*
G02*
X120600700Y-124689000I520700J0D01*
G01*
D17*
X198593300Y-122179000D02*
G75*
G02*
X197348700Y-122179000I-622300J0D01*
G01*
X197348700Y-122179000D02*
G75*
G02*
X198593300Y-122179000I622300J0D01*
G01*
D12*
X91873300Y-96241000D02*
G75*
G02*
X90882700Y-96241000I-495300J0D01*
G01*
X90882700Y-96241000D02*
G75*
G02*
X91873300Y-96241000I495300J0D01*
G01*
X163501300Y-109709000D02*
G75*
G02*
X162510700Y-109709000I-495300J0D01*
G01*
X162510700Y-109709000D02*
G75*
G02*
X163501300Y-109709000I495300J0D01*
G01*
X187671300Y-102824000D02*
G75*
G02*
X186680700Y-102824000I-495300J0D01*
G01*
X186680700Y-102824000D02*
G75*
G02*
X187671300Y-102824000I495300J0D01*
G01*
D21*
X175111800Y-80742000D02*
G75*
G02*
X173760200Y-80742000I-675800J0D01*
G01*
X173760200Y-80742000D02*
G75*
G02*
X175111800Y-80742000I675800J0D01*
G01*
D12*
X138101300Y-122409000D02*
G75*
G02*
X137110700Y-122409000I-495300J0D01*
G01*
X137110700Y-122409000D02*
G75*
G02*
X138101300Y-122409000I495300J0D01*
G01*
X168581300Y-123679000D02*
G75*
G02*
X167590700Y-123679000I-495300J0D01*
G01*
X167590700Y-123679000D02*
G75*
G02*
X168581300Y-123679000I495300J0D01*
G01*
D15*
X157921800Y-80473000D02*
G75*
G02*
X156620200Y-80473000I-650800J0D01*
G01*
X156620200Y-80473000D02*
G75*
G02*
X157921800Y-80473000I650800J0D01*
G01*
D12*
X89333300Y-96241000D02*
G75*
G02*
X88342700Y-96241000I-495300J0D01*
G01*
X88342700Y-96241000D02*
G75*
G02*
X89333300Y-96241000I495300J0D01*
G01*
X143181300Y-124949000D02*
G75*
G02*
X142190700Y-124949000I-495300J0D01*
G01*
X142190700Y-124949000D02*
G75*
G02*
X143181300Y-124949000I495300J0D01*
G01*
D18*
X171388000Y-105184000D02*
X171388000Y-103784000D01*
D19*
X101176795Y-87473000D02*
G75*
G02*
X99525205Y-87473000I-825795J0D01*
G01*
X99525205Y-87473000D02*
G75*
G02*
X101176795Y-87473000I825795J0D01*
G01*
D12*
X163501300Y-124949000D02*
G75*
G02*
X162510700Y-124949000I-495300J0D01*
G01*
X162510700Y-124949000D02*
G75*
G02*
X163501300Y-124949000I495300J0D01*
G01*
X102612300Y-80519000D02*
G75*
G02*
X101621700Y-80519000I-495300J0D01*
G01*
X101621700Y-80519000D02*
G75*
G02*
X102612300Y-80519000I495300J0D01*
G01*
D13*
X89084800Y-136441000D02*
G75*
G02*
X88221200Y-136441000I-431800J0D01*
G01*
X88221200Y-136441000D02*
G75*
G02*
X89084800Y-136441000I431800J0D01*
G01*
D16*
X123140700Y-124689000D02*
G75*
G02*
X122099300Y-124689000I-520700J0D01*
G01*
X122099300Y-124689000D02*
G75*
G02*
X123140700Y-124689000I520700J0D01*
G01*
D15*
X163001800Y-80473000D02*
G75*
G02*
X161700200Y-80473000I-650800J0D01*
G01*
X161700200Y-80473000D02*
G75*
G02*
X163001800Y-80473000I650800J0D01*
G01*
D13*
X82480800Y-140505000D02*
G75*
G02*
X81617200Y-140505000I-431800J0D01*
G01*
X81617200Y-140505000D02*
G75*
G02*
X82480800Y-140505000I431800J0D01*
G01*
D12*
X150801300Y-109709000D02*
G75*
G02*
X149810700Y-109709000I-495300J0D01*
G01*
X149810700Y-109709000D02*
G75*
G02*
X150801300Y-109709000I495300J0D01*
G01*
X160961300Y-109709000D02*
G75*
G02*
X159970700Y-109709000I-495300J0D01*
G01*
X159970700Y-109709000D02*
G75*
G02*
X160961300Y-109709000I495300J0D01*
G01*
X168581300Y-121139000D02*
G75*
G02*
X167590700Y-121139000I-495300J0D01*
G01*
X167590700Y-121139000D02*
G75*
G02*
X168581300Y-121139000I495300J0D01*
G01*
X194021300Y-107904000D02*
G75*
G02*
X193030700Y-107904000I-495300J0D01*
G01*
X193030700Y-107904000D02*
G75*
G02*
X194021300Y-107904000I495300J0D01*
G01*
X188306300Y-125684000D02*
G75*
G02*
X187315700Y-125684000I-495300J0D01*
G01*
X187315700Y-125684000D02*
G75*
G02*
X188306300Y-125684000I495300J0D01*
G01*
D13*
X100699800Y-135611000D02*
G75*
G02*
X99836200Y-135611000I-431800J0D01*
G01*
X99836200Y-135611000D02*
G75*
G02*
X100699800Y-135611000I431800J0D01*
G01*
D17*
X183353300Y-122179000D02*
G75*
G02*
X182108700Y-122179000I-622300J0D01*
G01*
X182108700Y-122179000D02*
G75*
G02*
X183353300Y-122179000I622300J0D01*
G01*
D18*
X169886000Y-105183000D02*
X169886000Y-103983000D01*
D13*
X180963800Y-135611000D02*
G75*
G02*
X180100200Y-135611000I-431800J0D01*
G01*
X180100200Y-135611000D02*
G75*
G02*
X180963800Y-135611000I431800J0D01*
G01*
D19*
X101176795Y-96871000D02*
G75*
G02*
X99525205Y-96871000I-825795J0D01*
G01*
X99525205Y-96871000D02*
G75*
G02*
X101176795Y-96871000I825795J0D01*
G01*
X181176795Y-92172000D02*
G75*
G02*
X179525205Y-92172000I-825795J0D01*
G01*
X179525205Y-92172000D02*
G75*
G02*
X181176795Y-92172000I825795J0D01*
G01*
D16*
X125680700Y-124689000D02*
G75*
G02*
X124639300Y-124689000I-520700J0D01*
G01*
X124639300Y-124689000D02*
G75*
G02*
X125680700Y-124689000I520700J0D01*
G01*
D13*
X180963800Y-131547000D02*
G75*
G02*
X180100200Y-131547000I-431800J0D01*
G01*
X180100200Y-131547000D02*
G75*
G02*
X180963800Y-131547000I431800J0D01*
G01*
D12*
X140641300Y-109709000D02*
G75*
G02*
X139650700Y-109709000I-495300J0D01*
G01*
X139650700Y-109709000D02*
G75*
G02*
X140641300Y-109709000I495300J0D01*
G01*
D22*
X128658800Y-100813000D02*
G75*
G02*
X127757200Y-100813000I-450800J0D01*
G01*
X127757200Y-100813000D02*
G75*
G02*
X128658800Y-100813000I450800J0D01*
G01*
D12*
X190846300Y-125684000D02*
G75*
G02*
X189855700Y-125684000I-495300J0D01*
G01*
X189855700Y-125684000D02*
G75*
G02*
X190846300Y-125684000I495300J0D01*
G01*
X143181300Y-109709000D02*
G75*
G02*
X142190700Y-109709000I-495300J0D01*
G01*
X142190700Y-109709000D02*
G75*
G02*
X143181300Y-109709000I495300J0D01*
G01*
X168581300Y-116059000D02*
G75*
G02*
X167590700Y-116059000I-495300J0D01*
G01*
X167590700Y-116059000D02*
G75*
G02*
X168581300Y-116059000I495300J0D01*
G01*
X93386300Y-125684000D02*
G75*
G02*
X92395700Y-125684000I-495300J0D01*
G01*
X92395700Y-125684000D02*
G75*
G02*
X93386300Y-125684000I495300J0D01*
G01*
D17*
X198593300Y-108869000D02*
G75*
G02*
X197348700Y-108869000I-622300J0D01*
G01*
X197348700Y-108869000D02*
G75*
G02*
X198593300Y-108869000I622300J0D01*
G01*
D12*
X157151300Y-122403000D02*
G75*
G02*
X156160700Y-122403000I-495300J0D01*
G01*
X156160700Y-122403000D02*
G75*
G02*
X157151300Y-122403000I495300J0D01*
G01*
D13*
X192480800Y-136441000D02*
G75*
G02*
X191617200Y-136441000I-431800J0D01*
G01*
X191617200Y-136441000D02*
G75*
G02*
X192480800Y-136441000I431800J0D01*
G01*
D17*
X98593300Y-108869000D02*
G75*
G02*
X97348700Y-108869000I-622300J0D01*
G01*
X97348700Y-108869000D02*
G75*
G02*
X98593300Y-108869000I622300J0D01*
G01*
X83353300Y-108869000D02*
G75*
G02*
X82108700Y-108869000I-622300J0D01*
G01*
X82108700Y-108869000D02*
G75*
G02*
X83353300Y-108869000I622300J0D01*
G01*
D12*
X80686300Y-112984000D02*
G75*
G02*
X79695700Y-112984000I-495300J0D01*
G01*
X79695700Y-112984000D02*
G75*
G02*
X80686300Y-112984000I495300J0D01*
G01*
X168581300Y-113519000D02*
G75*
G02*
X167590700Y-113519000I-495300J0D01*
G01*
X167590700Y-113519000D02*
G75*
G02*
X168581300Y-113519000I495300J0D01*
G01*
D13*
X107303800Y-135611000D02*
G75*
G02*
X106440200Y-135611000I-431800J0D01*
G01*
X106440200Y-135611000D02*
G75*
G02*
X107303800Y-135611000I431800J0D01*
G01*
D16*
X130760700Y-124689000D02*
G75*
G02*
X129719300Y-124689000I-520700J0D01*
G01*
X129719300Y-124689000D02*
G75*
G02*
X130760700Y-124689000I520700J0D01*
G01*
D12*
X138101300Y-119869000D02*
G75*
G02*
X137110700Y-119869000I-495300J0D01*
G01*
X137110700Y-119869000D02*
G75*
G02*
X138101300Y-119869000I495300J0D01*
G01*
D10*
X136761450Y-99797000D02*
G75*
G02*
X135910550Y-99797000I-425450J0D01*
G01*
X135910550Y-99797000D02*
G75*
G02*
X136761450Y-99797000I425450J0D01*
G01*
D23*
X176657300Y-103099000D02*
G75*
G02*
X175770700Y-103099000I-443300J0D01*
G01*
X175770700Y-103099000D02*
G75*
G02*
X176657300Y-103099000I443300J0D01*
G01*
D15*
X124081800Y-80473000D02*
G75*
G02*
X122780200Y-80473000I-650800J0D01*
G01*
X122780200Y-80473000D02*
G75*
G02*
X124081800Y-80473000I650800J0D01*
G01*
D12*
X193386300Y-125684000D02*
G75*
G02*
X192395700Y-125684000I-495300J0D01*
G01*
X192395700Y-125684000D02*
G75*
G02*
X193386300Y-125684000I495300J0D01*
G01*
D10*
X139301450Y-99797000D02*
G75*
G02*
X138450550Y-99797000I-425450J0D01*
G01*
X138450550Y-99797000D02*
G75*
G02*
X139301450Y-99797000I425450J0D01*
G01*
D12*
X155881300Y-124949000D02*
G75*
G02*
X154890700Y-124949000I-495300J0D01*
G01*
X154890700Y-124949000D02*
G75*
G02*
X155881300Y-124949000I495300J0D01*
G01*
X80686300Y-115524000D02*
G75*
G02*
X79695700Y-115524000I-495300J0D01*
G01*
X79695700Y-115524000D02*
G75*
G02*
X80686300Y-115524000I495300J0D01*
G01*
D13*
X89084800Y-140505000D02*
G75*
G02*
X88221200Y-140505000I-431800J0D01*
G01*
X88221200Y-140505000D02*
G75*
G02*
X89084800Y-140505000I431800J0D01*
G01*
D17*
X98593300Y-122179000D02*
G75*
G02*
X97348700Y-122179000I-622300J0D01*
G01*
X97348700Y-122179000D02*
G75*
G02*
X98593300Y-122179000I622300J0D01*
G01*
D12*
X94021300Y-102824000D02*
G75*
G02*
X93030700Y-102824000I-495300J0D01*
G01*
X93030700Y-102824000D02*
G75*
G02*
X94021300Y-102824000I495300J0D01*
G01*
X97532300Y-80519000D02*
G75*
G02*
X96541700Y-80519000I-495300J0D01*
G01*
X96541700Y-80519000D02*
G75*
G02*
X97532300Y-80519000I495300J0D01*
G01*
D10*
X141841450Y-102337000D02*
G75*
G02*
X140990550Y-102337000I-425450J0D01*
G01*
X140990550Y-102337000D02*
G75*
G02*
X141841450Y-102337000I425450J0D01*
G01*
D16*
X128220700Y-124689000D02*
G75*
G02*
X127179300Y-124689000I-520700J0D01*
G01*
X127179300Y-124689000D02*
G75*
G02*
X128220700Y-124689000I520700J0D01*
G01*
D12*
X87671300Y-102824000D02*
G75*
G02*
X86680700Y-102824000I-495300J0D01*
G01*
X86680700Y-102824000D02*
G75*
G02*
X87671300Y-102824000I495300J0D01*
G01*
X153341300Y-109709000D02*
G75*
G02*
X152350700Y-109709000I-495300J0D01*
G01*
X152350700Y-109709000D02*
G75*
G02*
X153341300Y-109709000I495300J0D01*
G01*
X158421300Y-109709000D02*
G75*
G02*
X157430700Y-109709000I-495300J0D01*
G01*
X157430700Y-109709000D02*
G75*
G02*
X158421300Y-109709000I495300J0D01*
G01*
D13*
X192480800Y-140505000D02*
G75*
G02*
X191617200Y-140505000I-431800J0D01*
G01*
X191617200Y-140505000D02*
G75*
G02*
X192480800Y-140505000I431800J0D01*
G01*
D14*
G36*
X189406000Y-90399000D02*
G01*
X187405000Y-90399000D01*
X187405000Y-88398000D01*
X189406000Y-88398000D01*
X189406000Y-90399000D01*
G37*
D16*
X118060700Y-124689000D02*
G75*
G02*
X117019300Y-124689000I-520700J0D01*
G01*
X117019300Y-124689000D02*
G75*
G02*
X118060700Y-124689000I520700J0D01*
G01*
D12*
X180686300Y-118064000D02*
G75*
G02*
X179695700Y-118064000I-495300J0D01*
G01*
X179695700Y-118064000D02*
G75*
G02*
X180686300Y-118064000I495300J0D01*
G01*
D15*
X168081800Y-80473000D02*
G75*
G02*
X166780200Y-80473000I-650800J0D01*
G01*
X166780200Y-80473000D02*
G75*
G02*
X168081800Y-80473000I650800J0D01*
G01*
D12*
X180686300Y-115524000D02*
G75*
G02*
X179695700Y-115524000I-495300J0D01*
G01*
X179695700Y-115524000D02*
G75*
G02*
X180686300Y-115524000I495300J0D01*
G01*
X90846300Y-125684000D02*
G75*
G02*
X89855700Y-125684000I-495300J0D01*
G01*
X89855700Y-125684000D02*
G75*
G02*
X90846300Y-125684000I495300J0D01*
G01*
X160961300Y-124949000D02*
G75*
G02*
X159970700Y-124949000I-495300J0D01*
G01*
X159970700Y-124949000D02*
G75*
G02*
X160961300Y-124949000I495300J0D01*
G01*
D15*
X113921800Y-80473000D02*
G75*
G02*
X112620200Y-80473000I-650800J0D01*
G01*
X112620200Y-80473000D02*
G75*
G02*
X113921800Y-80473000I650800J0D01*
G01*
M02*
