M48
; DRILL file {KiCad 9.0.2} date 2025-06-02T23:35:34+0530
; FORMAT={-:-/ absolute / metric / decimal}
; #@! TF.CreationDate,2025-06-02T23:35:34+05:30
; #@! TF.GenerationSoftware,Kicad,Pcbnew,9.0.2
; #@! TF.FileFunction,Plated,1,2,PTH
FMAT,2
METRIC
; #@! TA.AperFunction,Plated,PTH,ViaDrill
T1C0.305
; #@! TA.AperFunction,Plated,PTH,ViaDrill
T2C0.889
; #@! TA.AperFunction,Plated,PTH,ViaDrill
T3C0.891
; #@! TA.AperFunction,Plated,PTH,ViaDrill
T4C0.900
; #@! TA.AperFunction,Plated,PTH,ViaDrill
T5C0.901
; #@! TA.AperFunction,Plated,PTH,ViaDrill
T6C0.915
; #@! TA.AperFunction,Plated,PTH,ViaDrill
T7C1.016
; #@! TA.AperFunction,Plated,PTH,ViaDrill
T8C1.200
; #@! TA.AperFunction,Plated,PTH,ViaDrill
T9C1.397
; #@! TA.AperFunction,Plated,PTH,ViaDrill
T10C1.600
; #@! TA.AperFunction,Plated,PTH,ViaDrill
T11C1.701
; #@! TA.AperFunction,Plated,PTH,ViaDrill
T12C2.101
; #@! TA.AperFunction,Plated,PTH,ViaDrill
T13C3.000
%
G90
G05
T1
X116.016Y-112.243
X118.302Y-111.481
X125.414Y-114.783
X133.288Y-104.369
X151.322Y-127.229
X173.42Y-113.513
T2
X80.191Y-112.984
X80.191Y-115.524
X80.191Y-118.064
X87.811Y-125.684
X90.351Y-125.684
X92.891Y-125.684
X180.191Y-112.984
X180.191Y-115.524
X180.191Y-118.064
X187.811Y-125.684
X190.351Y-125.684
X192.891Y-125.684
T3
X176.214Y-103.099
X176.214Y-105.639
X188.406Y-86.859
X188.406Y-89.399
T4
X87.176Y-102.824
X87.176Y-107.904
X93.526Y-102.824
X93.526Y-107.904
X187.176Y-102.824
X187.176Y-107.904
X193.526Y-102.824
X193.526Y-107.904
T5
X128.208Y-100.813
X128.208Y-103.313
T6
X82.049Y-136.441
X82.049Y-140.505
X88.653Y-136.441
X88.653Y-140.505
X88.838Y-96.241
X91.378Y-96.241
X97.037Y-80.519
X99.577Y-80.519
X100.268Y-131.547
X100.268Y-135.611
X102.117Y-80.519
X104.657Y-80.519
X106.872Y-131.547
X106.872Y-135.611
X107.197Y-80.519
X136.336Y-99.797
X136.336Y-102.337
X137.606Y-109.709
X137.606Y-119.869
X137.606Y-122.409
X137.606Y-124.949
X138.876Y-99.797
X138.876Y-102.337
X140.146Y-109.709
X140.146Y-124.949
X141.416Y-99.797
X141.416Y-102.337
X142.686Y-109.709
X142.686Y-124.949
X143.956Y-99.797
X143.956Y-102.337
X145.226Y-109.709
X145.226Y-124.949
X147.766Y-109.709
X147.766Y-124.949
X150.306Y-109.709
X150.306Y-124.949
X152.846Y-109.709
X152.846Y-124.949
X154.116Y-122.403
X155.386Y-109.709
X155.386Y-124.949
X156.656Y-122.403
X157.926Y-109.709
X157.926Y-124.949
X160.466Y-109.709
X160.466Y-124.949
X163.006Y-109.709
X163.006Y-124.949
X165.546Y-109.709
X165.546Y-124.949
X168.086Y-110.979
X168.086Y-113.519
X168.086Y-116.059
X168.086Y-118.599
X168.086Y-121.139
X168.086Y-123.679
X173.928Y-131.547
X173.928Y-135.611
X180.532Y-131.547
X180.532Y-135.611
X189.168Y-96.241
X191.708Y-96.241
X192.049Y-136.441
X192.049Y-140.505
X198.653Y-136.441
X198.653Y-140.505
T7
X112.46Y-124.689
X115.0Y-124.689
X117.54Y-124.689
X120.08Y-124.689
X122.62Y-124.689
X125.16Y-124.689
X127.7Y-124.689
X130.24Y-124.689
T8
X113.271Y-80.473
X118.351Y-80.473
X123.431Y-80.473
X157.271Y-80.473
X162.351Y-80.473
X167.431Y-80.473
T9
X82.731Y-108.869
X82.731Y-122.179
X97.971Y-108.869
X97.971Y-122.179
X182.731Y-108.869
X182.731Y-122.179
X197.971Y-108.869
X197.971Y-122.179
T10
X177.436Y-80.742
X180.435Y-80.742
T11
X174.436Y-80.742
T12
X100.351Y-87.473
X100.351Y-92.172
X100.351Y-96.871
X180.351Y-87.473
X180.351Y-92.172
X180.351Y-96.871
T13
X68.351Y-140.973
X90.851Y-80.473
X128.97Y-87.097
X139.638Y-87.097
X151.068Y-87.097
X188.851Y-80.473
X212.351Y-140.973
M30
