%TF.GenerationSoftware,KiCad,Pcbnew,9.0.2*%
%TF.CreationDate,2025-06-02T23:35:36+05:30*%
%TF.ProjectId,RemoteV2,52656d6f-7465-4563-922e-6b696361645f,rev?*%
%TF.SameCoordinates,Original*%
%TF.FileFunction,Copper,L2,Bot*%
%TF.FilePolarity,Positive*%
%FSLAX46Y46*%
G04 Gerber Fmt 4.6, Leading zero omitted, Abs format (unit mm)*
G04 Created by KiCad (PCBNEW 9.0.2) date 2025-06-02 23:35:36*
%MOMM*%
%LPD*%
G01*
G04 APERTURE LIST*
%TA.AperFunction,NonConductor*%
%ADD10C,0.000000*%
%TD*%
%TA.AperFunction,ViaPad*%
%ADD11C,1.778000*%
%TD*%
%TA.AperFunction,ViaPad*%
%ADD12C,3.000010*%
%TD*%
%TA.AperFunction,ViaPad*%
%ADD13C,0.619760*%
%TD*%
%TA.AperFunction,ViaPad*%
%ADD14C,1.879600*%
%TD*%
%TA.AperFunction,ViaPad*%
%ADD15C,1.498600*%
%TD*%
%TA.AperFunction,ViaPad*%
%ADD16C,2.286000*%
%TD*%
%TA.AperFunction,ViaPad*%
%ADD17C,0.901010*%
%TD*%
%TA.AperFunction,ViaPad*%
%ADD18C,2.400000*%
%TD*%
%TA.AperFunction,ViaPad*%
%ADD19C,1.524000*%
%TD*%
%TA.AperFunction,ViaPad*%
%ADD20C,1.570000*%
%TD*%
%TA.AperFunction,ViaPad*%
%ADD21C,0.891010*%
%TD*%
%TA.AperFunction,ViaPad*%
%ADD22C,3.099990*%
%TD*%
%TA.AperFunction,ViaPad*%
%ADD23C,1.600000*%
%TD*%
%TA.AperFunction,ViaPad*%
%ADD24C,0.915010*%
%TD*%
%TA.AperFunction,ViaPad*%
%ADD25C,1.800000*%
%TD*%
%TA.AperFunction,ViaPad*%
%ADD26C,2.500000*%
%TD*%
%TA.AperFunction,Conductor*%
%ADD27C,0.300000*%
%TD*%
%TA.AperFunction,Conductor*%
%ADD28C,0.400000*%
%TD*%
G04 APERTURE END LIST*
D10*
%TA.AperFunction,NonConductor*%
G36*
X176999000Y-106424000D02*
G01*
X175429000Y-106424000D01*
X175429000Y-104854000D01*
X176999000Y-104854000D01*
X176999000Y-106424000D01*
G37*
%TD.AperFunction*%
%TA.AperFunction,NonConductor*%
G36*
X137085300Y-103086300D02*
G01*
X135586700Y-103086300D01*
X135586700Y-101587700D01*
X137085300Y-101587700D01*
X137085300Y-103086300D01*
G37*
%TD.AperFunction*%
%TA.AperFunction,NonConductor*%
G36*
X189306000Y-90299000D02*
G01*
X187506000Y-90299000D01*
X187506000Y-88499000D01*
X189306000Y-88499000D01*
X189306000Y-90299000D01*
G37*
%TD.AperFunction*%
%TA.AperFunction,NonConductor*%
G36*
X129008000Y-104113000D02*
G01*
X127408000Y-104113000D01*
X127408000Y-102513000D01*
X129008000Y-102513000D01*
X129008000Y-104113000D01*
G37*
%TD.AperFunction*%
D11*
%TO.N,*%
X145226000Y-109709000D03*
D12*
X188851000Y-80473000D03*
D13*
X133288000Y-104369000D03*
D14*
X115000000Y-124689000D03*
X130240000Y-124689000D03*
D11*
X193526000Y-102824000D03*
D15*
X136336000Y-99797000D03*
D16*
X197971000Y-122179000D03*
D11*
X147766000Y-124949000D03*
D16*
X182731000Y-122179000D03*
D17*
X128208000Y-103313000D03*
D11*
X155386000Y-124949000D03*
X97037000Y-80519000D03*
D13*
X151322000Y-127229000D03*
D14*
X125160000Y-124689000D03*
X117540000Y-124689000D03*
D11*
X180191000Y-118064000D03*
D18*
X180435000Y-80742000D03*
D15*
X141416000Y-102337000D03*
D11*
X91378000Y-96241000D03*
X187176000Y-107904000D03*
X104657000Y-80519000D03*
D15*
X138876000Y-99797000D03*
D11*
X137606000Y-119869000D03*
D18*
X157271000Y-80473000D03*
D13*
X173420000Y-113513000D03*
D11*
X88838000Y-96241000D03*
D12*
X90851000Y-80473000D03*
D11*
X87811000Y-125684000D03*
D19*
X198653000Y-136441000D03*
X88653000Y-140505000D03*
D20*
X176214000Y-103099000D03*
D12*
X151068000Y-87097000D03*
D11*
X150306000Y-124949000D03*
D21*
X176214000Y-105639000D03*
D16*
X197971000Y-108869000D03*
D22*
X100351000Y-92172000D03*
D19*
X88653000Y-136441000D03*
X100268000Y-131547000D03*
D15*
X138876000Y-102337000D03*
D14*
X112460000Y-124689000D03*
D13*
X118302000Y-111481000D03*
D11*
X168086000Y-118599000D03*
X152846000Y-124949000D03*
X187811000Y-125684000D03*
X90351000Y-125684000D03*
X150306000Y-109709000D03*
D18*
X167431000Y-80473000D03*
D15*
X143956000Y-99797000D03*
D11*
X102117000Y-80519000D03*
D19*
X192049000Y-140505000D03*
D18*
X123431000Y-80473000D03*
X177436000Y-80742000D03*
D16*
X97971000Y-122179000D03*
D11*
X190351000Y-125684000D03*
D16*
X82731000Y-122179000D03*
D23*
X128208000Y-100813000D03*
D11*
X160466000Y-124949000D03*
D14*
X120080000Y-124689000D03*
D18*
X118351000Y-80473000D03*
D19*
X180532000Y-131547000D03*
D11*
X157926000Y-124949000D03*
D13*
X125414000Y-114783000D03*
D24*
X136336000Y-102337000D03*
D22*
X180351000Y-96871000D03*
D16*
X97971000Y-108869000D03*
D11*
X192891000Y-125684000D03*
X140146000Y-124949000D03*
X87176000Y-102824000D03*
X165546000Y-124949000D03*
D19*
X82049000Y-140505000D03*
D12*
X68351000Y-140973000D03*
D11*
X137606000Y-122409000D03*
X80191000Y-115524000D03*
D12*
X139638000Y-87097000D03*
D19*
X82049000Y-136441000D03*
D11*
X93526000Y-102824000D03*
X180191000Y-115524000D03*
X93526000Y-107904000D03*
X99577000Y-80519000D03*
X165546000Y-109709000D03*
X142686000Y-109709000D03*
X142686000Y-124949000D03*
D18*
X113271000Y-80473000D03*
D11*
X92891000Y-125684000D03*
X187176000Y-102824000D03*
X193526000Y-107904000D03*
D19*
X192049000Y-136441000D03*
D11*
X107197000Y-80519000D03*
X163006000Y-124949000D03*
D25*
X188406000Y-86859000D03*
D22*
X180351000Y-87473000D03*
D11*
X155386000Y-109709000D03*
X137606000Y-109709000D03*
D12*
X212351000Y-140973000D03*
D11*
X168086000Y-121139000D03*
X80191000Y-112984000D03*
X191708000Y-96241000D03*
D19*
X180532000Y-135611000D03*
D11*
X157926000Y-109709000D03*
D14*
X122620000Y-124689000D03*
D18*
X162351000Y-80473000D03*
D14*
X127700000Y-124689000D03*
D11*
X147766000Y-109709000D03*
D22*
X100351000Y-96871000D03*
D15*
X141416000Y-99797000D03*
D26*
X174436000Y-80742000D03*
D13*
X116016000Y-112243000D03*
D11*
X156656000Y-122403000D03*
D19*
X100268000Y-135611000D03*
D11*
X87176000Y-107904000D03*
X180191000Y-112984000D03*
X168086000Y-110979000D03*
D21*
X188406000Y-89399000D03*
D11*
X168086000Y-113519000D03*
X168086000Y-116059000D03*
D19*
X198653000Y-140505000D03*
X173928000Y-135611000D03*
D11*
X160466000Y-109709000D03*
D19*
X106872000Y-131547000D03*
D22*
X100351000Y-87473000D03*
X180351000Y-92172000D03*
D11*
X80191000Y-118064000D03*
X140146000Y-109709000D03*
X189168000Y-96241000D03*
D15*
X143956000Y-102337000D03*
D11*
X145226000Y-124949000D03*
X152846000Y-109709000D03*
X154116000Y-122403000D03*
X137606000Y-124949000D03*
D19*
X106872000Y-135611000D03*
X173928000Y-131547000D03*
D16*
X182731000Y-108869000D03*
D12*
X128970000Y-87097000D03*
D11*
X163006000Y-109709000D03*
D16*
X82731000Y-108869000D03*
D11*
X168086000Y-123679000D03*
%TD*%
D27*
%TO.N,*%
X138114000Y-113005000D02*
X140146000Y-115037000D01*
X140400000Y-112243000D02*
X135574000Y-112243000D01*
X105602000Y-86544000D02*
X99577000Y-80519000D01*
X118302000Y-80523000D02*
X118351000Y-80473000D01*
X135066000Y-109703000D02*
X136844000Y-111481000D01*
D28*
X92394000Y-120117000D02*
X90362000Y-122149000D01*
D27*
X137606000Y-122409000D02*
X136341000Y-122409000D01*
X142686000Y-114529000D02*
X140400000Y-112243000D01*
X134558000Y-113005000D02*
X138114000Y-113005000D01*
X191708000Y-96241000D02*
X191708000Y-97765000D01*
X118302000Y-111481000D02*
X116778000Y-111481000D01*
X156910000Y-108179000D02*
X169864000Y-108179000D01*
X133288000Y-111735000D02*
X134558000Y-113005000D01*
X155391000Y-107163000D02*
X152846000Y-109709000D01*
X140654000Y-101067000D02*
X142686000Y-101067000D01*
X180351000Y-96871000D02*
X160603000Y-96871000D01*
D28*
X80721000Y-113513000D02*
X80191000Y-112984000D01*
D27*
X170626000Y-107163000D02*
X155391000Y-107163000D01*
X141416000Y-105385000D02*
X139638000Y-107163000D01*
X140146000Y-101575000D02*
X140654000Y-101067000D01*
X134050000Y-107163000D02*
X135066000Y-106147000D01*
X173420000Y-113513000D02*
X174182000Y-113513000D01*
X119826000Y-88621000D02*
X125414000Y-83033000D01*
X137606000Y-101068000D02*
X138876000Y-102338000D01*
X95188000Y-100051000D02*
X91378000Y-96241000D01*
X118302000Y-104369000D02*
X118302000Y-80523000D01*
X138876000Y-99798000D02*
X138876000Y-98273000D01*
X141924000Y-111481000D02*
X145226000Y-114783000D01*
D28*
X103570000Y-118339000D02*
X113730000Y-128499000D01*
D27*
X174182000Y-113513000D02*
X182056000Y-105639000D01*
X155386000Y-109709000D02*
X156910000Y-108179000D01*
X137606000Y-97765000D02*
X137606000Y-101068000D01*
X137606000Y-119869000D02*
X136087000Y-119869000D01*
X141416000Y-102337000D02*
X141416000Y-105385000D01*
X136082000Y-107163000D02*
X135066000Y-108179000D01*
X171896000Y-108433000D02*
X170626000Y-107163000D01*
X139130000Y-96241000D02*
X137606000Y-97765000D01*
D28*
X150306000Y-124949000D02*
X145480000Y-129769000D01*
D27*
X193486000Y-99543000D02*
X193486000Y-102784000D01*
X95188000Y-78969000D02*
X96204000Y-77953000D01*
X122366000Y-114783000D02*
X120080000Y-117069000D01*
X192050000Y-136442000D02*
X171896000Y-116313000D01*
X147766000Y-109709000D02*
X147766000Y-98273000D01*
X105602000Y-100305000D02*
X105602000Y-86544000D01*
X95188000Y-100051000D02*
X95188000Y-78969000D01*
X136087000Y-119869000D02*
X119826000Y-103607000D01*
D28*
X155645000Y-127229000D02*
X157926000Y-124949000D01*
D27*
X102046000Y-78969000D02*
X102046000Y-80448000D01*
X146496000Y-98527000D02*
X146496000Y-108439000D01*
X145226000Y-114783000D02*
X145226000Y-124949000D01*
X135066000Y-108179000D02*
X135066000Y-109703000D01*
X116016000Y-112243000D02*
X107380000Y-112243000D01*
X96204000Y-77953000D02*
X101030000Y-77953000D01*
X140146000Y-115037000D02*
X140146000Y-124949000D01*
X120080000Y-117069000D02*
X120080000Y-124689000D01*
D28*
X151322000Y-127229000D02*
X155645000Y-127229000D01*
D27*
X139892000Y-97257000D02*
X145226000Y-97257000D01*
X160603000Y-96871000D02*
X150306000Y-109709000D01*
D28*
X89600000Y-118339000D02*
X103570000Y-118339000D01*
X145480000Y-129769000D02*
X112460000Y-129769000D01*
D27*
X142686000Y-101067000D02*
X143956000Y-102337000D01*
X191708000Y-97765000D02*
X193486000Y-99543000D01*
D28*
X90362000Y-122149000D02*
X90351000Y-125685000D01*
D27*
X140146000Y-104623000D02*
X140146000Y-101575000D01*
X182056000Y-103353000D02*
X189168000Y-96241000D01*
X159791000Y-83033000D02*
X162351000Y-80473000D01*
X125414000Y-114783000D02*
X122366000Y-114783000D01*
D28*
X112460000Y-124690000D02*
X112460000Y-120371000D01*
D27*
X170880000Y-128271000D02*
X173928000Y-131547000D01*
X101030000Y-77953000D02*
X102046000Y-78969000D01*
X138622000Y-106147000D02*
X140146000Y-104623000D01*
D28*
X105602000Y-113513000D02*
X80721000Y-113513000D01*
D27*
X139638000Y-107163000D02*
X136082000Y-107163000D01*
X171896000Y-116313000D02*
X171896000Y-108433000D01*
D28*
X86785000Y-115525000D02*
X89600000Y-118339000D01*
X80191000Y-115525000D02*
X86785000Y-115525000D01*
D27*
X147766000Y-98273000D02*
X145734000Y-96241000D01*
X135574000Y-112243000D02*
X134050000Y-110719000D01*
D28*
X112460000Y-129769000D02*
X102808000Y-120117000D01*
D27*
X169864000Y-108179000D02*
X170880000Y-109195000D01*
X116778000Y-111481000D02*
X105602000Y-100305000D01*
X134050000Y-110719000D02*
X134050000Y-107163000D01*
X145226000Y-97257000D02*
X146496000Y-98527000D01*
X138876000Y-98273000D02*
X139892000Y-97257000D01*
X136844000Y-111481000D02*
X141924000Y-111481000D01*
D28*
X113730000Y-128499000D02*
X144215000Y-128499000D01*
D27*
X102046000Y-80448000D02*
X102117000Y-80519000D01*
X193486000Y-102784000D02*
X193526000Y-102824000D01*
X133288000Y-104369000D02*
X133288000Y-111735000D01*
X135066000Y-106147000D02*
X138622000Y-106147000D01*
D28*
X112460000Y-120371000D02*
X105602000Y-113513000D01*
D27*
X145734000Y-96241000D02*
X139130000Y-96241000D01*
D28*
X102808000Y-120117000D02*
X92394000Y-120117000D01*
D27*
X119826000Y-103607000D02*
X119826000Y-88621000D01*
X136341000Y-122409000D02*
X118302000Y-104369000D01*
X182056000Y-105639000D02*
X182056000Y-103353000D01*
X170880000Y-109195000D02*
X170880000Y-128271000D01*
X142686000Y-124949000D02*
X142686000Y-114529000D01*
X146496000Y-108439000D02*
X145226000Y-109709000D01*
X125414000Y-83033000D02*
X159791000Y-83033000D01*
D28*
X144215000Y-128499000D02*
X147766000Y-124949000D01*
D27*
X107380000Y-112243000D02*
X95188000Y-100051000D01*
%TD*%
M02*
