%TF.GenerationSoftware,KiCad,Pcbnew,9.0.2*%
%TF.CreationDate,2025-06-02T23:35:36+05:30*%
%TF.ProjectId,RemoteV2,52656d6f-7465-4563-922e-6b696361645f,rev?*%
%TF.SameCoordinates,Original*%
%TF.FileFunction,Legend,Top*%
%TF.FilePolarity,Positive*%
%FSLAX46Y46*%
G04 Gerber Fmt 4.6, Leading zero omitted, Abs format (unit mm)*
G04 Created by KiCad (PCBNEW 9.0.2) date 2025-06-02 23:35:36*
%MOMM*%
%LPD*%
G01*
G04 APERTURE LIST*
%ADD10C,0.100000*%
%ADD11C,0.177800*%
%ADD12C,0.200000*%
%ADD13C,0.000000*%
%ADD14C,0.254000*%
%ADD15C,0.180000*%
%ADD16C,0.203200*%
%ADD17C,0.300000*%
G04 APERTURE END LIST*
D10*
X164603000Y-120806000D02*
X164565000Y-120879000D01*
X165533000Y-118195000D02*
X165462000Y-118157000D01*
X159450000Y-122729000D02*
X159777000Y-122729000D01*
D11*
X136783000Y-96272000D02*
X136783000Y-96409000D01*
D10*
X143450000Y-122028000D02*
X143415000Y-122137000D01*
X140387000Y-116960000D02*
X140024000Y-116960000D01*
X163478000Y-115838000D02*
X163442000Y-115873000D01*
D11*
X164535000Y-105713000D02*
X164380000Y-105662000D01*
X136600000Y-96937000D02*
X136556000Y-96981000D01*
D10*
X107415000Y-82358000D02*
X107489000Y-82432000D01*
X141309000Y-121118000D02*
X141383000Y-121192000D01*
D12*
X191461000Y-86963000D02*
X192403000Y-86963000D01*
D11*
X165896000Y-105662000D02*
X165845000Y-105609000D01*
D12*
X130984000Y-95375000D02*
X130864000Y-95317000D01*
D10*
X166475000Y-113623000D02*
X166475000Y-113442000D01*
D12*
X143920000Y-128245000D02*
X144392000Y-129485000D01*
X190803000Y-86755000D02*
X190750000Y-86755000D01*
X176587000Y-76955000D02*
X176704000Y-77014000D01*
D10*
X165919000Y-118339000D02*
X165883000Y-118449000D01*
X137169000Y-112497000D02*
X137933000Y-112497000D01*
X145373000Y-122670000D02*
X145447000Y-122741000D01*
D11*
X118469000Y-77245000D02*
X118365000Y-77191000D01*
X177519000Y-128352000D02*
X178091000Y-128352000D01*
X192703000Y-93199000D02*
X192548000Y-93148000D01*
X178091000Y-128352000D02*
X177781000Y-128766000D01*
D10*
X144900000Y-121883000D02*
X144827000Y-121921000D01*
X143415000Y-121024000D02*
X143341000Y-120953000D01*
D11*
X177832000Y-129441000D02*
X177677000Y-129441000D01*
X163834000Y-77453000D02*
X163834000Y-77400000D01*
D10*
X147875000Y-111240000D02*
X147984000Y-111276000D01*
X141309000Y-122378000D02*
X141383000Y-122304000D01*
X141418000Y-122086000D02*
X141383000Y-122015000D01*
D11*
X190694000Y-99594000D02*
X190798000Y-99543000D01*
D10*
X99323000Y-83120000D02*
X100087000Y-83628000D01*
X155421000Y-111989000D02*
X155530000Y-112025000D01*
X140699000Y-117323000D02*
X140699000Y-117471000D01*
D13*
G36*
X169610000Y-108439000D02*
G01*
X135828000Y-108439000D01*
X135828000Y-108185000D01*
X169610000Y-108185000D01*
X169610000Y-108439000D01*
G37*
D10*
X104332000Y-83483000D02*
X104441000Y-83519000D01*
X141522000Y-116960000D02*
X141377000Y-116960000D01*
X166320000Y-118195000D02*
X166247000Y-118157000D01*
D12*
X123491000Y-128522000D02*
X123549000Y-128464000D01*
D11*
X176346000Y-128352000D02*
X176813000Y-128352000D01*
X188007000Y-93148000D02*
X188007000Y-94237000D01*
D10*
X141383000Y-121555000D02*
X141309000Y-121629000D01*
D12*
X190438000Y-87067000D02*
X190491000Y-87275000D01*
D11*
X166417000Y-105091000D02*
X166468000Y-105142000D01*
D10*
X97075000Y-82332000D02*
X97110000Y-82368000D01*
D12*
X190438000Y-86805000D02*
X190438000Y-87067000D01*
D10*
X101901000Y-83359000D02*
X101936000Y-83323000D01*
D14*
X90987000Y-115524000D02*
G75*
G02*
X89717000Y-115524000I-635000J0D01*
G01*
X89717000Y-115524000D02*
G75*
G02*
X90987000Y-115524000I635000J0D01*
G01*
D10*
X102081000Y-83287000D02*
X102155000Y-83323000D01*
D12*
X193877000Y-86910000D02*
X193353000Y-87433000D01*
D10*
X147258000Y-122934000D02*
X148022000Y-122645000D01*
X97001000Y-82297000D02*
X97075000Y-82332000D01*
X142017000Y-117069000D02*
X141979000Y-117143000D01*
X145081000Y-111530000D02*
X145116000Y-111639000D01*
X137898000Y-111385000D02*
X137933000Y-111494000D01*
D12*
X122863000Y-128050000D02*
X122686000Y-127991000D01*
X147689000Y-129485000D02*
X147867000Y-129427000D01*
D14*
X135066000Y-103608000D02*
X145226000Y-103608000D01*
D11*
X136191000Y-96318000D02*
X136191000Y-96181000D01*
D10*
X139709000Y-112497000D02*
X139709000Y-112243000D01*
D11*
X189884000Y-100633000D02*
X189780000Y-100582000D01*
D12*
X191065000Y-86910000D02*
X190961000Y-86805000D01*
D10*
X144972000Y-112025000D02*
X145081000Y-111989000D01*
X104878000Y-83374000D02*
X104913000Y-83303000D01*
X145116000Y-111748000D02*
X145299000Y-111748000D01*
D14*
X137606000Y-103608000D02*
X137606000Y-101068000D01*
D12*
X137646000Y-61738000D02*
X143145000Y-61738000D01*
D11*
X165345000Y-105505000D02*
X165398000Y-105558000D01*
D10*
X96783000Y-83300000D02*
X97547000Y-83300000D01*
X153384000Y-120516000D02*
X153384000Y-120107000D01*
D11*
X195228000Y-133969000D02*
X195177000Y-134073000D01*
D10*
X153003000Y-120915000D02*
X153574000Y-120697000D01*
X142381000Y-117689000D02*
X142454000Y-117616000D01*
X139988000Y-119355000D02*
X139914000Y-119355000D01*
X140024000Y-117689000D02*
X139988000Y-117651000D01*
X164263000Y-115545000D02*
X163755000Y-116310000D01*
D12*
X131220000Y-97042000D02*
X131278000Y-97103000D01*
D10*
X164530000Y-122876000D02*
X164494000Y-122950000D01*
X104913000Y-82515000D02*
X104913000Y-82371000D01*
X96783000Y-82477000D02*
X96821000Y-82368000D01*
X101863000Y-82297000D02*
X102627000Y-82297000D01*
D12*
X154215000Y-128304000D02*
X154273000Y-128362000D01*
D10*
X140425000Y-117616000D02*
X140351000Y-117689000D01*
D11*
X195177000Y-133189000D02*
X195228000Y-133293000D01*
D10*
X140219000Y-111748000D02*
X140146000Y-111713000D01*
X166028000Y-118886000D02*
X166102000Y-118921000D01*
X147258000Y-122934000D02*
X148022000Y-123226000D01*
X140024000Y-116960000D02*
X139988000Y-117288000D01*
D12*
X118622000Y-127991000D02*
X119152000Y-127991000D01*
D11*
X166468000Y-104623000D02*
X166155000Y-105038000D01*
D10*
X165462000Y-118921000D02*
X165533000Y-118886000D01*
D11*
X177469000Y-129337000D02*
X177415000Y-129233000D01*
D14*
X95177000Y-126954000D02*
X85525000Y-126954000D01*
D10*
X165606000Y-118812000D02*
X165642000Y-118738000D01*
D11*
X127192000Y-97418000D02*
X127192000Y-97677000D01*
D10*
X142686000Y-121098000D02*
X142686000Y-121243000D01*
X157913000Y-122767000D02*
X157842000Y-122729000D01*
D11*
X136737000Y-97463000D02*
X136783000Y-97600000D01*
D10*
X99432000Y-82807000D02*
X99506000Y-82843000D01*
D12*
X150869000Y-129310000D02*
X150928000Y-129190000D01*
D14*
X180278000Y-130531000D02*
X180278000Y-136627000D01*
D11*
X104263000Y-128662000D02*
X104212000Y-128766000D01*
D12*
X154331000Y-128599000D02*
X154273000Y-128718000D01*
X145609000Y-128482000D02*
X145609000Y-128599000D01*
D11*
X90062000Y-100633000D02*
X89958000Y-100582000D01*
X166521000Y-105297000D02*
X166521000Y-105401000D01*
X136783000Y-96409000D02*
X136737000Y-96546000D01*
D10*
X140072000Y-111349000D02*
X140146000Y-111276000D01*
D12*
X131101000Y-96983000D02*
X131220000Y-97042000D01*
D11*
X89854000Y-100374000D02*
X89854000Y-100270000D01*
D10*
X106798000Y-82432000D02*
X106869000Y-82358000D01*
X142729000Y-116960000D02*
X142729000Y-117725000D01*
D12*
X125474000Y-128522000D02*
X125416000Y-128228000D01*
D11*
X192807000Y-93354000D02*
X192703000Y-93199000D01*
X88891000Y-93402000D02*
X89620000Y-94491000D01*
D10*
X163333000Y-115545000D02*
X163442000Y-115584000D01*
D12*
X192853000Y-86493000D02*
X193011000Y-86335000D01*
D10*
X106798000Y-84184000D02*
X106869000Y-84255000D01*
D11*
X117898000Y-78025000D02*
X117951000Y-78129000D01*
D12*
X130984000Y-94667000D02*
X131101000Y-94667000D01*
X131278000Y-91014000D02*
X130984000Y-91075000D01*
D11*
X91916000Y-94232000D02*
X91863000Y-94336000D01*
D10*
X141979000Y-117542000D02*
X142017000Y-117616000D01*
D12*
X190961000Y-89810000D02*
X191222000Y-89810000D01*
D10*
X137641000Y-111530000D02*
X137606000Y-111639000D01*
D11*
X136191000Y-97646000D02*
X136191000Y-97509000D01*
D10*
X152701000Y-111989000D02*
X152881000Y-111989000D01*
D12*
X131337000Y-97278000D02*
X131337000Y-97811000D01*
D11*
X181156000Y-100613000D02*
X181210000Y-100664000D01*
D15*
X176937000Y-108030000D02*
X176991000Y-108134000D01*
D12*
X145551000Y-128718000D02*
X145492000Y-128776000D01*
D10*
X140692000Y-122304000D02*
X140763000Y-122378000D01*
X144898000Y-112061000D02*
X144972000Y-112025000D01*
X160272000Y-123458000D02*
X160199000Y-123384000D01*
D11*
X195124000Y-133659000D02*
X195177000Y-133710000D01*
D12*
X145551000Y-128362000D02*
X145609000Y-128482000D01*
D11*
X161736000Y-103110000D02*
X162462000Y-103110000D01*
D10*
X165314000Y-120697000D02*
X165825000Y-121461000D01*
D14*
X131510000Y-125960000D02*
X131510000Y-110720000D01*
D10*
X148093000Y-112243000D02*
X148093000Y-112497000D01*
D11*
X102518000Y-128870000D02*
X102985000Y-128870000D01*
D10*
X165929000Y-113333000D02*
X165893000Y-113442000D01*
X145482000Y-122066000D02*
X145447000Y-121992000D01*
X159886000Y-122767000D02*
X159922000Y-122802000D01*
X168751000Y-109340000D02*
X168642000Y-109376000D01*
X142307000Y-116960000D02*
X142162000Y-116960000D01*
D12*
X121233000Y-128522000D02*
X121116000Y-128642000D01*
D11*
X176968000Y-129391000D02*
X176813000Y-129441000D01*
D12*
X192749000Y-86544000D02*
X192853000Y-86493000D01*
D10*
X141705000Y-117616000D02*
X141631000Y-117689000D01*
X163006000Y-115545000D02*
X163333000Y-115545000D01*
D11*
X85650000Y-133872000D02*
X85495000Y-133923000D01*
X102518000Y-128352000D02*
X102985000Y-128352000D01*
D12*
X176468000Y-76661000D02*
X176468000Y-76777000D01*
X177296000Y-77547000D02*
X177176000Y-77664000D01*
D10*
X165871000Y-115728000D02*
X165906000Y-115838000D01*
D11*
X194969000Y-134177000D02*
X194502000Y-134177000D01*
D10*
X153173000Y-111459000D02*
X153173000Y-111568000D01*
X160707000Y-122838000D02*
X160636000Y-122767000D01*
X144756000Y-123105000D02*
X144827000Y-123178000D01*
X155802000Y-120506000D02*
X155802000Y-120438000D01*
D11*
X167814000Y-103369000D02*
X167763000Y-103526000D01*
X164999000Y-103577000D02*
X164946000Y-103473000D01*
D10*
X141268000Y-117252000D02*
X141339000Y-117288000D01*
D12*
X153115000Y-128660000D02*
X153056000Y-128776000D01*
D10*
X104149000Y-83303000D02*
X104187000Y-83374000D01*
X155606000Y-122838000D02*
X155606000Y-122922000D01*
D12*
X145226000Y-104878000D02*
X147766000Y-104878000D01*
D10*
X165170000Y-118266000D02*
X165134000Y-118339000D01*
X150125000Y-123056000D02*
X150125000Y-122693000D01*
X154949000Y-112497000D02*
X155713000Y-112497000D01*
D12*
X148825000Y-128245000D02*
X148825000Y-129485000D01*
D14*
X184763000Y-101554000D02*
X184763000Y-108539000D01*
D11*
X136511000Y-97326000D02*
X136645000Y-97372000D01*
D10*
X140654000Y-121446000D02*
X140692000Y-121555000D01*
X140001000Y-111989000D02*
X140181000Y-111989000D01*
X168568000Y-109376000D02*
X168822000Y-109777000D01*
X165825000Y-120697000D02*
X165825000Y-121461000D01*
X159922000Y-123021000D02*
X159886000Y-123056000D01*
X165098000Y-118449000D02*
X165098000Y-118629000D01*
X145447000Y-123105000D02*
X145373000Y-123178000D01*
X166318000Y-121461000D02*
X166064000Y-121461000D01*
X140654000Y-122086000D02*
X140654000Y-122233000D01*
D15*
X175406000Y-107979000D02*
X175302000Y-108080000D01*
D10*
X155962000Y-121065000D02*
X155962000Y-120839000D01*
X99506000Y-82332000D02*
X99432000Y-82371000D01*
D12*
X119838000Y-128878000D02*
X119897000Y-129056000D01*
X131398000Y-94844000D02*
X131987000Y-95436000D01*
X148045000Y-129132000D02*
X148045000Y-128245000D01*
D11*
X177021000Y-128766000D02*
X176968000Y-128819000D01*
X103140000Y-128402000D02*
X103193000Y-128453000D01*
D10*
X156120000Y-120438000D02*
X156120000Y-120506000D01*
X99323000Y-84377000D02*
X99323000Y-83869000D01*
D12*
X119838000Y-127991000D02*
X119838000Y-128878000D01*
D11*
X91967000Y-93816000D02*
X91967000Y-94075000D01*
D10*
X141667000Y-115149000D02*
X141558000Y-115185000D01*
X163006000Y-113150000D02*
X163006000Y-113915000D01*
D12*
X137146000Y-56737000D02*
X143145000Y-56737000D01*
X161268000Y-128776000D02*
X161329000Y-128718000D01*
D10*
X152518000Y-112061000D02*
X152592000Y-112025000D01*
X147987000Y-122005000D02*
X147877000Y-121931000D01*
X160948000Y-122729000D02*
X161456000Y-122729000D01*
D12*
X194034000Y-86650000D02*
X193981000Y-86755000D01*
D10*
X152558000Y-122802000D02*
X152558000Y-122421000D01*
X155678000Y-112134000D02*
X155713000Y-112243000D01*
D11*
X192185000Y-94029000D02*
X192289000Y-94187000D01*
D10*
X97512000Y-83940000D02*
X97547000Y-84049000D01*
D11*
X91604000Y-93402000D02*
X91759000Y-93453000D01*
X86358000Y-132834000D02*
X86358000Y-133923000D01*
D10*
X147768000Y-123117000D02*
X147768000Y-122754000D01*
D12*
X193165000Y-89183000D02*
X193270000Y-89287000D01*
D11*
X181106000Y-101131000D02*
X180585000Y-101652000D01*
D10*
X142249000Y-111748000D02*
X142249000Y-111240000D01*
X97110000Y-82368000D02*
X97146000Y-82477000D01*
D14*
X95177000Y-126954000D02*
X95177000Y-124414000D01*
D12*
X120605000Y-129056000D02*
X120666000Y-128878000D01*
D11*
X162317000Y-78025000D02*
X162368000Y-77867000D01*
D12*
X131987000Y-91487000D02*
X131987000Y-91370000D01*
D10*
X165652000Y-113623000D02*
X165617000Y-113732000D01*
X143552000Y-116998000D02*
X143625000Y-117143000D01*
X140328000Y-111748000D02*
X140219000Y-111748000D01*
D12*
X118230000Y-127991000D02*
X117758000Y-129231000D01*
X131456000Y-91842000D02*
X131751000Y-91784000D01*
X155076000Y-129485000D02*
X155312000Y-129485000D01*
D10*
X144756000Y-122741000D02*
X144718000Y-122851000D01*
X142490000Y-117143000D02*
X142454000Y-117069000D01*
X140438000Y-112134000D02*
X140473000Y-112243000D01*
X153064000Y-111276000D02*
X153138000Y-111349000D01*
X106760000Y-83034000D02*
X107524000Y-83034000D01*
D11*
X166363000Y-105662000D02*
X166208000Y-105713000D01*
D10*
X139988000Y-117288000D02*
X140024000Y-117252000D01*
D12*
X121764000Y-128642000D02*
X121647000Y-128522000D01*
D10*
X104258000Y-82663000D02*
X104332000Y-82698000D01*
D12*
X119447000Y-128228000D02*
X119447000Y-128406000D01*
D10*
X140654000Y-122233000D02*
X140692000Y-122304000D01*
D11*
X103244000Y-129078000D02*
X103244000Y-129233000D01*
D10*
X162752000Y-113150000D02*
X163260000Y-113150000D01*
D11*
X92571000Y-93402000D02*
X92571000Y-94491000D01*
D10*
X140908000Y-121593000D02*
X140946000Y-121555000D01*
D12*
X152287000Y-128245000D02*
X152820000Y-128245000D01*
D10*
X158627000Y-122729000D02*
X158482000Y-122729000D01*
D16*
X126239000Y-100305000D02*
X126239000Y-101451000D01*
D12*
X176998000Y-76483000D02*
X176762000Y-76483000D01*
X123905000Y-128406000D02*
X124080000Y-128464000D01*
X146000000Y-128245000D02*
X146414000Y-128245000D01*
D11*
X161736000Y-102592000D02*
X161736000Y-103681000D01*
D10*
X166475000Y-113442000D02*
X166440000Y-113333000D01*
D12*
X121055000Y-128820000D02*
X121116000Y-129056000D01*
D11*
X176813000Y-128352000D02*
X176968000Y-128402000D01*
D10*
X166574000Y-121169000D02*
X166536000Y-121278000D01*
X151987000Y-123201000D02*
X152558000Y-123419000D01*
D11*
X103244000Y-128662000D02*
X103193000Y-128766000D01*
D14*
X84763000Y-108539000D02*
X82731000Y-108539000D01*
X95939000Y-101554000D02*
X84763000Y-101554000D01*
D10*
X157550000Y-123384000D02*
X157623000Y-123458000D01*
D12*
X120016000Y-129173000D02*
X120194000Y-129231000D01*
D11*
X103745000Y-128402000D02*
X103849000Y-128352000D01*
X167501000Y-103681000D02*
X167346000Y-103681000D01*
D10*
X164857000Y-118157000D02*
X164568000Y-118921000D01*
X142345000Y-114458000D02*
X142416000Y-114529000D01*
D11*
X166381000Y-103006000D02*
X166536000Y-103006000D01*
D12*
X150041000Y-129013000D02*
X150102000Y-129190000D01*
D11*
X136511000Y-96000000D02*
X136645000Y-96046000D01*
D10*
X104878000Y-82589000D02*
X104913000Y-82515000D01*
D12*
X120194000Y-129231000D02*
X120311000Y-129231000D01*
D11*
X117451000Y-77296000D02*
X117504000Y-77400000D01*
D10*
X104187000Y-82297000D02*
X104149000Y-82371000D01*
D12*
X176998000Y-77722000D02*
X176762000Y-77722000D01*
D10*
X144898000Y-111311000D02*
X144827000Y-111349000D01*
D11*
X90819000Y-99698000D02*
X90976000Y-99543000D01*
D10*
X141304000Y-115149000D02*
X141230000Y-115076000D01*
X137278000Y-112061000D02*
X137352000Y-112025000D01*
X139734000Y-119500000D02*
X139698000Y-119683000D01*
X140956000Y-116815000D02*
X140882000Y-116889000D01*
X97364000Y-83831000D02*
X97438000Y-83867000D01*
D11*
X192185000Y-93354000D02*
X192132000Y-93615000D01*
D10*
X142868000Y-122210000D02*
X142940000Y-122175000D01*
D11*
X91863000Y-94336000D02*
X91759000Y-94441000D01*
X162711000Y-77191000D02*
X163437000Y-77191000D01*
D10*
X141377000Y-116960000D02*
X141268000Y-116998000D01*
D11*
X176968000Y-128923000D02*
X177021000Y-128974000D01*
D14*
X186882000Y-85335000D02*
X189930000Y-85335000D01*
D12*
X195269000Y-86335000D02*
X194849000Y-87433000D01*
X193376000Y-89549000D02*
X193376000Y-89810000D01*
X121647000Y-128522000D02*
X121469000Y-128464000D01*
D11*
X195177000Y-133710000D02*
X195228000Y-133814000D01*
D12*
X123549000Y-129173000D02*
X123491000Y-129114000D01*
D10*
X141631000Y-117689000D02*
X141522000Y-117725000D01*
D12*
X118230000Y-127991000D02*
X118230000Y-129231000D01*
D14*
X88399000Y-135425000D02*
X88399000Y-141521000D01*
D12*
X124649000Y-128522000D02*
X124649000Y-128700000D01*
D10*
X140316000Y-114420000D02*
X140316000Y-115185000D01*
D11*
X85703000Y-132935000D02*
X85754000Y-133039000D01*
D10*
X165398000Y-113915000D02*
X165144000Y-113915000D01*
D11*
X165467000Y-103006000D02*
X165571000Y-103059000D01*
D12*
X177176000Y-77191000D02*
X177235000Y-77250000D01*
X158304000Y-128245000D02*
X158304000Y-129485000D01*
D10*
X99615000Y-82297000D02*
X99506000Y-82332000D01*
D11*
X118677000Y-77867000D02*
X118677000Y-77608000D01*
D14*
X111190000Y-125960000D02*
X131510000Y-125960000D01*
D11*
X161642000Y-78129000D02*
X161746000Y-78233000D01*
D12*
X178276000Y-76483000D02*
X177981000Y-77722000D01*
X150397000Y-129485000D02*
X150633000Y-129485000D01*
D14*
X184763000Y-108539000D02*
X182731000Y-108539000D01*
D10*
X157514000Y-122911000D02*
X157478000Y-123021000D01*
D11*
X136645000Y-96981000D02*
X136600000Y-96937000D01*
X191738000Y-93407000D02*
X191789000Y-93562000D01*
X117400000Y-77245000D02*
X117451000Y-77296000D01*
D10*
X143625000Y-115365000D02*
X143552000Y-115439000D01*
D14*
X174182000Y-130531000D02*
X180278000Y-130531000D01*
D10*
X104332000Y-82188000D02*
X104258000Y-82226000D01*
X139892000Y-111713000D02*
X139963000Y-111675000D01*
X158482000Y-122729000D02*
X158408000Y-122767000D01*
D12*
X177176000Y-76541000D02*
X176998000Y-76483000D01*
D10*
X164458000Y-122696000D02*
X164494000Y-122731000D01*
D11*
X103193000Y-129337000D02*
X103140000Y-129391000D01*
D15*
X176368000Y-108134000D02*
X176419000Y-108030000D01*
D10*
X152040000Y-122475000D02*
X152096000Y-122449000D01*
X140400000Y-111713000D02*
X140328000Y-111748000D01*
D14*
X172256000Y-78714000D02*
X182670000Y-78714000D01*
D10*
X139747000Y-111675000D02*
X139818000Y-111713000D01*
X156097000Y-120369000D02*
X156120000Y-120438000D01*
D12*
X161918000Y-128245000D02*
X161329000Y-128245000D01*
X194034000Y-86544000D02*
X194034000Y-86650000D01*
D10*
X106760000Y-83544000D02*
X107524000Y-83544000D01*
D12*
X143920000Y-128245000D02*
X143448000Y-129485000D01*
D11*
X118055000Y-78233000D02*
X118159000Y-78284000D01*
D10*
X145482000Y-122210000D02*
X145482000Y-122066000D01*
X137387000Y-111748000D02*
X137278000Y-111713000D01*
X137606000Y-111639000D02*
X137532000Y-111713000D01*
X149869000Y-112497000D02*
X149869000Y-112243000D01*
D14*
X96287000Y-85187000D02*
X104415000Y-85187000D01*
D10*
X165642000Y-118339000D02*
X165606000Y-118266000D01*
X144827000Y-111639000D02*
X144933000Y-111713000D01*
D11*
X166468000Y-105142000D02*
X166521000Y-105297000D01*
D10*
X150052000Y-112025000D02*
X150161000Y-111989000D01*
D15*
X175716000Y-107925000D02*
X175507000Y-107925000D01*
D12*
X154037000Y-128245000D02*
X154215000Y-128304000D01*
D10*
X99978000Y-82371000D02*
X99904000Y-82332000D01*
D11*
X118469000Y-78233000D02*
X118573000Y-78129000D01*
D12*
X161979000Y-128835000D02*
X162038000Y-129013000D01*
D10*
X140847000Y-115256000D02*
X140918000Y-115365000D01*
D12*
X154959000Y-129427000D02*
X155076000Y-129485000D01*
X161329000Y-129427000D02*
X161268000Y-129368000D01*
D10*
X152287000Y-122530000D02*
X152558000Y-122802000D01*
D12*
X150633000Y-129485000D02*
X150750000Y-129427000D01*
D10*
X164905000Y-113005000D02*
X164250000Y-114169000D01*
D12*
X193011000Y-89129000D02*
X193165000Y-89183000D01*
D10*
X141195000Y-117069000D02*
X141195000Y-117143000D01*
X145518000Y-111639000D02*
X145553000Y-111530000D01*
D11*
X180585000Y-101652000D02*
X181314000Y-101652000D01*
D10*
X143661000Y-117471000D02*
X143625000Y-117651000D01*
D11*
X192861000Y-93770000D02*
X192861000Y-93615000D01*
D14*
X178606000Y-82778000D02*
X172256000Y-82778000D01*
D12*
X155548000Y-129310000D02*
X155609000Y-129190000D01*
X154839000Y-128423000D02*
X154781000Y-128540000D01*
X190595000Y-86805000D02*
X190491000Y-86910000D01*
D11*
X165002000Y-105297000D02*
X165002000Y-105401000D01*
D10*
X140400000Y-111276000D02*
X140438000Y-111311000D01*
X142162000Y-116960000D02*
X142089000Y-116998000D01*
D12*
X190803000Y-87433000D02*
X190961000Y-87382000D01*
D10*
X155167000Y-111276000D02*
X155241000Y-111311000D01*
X166028000Y-118195000D02*
X165954000Y-118266000D01*
X155035000Y-122703000D02*
X155253000Y-122866000D01*
X149615000Y-122162000D02*
X150379000Y-122162000D01*
X141979000Y-114420000D02*
X141979000Y-115185000D01*
X167070000Y-109777000D02*
X166816000Y-109777000D01*
D14*
X131510000Y-125960000D02*
X131510000Y-125960000D01*
D10*
X155713000Y-111748000D02*
X155713000Y-111240000D01*
X141126000Y-122449000D02*
X141235000Y-122414000D01*
D11*
X191212000Y-99749000D02*
X191212000Y-99853000D01*
D10*
X142838000Y-114931000D02*
X143201000Y-114931000D01*
D11*
X104054000Y-128352000D02*
X104159000Y-128402000D01*
D12*
X190438000Y-89810000D02*
X190491000Y-89965000D01*
D11*
X164250000Y-77191000D02*
X164352000Y-77245000D01*
D12*
X124199000Y-128581000D02*
X124258000Y-128759000D01*
X154273000Y-128718000D02*
X154215000Y-128776000D01*
X150928000Y-128540000D02*
X150869000Y-128423000D01*
D14*
X97971000Y-119588000D02*
X97971000Y-124414000D01*
D12*
X145198000Y-128835000D02*
X145609000Y-129485000D01*
D10*
X155093000Y-111276000D02*
X155167000Y-111276000D01*
D11*
X128314000Y-97209000D02*
X128418000Y-97158000D01*
D10*
X147402000Y-121931000D02*
X147296000Y-122005000D01*
X99361000Y-82442000D02*
X99323000Y-82515000D01*
D11*
X176346000Y-128870000D02*
X176813000Y-128870000D01*
D10*
X139963000Y-111311000D02*
X139892000Y-111276000D01*
X151987000Y-123201000D02*
X152558000Y-122983000D01*
D11*
X162160000Y-77245000D02*
X162056000Y-77191000D01*
D12*
X155312000Y-129485000D02*
X155431000Y-129427000D01*
D11*
X85650000Y-133301000D02*
X85495000Y-133352000D01*
D10*
X166257000Y-113150000D02*
X166112000Y-113150000D01*
D12*
X131278000Y-91842000D02*
X131456000Y-91842000D01*
D11*
X166208000Y-105713000D02*
X166054000Y-105713000D01*
X118573000Y-78129000D02*
X118627000Y-78025000D01*
D10*
X96783000Y-84303000D02*
X96783000Y-84049000D01*
X141413000Y-114420000D02*
X141304000Y-114458000D01*
X155579000Y-122757000D02*
X155606000Y-122838000D01*
X137933000Y-111568000D02*
X137898000Y-111675000D01*
D14*
X131358000Y-102063000D02*
G75*
G02*
X125058000Y-102063000I-3150000J0D01*
G01*
X125058000Y-102063000D02*
G75*
G02*
X131358000Y-102063000I3150000J0D01*
G01*
D11*
X160935000Y-77763000D02*
X160466000Y-77763000D01*
D12*
X147217000Y-128245000D02*
X147217000Y-129132000D01*
X124707000Y-128995000D02*
X124824000Y-129173000D01*
D11*
X165896000Y-104623000D02*
X166468000Y-104623000D01*
D10*
X165606000Y-118266000D02*
X165533000Y-118195000D01*
X165170000Y-118812000D02*
X165243000Y-118886000D01*
X160636000Y-123458000D02*
X160526000Y-123493000D01*
X160272000Y-122767000D02*
X160199000Y-122838000D01*
X152205000Y-122475000D02*
X152287000Y-122530000D01*
X165835000Y-116201000D02*
X165761000Y-116274000D01*
D12*
X177059000Y-77133000D02*
X177176000Y-77191000D01*
D10*
X104258000Y-83011000D02*
X104187000Y-83084000D01*
D11*
X103140000Y-128923000D02*
X103193000Y-128974000D01*
D10*
X164966000Y-120735000D02*
X164893000Y-120697000D01*
D11*
X192444000Y-94237000D02*
X192548000Y-94237000D01*
D10*
X140737000Y-117651000D02*
X140808000Y-117796000D01*
D11*
X194502000Y-133088000D02*
X194969000Y-133088000D01*
D10*
X160707000Y-123275000D02*
X160707000Y-123384000D01*
D17*
X132526000Y-76683000D02*
X147766000Y-76683000D01*
D10*
X139747000Y-112134000D02*
X139818000Y-112061000D01*
X107524000Y-82541000D02*
X107524000Y-82795000D01*
D12*
X190750000Y-90227000D02*
X190961000Y-90227000D01*
D11*
X160466000Y-77191000D02*
X160935000Y-77191000D01*
D10*
X139805000Y-119683000D02*
X139734000Y-119757000D01*
D11*
X91240000Y-93402000D02*
X91240000Y-94491000D01*
D12*
X131456000Y-89940000D02*
X131456000Y-88875000D01*
D10*
X142249000Y-112243000D02*
X142287000Y-112134000D01*
D11*
X103193000Y-128453000D02*
X103244000Y-128557000D01*
X194502000Y-133606000D02*
X194969000Y-133606000D01*
D10*
X157986000Y-123384000D02*
X158022000Y-123310000D01*
D11*
X191212000Y-99853000D02*
X191161000Y-99957000D01*
D10*
X164893000Y-120697000D02*
X164748000Y-120697000D01*
D14*
X82303000Y-135425000D02*
X88399000Y-135425000D01*
D10*
X142868000Y-120915000D02*
X142795000Y-120953000D01*
D11*
X161588000Y-78025000D02*
X161642000Y-78129000D01*
D10*
X166440000Y-113333000D02*
X166401000Y-113259000D01*
X147258000Y-122114000D02*
X147258000Y-122188000D01*
D11*
X85650000Y-132884000D02*
X85703000Y-132935000D01*
D10*
X159958000Y-122947000D02*
X159922000Y-123021000D01*
X147329000Y-111675000D02*
X147656000Y-111713000D01*
D11*
X89904000Y-100529000D02*
X89854000Y-100374000D01*
D10*
X137169000Y-111494000D02*
X137207000Y-111385000D01*
D12*
X124080000Y-128464000D02*
X124199000Y-128581000D01*
X193353000Y-87433000D02*
X194085000Y-87433000D01*
D10*
X106760000Y-83966000D02*
X106760000Y-84110000D01*
X140001000Y-111603000D02*
X140036000Y-111459000D01*
X168314000Y-109013000D02*
X168642000Y-109013000D01*
X165314000Y-118921000D02*
X165462000Y-118921000D01*
D12*
X122983000Y-128228000D02*
X122863000Y-128050000D01*
D15*
X175924000Y-108080000D02*
X175820000Y-107979000D01*
D10*
X147801000Y-111240000D02*
X147875000Y-111240000D01*
D12*
X146414000Y-128245000D02*
X146592000Y-128304000D01*
D11*
X165309000Y-103006000D02*
X165467000Y-103006000D01*
X166536000Y-103006000D02*
X166640000Y-103059000D01*
D10*
X165314000Y-120697000D02*
X165314000Y-121461000D01*
X152409000Y-112497000D02*
X153173000Y-112497000D01*
D11*
X161090000Y-77245000D02*
X161141000Y-77296000D01*
D10*
X137824000Y-112061000D02*
X137898000Y-112134000D01*
D11*
X191426000Y-93148000D02*
X191581000Y-93199000D01*
X192132000Y-93770000D02*
X192185000Y-94029000D01*
X164796000Y-105038000D02*
X164898000Y-105091000D01*
D15*
X175248000Y-108756000D02*
X175302000Y-108858000D01*
D12*
X118622000Y-127991000D02*
X118622000Y-129231000D01*
D10*
X166221000Y-115655000D02*
X166330000Y-115545000D01*
D12*
X190491000Y-87275000D02*
X190595000Y-87382000D01*
D10*
X164966000Y-121426000D02*
X165038000Y-121352000D01*
X168642000Y-109376000D02*
X168314000Y-109376000D01*
D11*
X177072000Y-129233000D02*
X177021000Y-129337000D01*
X192861000Y-93615000D02*
X192807000Y-93354000D01*
D12*
X130748000Y-97811000D02*
X131987000Y-97811000D01*
D10*
X154949000Y-112243000D02*
X154987000Y-112134000D01*
D11*
X103244000Y-128557000D02*
X103244000Y-128662000D01*
D10*
X147621000Y-111675000D02*
X147583000Y-111568000D01*
D12*
X193981000Y-86755000D02*
X193877000Y-86910000D01*
D11*
X166120000Y-102592000D02*
X166691000Y-102592000D01*
D10*
X143232000Y-121702000D02*
X143341000Y-121702000D01*
D11*
X117951000Y-77349000D02*
X117898000Y-77453000D01*
D12*
X123727000Y-128406000D02*
X123905000Y-128406000D01*
D11*
X192548000Y-94237000D02*
X192703000Y-94187000D01*
D10*
X99904000Y-82332000D02*
X99795000Y-82297000D01*
X147512000Y-112025000D02*
X147621000Y-111989000D01*
X141979000Y-114420000D02*
X142236000Y-114420000D01*
D11*
X180638000Y-100821000D02*
X180638000Y-100768000D01*
X161850000Y-77191000D02*
X161746000Y-77245000D01*
X117847000Y-77608000D02*
X117847000Y-77867000D01*
D10*
X152881000Y-111240000D02*
X152955000Y-111240000D01*
X158627000Y-123493000D02*
X158700000Y-123458000D01*
D11*
X85754000Y-133039000D02*
X85754000Y-133143000D01*
D10*
X145518000Y-111385000D02*
X145444000Y-111311000D01*
D11*
X161194000Y-77557000D02*
X161141000Y-77661000D01*
D12*
X122569000Y-127991000D02*
X122391000Y-128050000D01*
D10*
X141304000Y-114458000D02*
X141230000Y-114529000D01*
X102226000Y-83468000D02*
X102226000Y-83795000D01*
D12*
X130748000Y-99028000D02*
X131987000Y-99028000D01*
D10*
X165581000Y-113259000D02*
X165617000Y-113333000D01*
X155022000Y-111675000D02*
X154987000Y-111639000D01*
D11*
X176968000Y-128402000D02*
X177021000Y-128453000D01*
D10*
X153173000Y-112243000D02*
X153173000Y-112497000D01*
D12*
X121410000Y-128464000D02*
X121233000Y-128522000D01*
D10*
X107341000Y-84293000D02*
X107415000Y-84255000D01*
X154987000Y-111349000D02*
X155022000Y-111311000D01*
X160636000Y-122767000D02*
X160526000Y-122729000D01*
D11*
X164692000Y-105713000D02*
X164535000Y-105713000D01*
X164352000Y-77245000D02*
X164405000Y-77296000D01*
D10*
X140882000Y-116889000D02*
X140808000Y-116998000D01*
X155416000Y-123592000D02*
X155416000Y-123318000D01*
X99323000Y-82660000D02*
X99361000Y-82734000D01*
D14*
X177738000Y-101575000D02*
X177738000Y-107163000D01*
D12*
X125121000Y-129231000D02*
X125299000Y-129173000D01*
X150986000Y-128718000D02*
X150928000Y-128540000D01*
D10*
X149615000Y-122873000D02*
X150379000Y-122584000D01*
D12*
X124824000Y-128050000D02*
X124707000Y-128228000D01*
X154839000Y-129310000D02*
X154959000Y-129427000D01*
D11*
X177987000Y-129391000D02*
X177832000Y-129441000D01*
D10*
X149869000Y-112497000D02*
X150633000Y-112497000D01*
D12*
X124080000Y-129173000D02*
X123905000Y-129231000D01*
D10*
X139734000Y-120011000D02*
X139805000Y-120084000D01*
X107524000Y-83966000D02*
X107489000Y-83892000D01*
D11*
X120351000Y-77191000D02*
X120351000Y-78284000D01*
D10*
X156656000Y-122729000D02*
X156948000Y-123493000D01*
D11*
X195177000Y-134073000D02*
X195124000Y-134126000D01*
D10*
X101863000Y-83795000D02*
X102627000Y-83795000D01*
D15*
X175248000Y-108185000D02*
X175198000Y-108340000D01*
D14*
X100522000Y-136627000D02*
X100522000Y-130531000D01*
D11*
X165363000Y-103681000D02*
X165205000Y-103681000D01*
D12*
X190961000Y-90227000D02*
X191065000Y-90176000D01*
D10*
X137641000Y-111494000D02*
X137641000Y-111530000D01*
D14*
X197971000Y-119588000D02*
X197971000Y-124414000D01*
D10*
X141235000Y-121906000D02*
X141126000Y-121868000D01*
X145447000Y-121992000D02*
X145373000Y-121921000D01*
X163260000Y-115909000D02*
X163514000Y-116310000D01*
X140146000Y-111713000D02*
X140072000Y-111639000D01*
D12*
X154723000Y-129013000D02*
X154781000Y-129190000D01*
D14*
X172788000Y-101483000D02*
X173687000Y-101483000D01*
D10*
X165957000Y-122657000D02*
X165774000Y-123422000D01*
D12*
X190750000Y-86335000D02*
X190595000Y-86389000D01*
D15*
X175924000Y-108858000D02*
X175975000Y-108756000D01*
D11*
X88444000Y-93869000D02*
X88289000Y-93920000D01*
D12*
X122272000Y-128995000D02*
X122391000Y-129173000D01*
X130984000Y-91784000D02*
X131278000Y-91842000D01*
D10*
X141522000Y-117725000D02*
X141377000Y-117725000D01*
X156097000Y-120575000D02*
X156074000Y-120598000D01*
X140654000Y-123272000D02*
X141418000Y-122980000D01*
X155848000Y-120598000D02*
X155825000Y-120575000D01*
X168822000Y-109231000D02*
X168787000Y-109305000D01*
D11*
X89620000Y-93402000D02*
X88891000Y-94491000D01*
D10*
X140001000Y-111385000D02*
X139963000Y-111311000D01*
D12*
X191012000Y-86389000D02*
X190857000Y-86335000D01*
D10*
X142381000Y-116998000D02*
X142307000Y-116960000D01*
X101863000Y-83046000D02*
X102627000Y-82538000D01*
X107524000Y-84110000D02*
X107524000Y-83966000D01*
X163442000Y-115873000D02*
X163333000Y-115909000D01*
D12*
X132526000Y-104878000D02*
X132526000Y-64238000D01*
D10*
X96783000Y-84303000D02*
X97547000Y-84303000D01*
X145553000Y-111530000D02*
X145553000Y-111494000D01*
D11*
X136783000Y-97600000D02*
X136783000Y-97738000D01*
D10*
X139747000Y-111311000D02*
X139709000Y-111421000D01*
X139892000Y-112025000D02*
X140001000Y-111989000D01*
X163442000Y-115584000D02*
X163478000Y-115619000D01*
X160234000Y-122983000D02*
X160272000Y-123021000D01*
X142686000Y-122691000D02*
X143450000Y-122691000D01*
D11*
X164951000Y-105558000D02*
X164847000Y-105662000D01*
D10*
X155035000Y-123455000D02*
X155606000Y-123237000D01*
D11*
X166521000Y-105401000D02*
X166468000Y-105558000D01*
D10*
X102226000Y-83541000D02*
X102627000Y-83287000D01*
D11*
X164405000Y-77608000D02*
X164301000Y-77763000D01*
D10*
X142416000Y-115076000D02*
X142345000Y-115149000D01*
D12*
X150102000Y-129190000D02*
X150161000Y-129310000D01*
X192642000Y-89129000D02*
X193011000Y-89129000D01*
D15*
X176577000Y-107925000D02*
X176782000Y-107925000D01*
D14*
X85525000Y-124414000D02*
X82731000Y-124414000D01*
D15*
X176887000Y-107979000D02*
X176937000Y-108030000D01*
D11*
X190196000Y-99543000D02*
X190196000Y-100374000D01*
X100836000Y-100560000D02*
X100836000Y-101652000D01*
X118365000Y-78284000D02*
X118469000Y-78233000D01*
X177781000Y-128766000D02*
X177936000Y-128766000D01*
D14*
X82731000Y-110698000D02*
X79175000Y-110698000D01*
D10*
X164494000Y-122731000D02*
X164530000Y-122802000D01*
X141418000Y-121446000D02*
X141383000Y-121555000D01*
D14*
X174690000Y-101575000D02*
X177738000Y-101575000D01*
D10*
X100087000Y-82515000D02*
X100052000Y-82442000D01*
D14*
X82731000Y-120350000D02*
X79175000Y-120350000D01*
D10*
X165617000Y-113732000D02*
X165581000Y-113806000D01*
X147984000Y-111276000D02*
X148058000Y-111349000D01*
D12*
X131751000Y-91075000D02*
X131456000Y-91014000D01*
D10*
X139168000Y-119355000D02*
X138876000Y-120120000D01*
D12*
X158693000Y-128245000D02*
X159521000Y-129485000D01*
D10*
X165462000Y-118157000D02*
X165314000Y-118157000D01*
D14*
X135066000Y-98528000D02*
X135066000Y-103608000D01*
D11*
X167191000Y-103630000D02*
X167138000Y-103577000D01*
D10*
X147438000Y-112061000D02*
X147512000Y-112025000D01*
X160636000Y-123165000D02*
X160671000Y-123201000D01*
X145190000Y-122706000D02*
X145264000Y-122670000D01*
D12*
X117286000Y-127991000D02*
X117286000Y-129231000D01*
D11*
X190798000Y-99543000D02*
X191006000Y-99543000D01*
D12*
X146709000Y-129310000D02*
X146592000Y-129427000D01*
D11*
X167191000Y-102592000D02*
X167763000Y-102592000D01*
X102985000Y-128870000D02*
X103140000Y-128923000D01*
D10*
X152012000Y-122721000D02*
X151987000Y-122668000D01*
D12*
X147867000Y-129427000D02*
X147986000Y-129310000D01*
D10*
X163514000Y-115690000D02*
X163514000Y-115764000D01*
D12*
X122391000Y-128050000D02*
X122272000Y-128228000D01*
X130748000Y-93628000D02*
X131987000Y-93628000D01*
D10*
X137207000Y-111639000D02*
X137169000Y-111530000D01*
X100052000Y-82442000D02*
X99978000Y-82371000D01*
X101936000Y-83323000D02*
X102007000Y-83287000D01*
X140473000Y-112243000D02*
X140473000Y-112497000D01*
X142904000Y-112061000D02*
X142978000Y-112134000D01*
X152368000Y-123338000D02*
X152368000Y-123064000D01*
X159886000Y-123056000D02*
X159777000Y-123092000D01*
X149724000Y-122271000D02*
X149615000Y-122162000D01*
D11*
X166691000Y-103110000D02*
X166744000Y-103265000D01*
X161537000Y-77608000D02*
X161537000Y-77867000D01*
X190719000Y-92939000D02*
X189785000Y-94601000D01*
D10*
X147692000Y-111276000D02*
X147801000Y-111240000D01*
X148058000Y-111349000D02*
X148093000Y-111459000D01*
D14*
X82303000Y-141521000D02*
X82303000Y-135425000D01*
D10*
X104878000Y-83084000D02*
X104804000Y-83011000D01*
D11*
X164639000Y-105038000D02*
X164796000Y-105038000D01*
D10*
X99795000Y-82879000D02*
X99904000Y-82843000D01*
D12*
X130748000Y-94903000D02*
X130806000Y-94786000D01*
D10*
X96966000Y-83831000D02*
X97075000Y-83795000D01*
X106943000Y-84293000D02*
X107052000Y-84329000D01*
D12*
X143145000Y-71238000D02*
X143145000Y-65238000D01*
D10*
X145119000Y-122815000D02*
X145154000Y-122741000D01*
X144718000Y-122995000D02*
X144756000Y-123105000D01*
D16*
X126813000Y-100877000D02*
X125667000Y-100877000D01*
D14*
X82731000Y-110698000D02*
X82731000Y-108539000D01*
D10*
X142795000Y-121702000D02*
X142724000Y-121774000D01*
X152701000Y-111494000D02*
X152701000Y-111385000D01*
D11*
X167451000Y-103006000D02*
X167605000Y-103006000D01*
D12*
X161507000Y-129485000D02*
X161329000Y-129427000D01*
D11*
X166691000Y-102592000D02*
X166381000Y-103006000D01*
D12*
X190491000Y-86910000D02*
X190438000Y-87067000D01*
D14*
X177738000Y-107163000D02*
X174690000Y-107163000D01*
D11*
X191161000Y-99957000D02*
X191057000Y-100115000D01*
D10*
X164748000Y-121461000D02*
X164893000Y-121461000D01*
D12*
X131751000Y-91784000D02*
X131929000Y-91664000D01*
D11*
X90897000Y-93193000D02*
X89963000Y-94855000D01*
D10*
X140981000Y-121484000D02*
X141055000Y-121266000D01*
X140763000Y-121118000D02*
X140692000Y-121192000D01*
D12*
X177235000Y-77250000D02*
X177296000Y-77369000D01*
D11*
X160935000Y-77191000D02*
X161090000Y-77245000D01*
D12*
X177296000Y-77369000D02*
X177296000Y-77547000D01*
D10*
X166102000Y-118921000D02*
X166247000Y-118921000D01*
X144718000Y-122066000D02*
X144718000Y-122210000D01*
D11*
X162368000Y-77608000D02*
X162317000Y-77453000D01*
X195124000Y-133138000D02*
X195177000Y-133189000D01*
D10*
X143450000Y-121098000D02*
X143415000Y-121024000D01*
X141667000Y-117433000D02*
X141705000Y-117506000D01*
X141741000Y-115076000D02*
X141667000Y-115149000D01*
D11*
X136691000Y-96592000D02*
X136600000Y-96635000D01*
D10*
X166429000Y-118339000D02*
X166391000Y-118266000D01*
X137207000Y-112134000D02*
X137278000Y-112061000D01*
D11*
X164405000Y-77296000D02*
X164456000Y-77400000D01*
D10*
X155606000Y-122922000D02*
X155579000Y-123003000D01*
D12*
X124707000Y-128228000D02*
X124649000Y-128522000D01*
D11*
X90374000Y-100374000D02*
X90321000Y-100529000D01*
D14*
X192303000Y-141521000D02*
X192303000Y-135425000D01*
D10*
X155350000Y-111385000D02*
X155713000Y-111748000D01*
D12*
X190542000Y-89287000D02*
X190491000Y-89391000D01*
D14*
X82731000Y-120350000D02*
X82731000Y-124414000D01*
D12*
X191065000Y-87275000D02*
X191118000Y-87120000D01*
D10*
X139734000Y-119757000D02*
X139698000Y-119866000D01*
X157623000Y-123458000D02*
X157694000Y-123493000D01*
X155579000Y-123003000D02*
X155553000Y-123031000D01*
D12*
X162038000Y-129013000D02*
X162038000Y-129132000D01*
D10*
X155132000Y-112025000D02*
X155241000Y-111989000D01*
X102190000Y-83359000D02*
X102226000Y-83468000D01*
X157986000Y-122838000D02*
X157913000Y-122767000D01*
X142249000Y-111240000D02*
X143013000Y-111603000D01*
D12*
X161860000Y-128718000D02*
X161979000Y-128835000D01*
X152995000Y-128835000D02*
X152820000Y-128896000D01*
D10*
X158482000Y-123493000D02*
X158627000Y-123493000D01*
D11*
X136645000Y-96046000D02*
X136737000Y-96137000D01*
D12*
X130748000Y-97811000D02*
X130748000Y-97278000D01*
D10*
X144756000Y-121992000D02*
X144718000Y-122066000D01*
X144827000Y-122355000D02*
X144900000Y-122393000D01*
X166401000Y-113259000D02*
X166330000Y-113188000D01*
D12*
X131220000Y-94725000D02*
X131398000Y-94844000D01*
D10*
X106798000Y-83892000D02*
X106760000Y-83966000D01*
X106760000Y-82795000D02*
X106760000Y-82541000D01*
X164276000Y-118157000D02*
X164568000Y-118921000D01*
X168787000Y-109305000D02*
X168751000Y-109340000D01*
D11*
X192703000Y-94187000D02*
X192807000Y-94029000D01*
X162264000Y-78129000D02*
X162317000Y-78025000D01*
X91967000Y-94075000D02*
X91916000Y-94232000D01*
D12*
X150750000Y-128304000D02*
X150633000Y-128245000D01*
D11*
X104159000Y-128402000D02*
X104212000Y-128453000D01*
X117504000Y-77557000D02*
X117451000Y-77661000D01*
D13*
G36*
X136082000Y-126473000D02*
G01*
X135828000Y-126473000D01*
X135828000Y-108439000D01*
X136082000Y-108439000D01*
X136082000Y-126473000D01*
G37*
D12*
X190542000Y-90069000D02*
X190646000Y-90176000D01*
X190750000Y-89129000D02*
X190646000Y-89183000D01*
X131987000Y-91370000D02*
X131929000Y-91192000D01*
D10*
X141705000Y-117506000D02*
X141705000Y-117616000D01*
X145190000Y-111311000D02*
X145116000Y-111385000D01*
D14*
X104415000Y-99157000D02*
X104415000Y-85187000D01*
D12*
X154331000Y-128482000D02*
X154331000Y-128599000D01*
D11*
X103140000Y-129391000D02*
X102985000Y-129441000D01*
D10*
X141705000Y-114893000D02*
X141741000Y-114966000D01*
X158334000Y-122838000D02*
X158299000Y-122911000D01*
D11*
X118365000Y-77191000D02*
X118159000Y-77191000D01*
D12*
X121469000Y-129231000D02*
X121647000Y-129173000D01*
D11*
X102985000Y-128352000D02*
X103140000Y-128402000D01*
D12*
X157913000Y-128245000D02*
X157913000Y-129485000D01*
X163374000Y-128245000D02*
X162901000Y-129485000D01*
D10*
X155035000Y-123455000D02*
X155606000Y-123673000D01*
D14*
X97971000Y-111460000D02*
X97971000Y-108539000D01*
D12*
X193270000Y-89287000D02*
X193323000Y-89391000D01*
X149653000Y-128245000D02*
X149653000Y-129485000D01*
X130748000Y-92942000D02*
X131987000Y-92942000D01*
D11*
X163834000Y-77400000D02*
X163884000Y-77296000D01*
D10*
X140242000Y-117214000D02*
X140351000Y-117252000D01*
D12*
X137146000Y-65238000D02*
X137146000Y-71238000D01*
D10*
X96821000Y-83940000D02*
X96892000Y-83867000D01*
D11*
X191062000Y-93148000D02*
X191426000Y-93148000D01*
D12*
X130925000Y-90506000D02*
X130748000Y-90328000D01*
D10*
X145116000Y-111639000D02*
X145190000Y-111713000D01*
D11*
X136691000Y-97918000D02*
X136600000Y-97964000D01*
D10*
X137423000Y-111276000D02*
X137532000Y-111311000D01*
X147877000Y-121931000D02*
X147694000Y-121895000D01*
X97075000Y-83795000D02*
X97255000Y-83795000D01*
X141558000Y-117362000D02*
X141631000Y-117397000D01*
D12*
X131337000Y-96592000D02*
X131337000Y-96120000D01*
D11*
X167763000Y-102592000D02*
X167451000Y-103006000D01*
D10*
X147987000Y-122297000D02*
X148022000Y-122188000D01*
D11*
X190590000Y-99749000D02*
X190641000Y-99645000D01*
X196092000Y-133088000D02*
X195571000Y-133814000D01*
D12*
X192642000Y-89129000D02*
X192642000Y-90227000D01*
X193511000Y-86389000D02*
X193615000Y-86335000D01*
D14*
X184415000Y-99157000D02*
X184415000Y-85187000D01*
D10*
X166102000Y-118157000D02*
X166028000Y-118195000D01*
X144827000Y-123178000D02*
X144900000Y-123178000D01*
D11*
X104263000Y-128557000D02*
X104263000Y-128662000D01*
D10*
X164349000Y-122657000D02*
X164458000Y-122696000D01*
D11*
X191789000Y-93562000D02*
X191789000Y-93821000D01*
D10*
X148022000Y-122188000D02*
X148022000Y-122114000D01*
D12*
X124824000Y-129173000D02*
X125002000Y-129231000D01*
D11*
X189988000Y-100633000D02*
X189884000Y-100633000D01*
D10*
X159922000Y-122802000D02*
X159958000Y-122873000D01*
D12*
X150750000Y-129427000D02*
X150869000Y-129310000D01*
D11*
X167605000Y-103006000D02*
X167710000Y-103059000D01*
D10*
X141383000Y-121192000D02*
X141418000Y-121301000D01*
X145370000Y-112025000D02*
X145444000Y-112061000D01*
X167252000Y-109668000D02*
X167179000Y-109742000D01*
X147402000Y-122368000D02*
X147585000Y-122403000D01*
X96783000Y-82805000D02*
X97547000Y-82805000D01*
D14*
X195177000Y-126954000D02*
X185525000Y-126954000D01*
D11*
X177072000Y-128662000D02*
X177021000Y-128766000D01*
D10*
X140133000Y-117725000D02*
X140024000Y-117689000D01*
D11*
X190590000Y-99803000D02*
X190590000Y-99749000D01*
D10*
X96783000Y-83554000D02*
X96783000Y-83046000D01*
D11*
X176968000Y-128819000D02*
X176813000Y-128870000D01*
D10*
X153138000Y-112134000D02*
X153173000Y-112243000D01*
D12*
X152287000Y-128245000D02*
X152287000Y-129485000D01*
D11*
X191057000Y-100115000D02*
X190539000Y-100633000D01*
D10*
X155985000Y-120303000D02*
X156051000Y-120323000D01*
X157694000Y-123493000D02*
X157842000Y-123493000D01*
D11*
X163877000Y-102592000D02*
X164603000Y-102592000D01*
D10*
X152736000Y-111311000D02*
X152772000Y-111276000D01*
X165060000Y-122657000D02*
X164771000Y-123422000D01*
D12*
X154215000Y-128776000D02*
X154037000Y-128835000D01*
D11*
X191111000Y-99594000D02*
X191161000Y-99645000D01*
X192807000Y-94029000D02*
X192861000Y-93770000D01*
D12*
X193615000Y-86335000D02*
X193826000Y-86335000D01*
D14*
X173687000Y-101483000D02*
X173687000Y-104083000D01*
D10*
X168822000Y-109157000D02*
X168822000Y-109231000D01*
X157478000Y-123021000D02*
X157478000Y-123201000D01*
X148020000Y-111713000D02*
X147948000Y-111748000D01*
X165134000Y-118339000D02*
X165098000Y-118449000D01*
X147585000Y-121895000D02*
X147402000Y-121931000D01*
D12*
X193270000Y-90069000D02*
X193165000Y-90176000D01*
D11*
X166277000Y-103681000D02*
X166120000Y-103630000D01*
X167694000Y-104623000D02*
X167278000Y-105713000D01*
D10*
X141055000Y-121266000D02*
X141090000Y-121192000D01*
X143806000Y-114931000D02*
X143770000Y-115111000D01*
D15*
X176419000Y-108030000D02*
X176473000Y-107979000D01*
D10*
X142017000Y-117616000D02*
X142089000Y-117689000D01*
D12*
X123727000Y-129231000D02*
X123549000Y-129173000D01*
D10*
X158700000Y-123458000D02*
X158771000Y-123384000D01*
D12*
X123041000Y-128522000D02*
X122983000Y-128228000D01*
D10*
X145010000Y-123105000D02*
X145045000Y-123033000D01*
D15*
X176937000Y-108340000D02*
X176836000Y-108497000D01*
D10*
X165076000Y-121278000D02*
X165076000Y-121169000D01*
D11*
X91863000Y-93557000D02*
X91916000Y-93661000D01*
X166120000Y-103630000D02*
X166069000Y-103577000D01*
D10*
X155279000Y-122729000D02*
X155307000Y-122703000D01*
X155241000Y-111311000D02*
X155350000Y-111385000D01*
X97146000Y-82477000D02*
X97146000Y-82805000D01*
D12*
X146828000Y-129013000D02*
X146767000Y-129190000D01*
D10*
X145518000Y-112134000D02*
X145553000Y-112243000D01*
X165967000Y-113259000D02*
X165929000Y-113333000D01*
D12*
X145314000Y-128835000D02*
X144784000Y-128835000D01*
X147395000Y-129427000D02*
X147572000Y-129485000D01*
D11*
X177072000Y-128557000D02*
X177072000Y-128662000D01*
X191685000Y-94082000D02*
X191581000Y-94187000D01*
D10*
X141944000Y-117433000D02*
X141979000Y-117542000D01*
D12*
X124258000Y-128878000D02*
X124199000Y-129056000D01*
D10*
X147583000Y-111568000D02*
X147583000Y-111459000D01*
X104187000Y-83084000D02*
X104149000Y-83155000D01*
X166320000Y-118886000D02*
X166391000Y-118812000D01*
X140946000Y-121868000D02*
X140836000Y-121906000D01*
X142795000Y-121388000D02*
X142868000Y-121426000D01*
X106869000Y-83821000D02*
X106798000Y-83892000D01*
X145447000Y-122284000D02*
X145482000Y-122210000D01*
D12*
X119389000Y-128108000D02*
X119447000Y-128228000D01*
D10*
X147801000Y-111989000D02*
X147910000Y-112025000D01*
X155642000Y-120951000D02*
X156120000Y-120770000D01*
D11*
X127192000Y-97677000D02*
X127242000Y-97834000D01*
D12*
X146414000Y-129485000D02*
X146000000Y-129485000D01*
D11*
X85650000Y-133405000D02*
X85703000Y-133456000D01*
X103140000Y-128819000D02*
X102985000Y-128870000D01*
X191738000Y-93978000D02*
X191685000Y-94082000D01*
X192548000Y-93148000D02*
X192444000Y-93148000D01*
D14*
X176287000Y-85187000D02*
X184415000Y-85187000D01*
D10*
X140364000Y-112061000D02*
X140438000Y-112134000D01*
D11*
X181260000Y-100768000D02*
X181260000Y-100872000D01*
D10*
X165906000Y-116018000D02*
X165871000Y-116127000D01*
D14*
X88399000Y-141521000D02*
X82303000Y-141521000D01*
D11*
X166640000Y-103059000D02*
X166691000Y-103110000D01*
D10*
X158771000Y-123384000D02*
X158809000Y-123310000D01*
D13*
G36*
X169610000Y-126473000D02*
G01*
X169356000Y-126473000D01*
X169356000Y-108439000D01*
X169610000Y-108439000D01*
X169610000Y-126473000D01*
G37*
D11*
X118055000Y-77245000D02*
X117951000Y-77349000D01*
D10*
X137278000Y-111713000D02*
X137207000Y-111639000D01*
D11*
X178040000Y-128819000D02*
X178091000Y-128870000D01*
D10*
X142490000Y-114893000D02*
X142454000Y-115002000D01*
D12*
X121824000Y-128820000D02*
X121764000Y-128642000D01*
D10*
X164022000Y-122657000D02*
X164022000Y-123422000D01*
X164748000Y-120697000D02*
X164674000Y-120735000D01*
D11*
X163938000Y-77245000D02*
X164042000Y-77191000D01*
D10*
X142978000Y-122137000D02*
X143013000Y-122066000D01*
D12*
X161268000Y-129368000D02*
X161210000Y-129249000D01*
X161329000Y-128718000D02*
X161507000Y-128660000D01*
D10*
X155825000Y-120575000D02*
X155802000Y-120506000D01*
X142978000Y-112134000D02*
X143013000Y-112243000D01*
D12*
X137646000Y-61738000D02*
X137146000Y-61738000D01*
X192299000Y-89129000D02*
X192299000Y-90227000D01*
X131929000Y-91664000D02*
X131987000Y-91487000D01*
D11*
X180846000Y-100560000D02*
X181052000Y-100560000D01*
D15*
X176991000Y-108238000D02*
X176937000Y-108340000D01*
D11*
X177072000Y-129078000D02*
X177072000Y-129233000D01*
D10*
X164603000Y-121352000D02*
X164674000Y-121426000D01*
D12*
X190595000Y-86389000D02*
X190491000Y-86544000D01*
D11*
X167346000Y-103681000D02*
X167191000Y-103630000D01*
D10*
X104258000Y-83448000D02*
X104332000Y-83483000D01*
X166816000Y-109013000D02*
X167070000Y-109013000D01*
D11*
X167138000Y-103577000D02*
X167087000Y-103473000D01*
D12*
X122569000Y-129231000D02*
X122686000Y-129231000D01*
X161329000Y-128245000D02*
X161268000Y-128776000D01*
D10*
X139422000Y-116960000D02*
X139711000Y-117725000D01*
X139914000Y-119648000D02*
X139805000Y-119683000D01*
D12*
X190646000Y-89183000D02*
X190542000Y-89287000D01*
D11*
X164301000Y-77763000D02*
X163780000Y-78284000D01*
D10*
X155132000Y-111713000D02*
X155093000Y-111713000D01*
X107489000Y-84184000D02*
X107524000Y-84110000D01*
D11*
X190196000Y-100374000D02*
X190143000Y-100529000D01*
D10*
X141558000Y-115185000D02*
X141413000Y-115185000D01*
X142721000Y-111989000D02*
X142830000Y-112025000D01*
X140699000Y-117471000D02*
X140737000Y-117651000D01*
X142345000Y-115149000D02*
X142236000Y-115185000D01*
D14*
X189930000Y-90923000D02*
X186882000Y-90923000D01*
D12*
X190857000Y-86335000D02*
X190750000Y-86335000D01*
D10*
X165883000Y-118629000D02*
X165919000Y-118738000D01*
X167288000Y-109594000D02*
X167252000Y-109668000D01*
X165144000Y-113150000D02*
X165144000Y-113915000D01*
X143450000Y-121883000D02*
X143450000Y-122028000D01*
X165652000Y-115545000D02*
X165761000Y-115584000D01*
X142940000Y-122175000D02*
X142978000Y-122137000D01*
X140062000Y-119683000D02*
X139952000Y-119648000D01*
D12*
X176526000Y-76897000D02*
X176587000Y-76955000D01*
D10*
X167565000Y-109013000D02*
X168073000Y-109013000D01*
D14*
X145226000Y-103608000D02*
X145226000Y-98528000D01*
D12*
X120666000Y-128878000D02*
X120666000Y-127991000D01*
D11*
X177021000Y-128453000D02*
X177072000Y-128557000D01*
D12*
X190750000Y-87433000D02*
X190803000Y-87433000D01*
D10*
X160199000Y-122911000D02*
X160234000Y-122983000D01*
D11*
X128418000Y-97158000D02*
X128573000Y-97003000D01*
X166313000Y-105038000D02*
X166417000Y-105091000D01*
D10*
X142307000Y-117725000D02*
X142381000Y-117689000D01*
D12*
X150986000Y-129013000D02*
X150986000Y-128718000D01*
D10*
X149869000Y-111385000D02*
X150633000Y-111385000D01*
D12*
X145492000Y-128776000D02*
X145314000Y-128835000D01*
D10*
X167324000Y-109485000D02*
X167288000Y-109594000D01*
D11*
X136556000Y-96981000D02*
X136600000Y-97026000D01*
X103691000Y-128453000D02*
X103745000Y-128402000D01*
D14*
X106618000Y-136627000D02*
X100522000Y-136627000D01*
D10*
X152096000Y-122449000D02*
X152150000Y-122449000D01*
D14*
X176287000Y-99157000D02*
X176287000Y-85187000D01*
D10*
X142686000Y-121243000D02*
X142724000Y-121316000D01*
X165652000Y-113442000D02*
X165652000Y-113623000D01*
X142432000Y-112025000D02*
X142541000Y-111989000D01*
D12*
X193407000Y-86597000D02*
X193407000Y-86544000D01*
D11*
X161090000Y-77712000D02*
X160935000Y-77763000D01*
D12*
X125002000Y-127991000D02*
X124824000Y-128050000D01*
D10*
X143415000Y-122137000D02*
X143341000Y-122210000D01*
X140351000Y-117252000D02*
X140425000Y-117323000D01*
D12*
X191222000Y-89391000D02*
X191169000Y-89287000D01*
D11*
X161746000Y-78233000D02*
X161850000Y-78284000D01*
D10*
X144789000Y-112497000D02*
X145553000Y-112497000D01*
D11*
X177677000Y-129441000D02*
X177519000Y-129391000D01*
D10*
X164674000Y-121426000D02*
X164748000Y-121461000D01*
X165893000Y-113623000D02*
X165929000Y-113732000D01*
X140737000Y-114783000D02*
X140737000Y-114931000D01*
D12*
X155076000Y-128245000D02*
X154959000Y-128304000D01*
D11*
X190092000Y-100582000D02*
X189988000Y-100633000D01*
D10*
X140290000Y-112025000D02*
X140364000Y-112061000D01*
D11*
X161746000Y-77245000D02*
X161642000Y-77349000D01*
D10*
X142686000Y-121883000D02*
X142686000Y-122028000D01*
X152447000Y-112134000D02*
X152518000Y-112061000D01*
X100087000Y-82660000D02*
X100087000Y-82515000D01*
D11*
X161194000Y-77400000D02*
X161194000Y-77557000D01*
D10*
X167288000Y-109195000D02*
X167324000Y-109305000D01*
D11*
X194969000Y-133606000D02*
X195124000Y-133659000D01*
X127918000Y-97938000D02*
X127971000Y-97834000D01*
D12*
X144784000Y-128245000D02*
X145314000Y-128245000D01*
D14*
X182731000Y-110698000D02*
X182731000Y-108539000D01*
D12*
X153056000Y-128362000D02*
X153115000Y-128482000D01*
D15*
X175198000Y-108599000D02*
X175248000Y-108756000D01*
D12*
X130806000Y-97103000D02*
X130864000Y-97042000D01*
D10*
X159777000Y-123092000D02*
X159450000Y-123092000D01*
X158334000Y-123384000D02*
X158408000Y-123458000D01*
D12*
X125416000Y-128228000D02*
X125299000Y-128050000D01*
D10*
X145444000Y-112061000D02*
X145518000Y-112134000D01*
D11*
X190641000Y-99645000D02*
X190694000Y-99594000D01*
D12*
X190491000Y-86544000D02*
X190438000Y-86805000D01*
D10*
X164494000Y-122950000D02*
X164458000Y-122985000D01*
X104804000Y-83011000D02*
X104730000Y-82975000D01*
D12*
X150397000Y-128245000D02*
X150278000Y-128304000D01*
D10*
X158809000Y-122911000D02*
X158771000Y-122838000D01*
D11*
X160466000Y-77191000D02*
X160466000Y-78284000D01*
D10*
X148093000Y-111459000D02*
X148093000Y-111568000D01*
D12*
X131337000Y-97397000D02*
X131987000Y-96983000D01*
D11*
X136645000Y-97372000D02*
X136737000Y-97463000D01*
X88444000Y-93453000D02*
X88497000Y-93503000D01*
X165398000Y-105454000D02*
X165345000Y-105505000D01*
D10*
X157550000Y-122838000D02*
X157514000Y-122911000D01*
D11*
X164326000Y-105609000D02*
X164276000Y-105505000D01*
D10*
X96821000Y-82368000D02*
X96856000Y-82332000D01*
D11*
X166744000Y-103369000D02*
X166691000Y-103526000D01*
D10*
X150161000Y-111989000D02*
X150341000Y-111989000D01*
X99432000Y-82371000D02*
X99361000Y-82442000D01*
D12*
X121764000Y-129056000D02*
X121824000Y-128878000D01*
D10*
X140438000Y-111675000D02*
X140400000Y-111713000D01*
X167819000Y-109013000D02*
X167819000Y-109777000D01*
X164276000Y-123021000D02*
X164530000Y-123422000D01*
D11*
X127242000Y-97263000D02*
X127192000Y-97418000D01*
X166432000Y-103681000D02*
X166277000Y-103681000D01*
D10*
X143341000Y-121702000D02*
X143415000Y-121774000D01*
D11*
X135827000Y-95700000D02*
X136783000Y-95337000D01*
X195228000Y-133814000D02*
X195228000Y-133969000D01*
D14*
X182731000Y-120350000D02*
X179175000Y-120350000D01*
D11*
X180689000Y-100664000D02*
X180742000Y-100613000D01*
D10*
X144789000Y-111530000D02*
X144827000Y-111639000D01*
X147910000Y-112025000D02*
X147984000Y-112061000D01*
X142868000Y-121426000D02*
X142978000Y-121461000D01*
D12*
X130748000Y-98200000D02*
X131987000Y-98200000D01*
X137146000Y-61738000D02*
X137146000Y-56737000D01*
D10*
X139239000Y-117471000D02*
X139602000Y-117471000D01*
D15*
X175507000Y-107925000D02*
X175406000Y-107979000D01*
D10*
X139422000Y-116960000D02*
X139130000Y-117725000D01*
D11*
X85703000Y-133248000D02*
X85650000Y-133301000D01*
D12*
X158693000Y-128245000D02*
X158693000Y-129485000D01*
D10*
X139818000Y-111713000D02*
X139892000Y-111713000D01*
D11*
X179516000Y-100560000D02*
X180242000Y-100560000D01*
D10*
X107052000Y-84329000D02*
X107232000Y-84329000D01*
X104187000Y-83374000D02*
X104258000Y-83448000D01*
D11*
X162805000Y-102592000D02*
X163534000Y-102592000D01*
D10*
X165893000Y-113442000D02*
X165893000Y-113623000D01*
X168314000Y-109013000D02*
X168314000Y-109777000D01*
D12*
X125299000Y-128050000D02*
X125121000Y-127991000D01*
D10*
X156120000Y-120506000D02*
X156097000Y-120575000D01*
D14*
X84763000Y-101554000D02*
X84763000Y-108539000D01*
D12*
X147986000Y-129310000D02*
X148045000Y-129132000D01*
D10*
X152122000Y-122777000D02*
X152096000Y-122777000D01*
X166536000Y-120879000D02*
X166574000Y-120989000D01*
D11*
X136282000Y-97372000D02*
X136419000Y-97326000D01*
X190539000Y-100633000D02*
X191265000Y-100633000D01*
D12*
X131456000Y-91014000D02*
X131278000Y-91014000D01*
D10*
X104149000Y-82371000D02*
X104149000Y-82515000D01*
X164530000Y-122802000D02*
X164530000Y-122876000D01*
D12*
X150869000Y-128423000D02*
X150750000Y-128304000D01*
D11*
X191426000Y-94237000D02*
X191062000Y-94237000D01*
D12*
X130925000Y-89409000D02*
X131987000Y-89409000D01*
D11*
X162462000Y-102592000D02*
X162462000Y-103681000D01*
D10*
X142978000Y-121461000D02*
X143158000Y-121461000D01*
X157694000Y-122729000D02*
X157623000Y-122767000D01*
D11*
X164951000Y-104623000D02*
X164639000Y-105038000D01*
D10*
X142162000Y-117725000D02*
X142307000Y-117725000D01*
D14*
X169088000Y-104083000D02*
X169088000Y-101483000D01*
D10*
X165883000Y-118449000D02*
X165883000Y-118629000D01*
X144827000Y-121921000D02*
X144756000Y-121992000D01*
D11*
X136419000Y-97326000D02*
X136511000Y-97326000D01*
X85754000Y-133715000D02*
X85703000Y-133819000D01*
D12*
X176704000Y-77014000D02*
X177059000Y-77133000D01*
D11*
X161642000Y-77349000D02*
X161588000Y-77453000D01*
D10*
X104621000Y-83519000D02*
X104730000Y-83483000D01*
X142686000Y-122028000D02*
X142724000Y-122137000D01*
D11*
X117951000Y-78129000D02*
X118055000Y-78233000D01*
D10*
X143770000Y-114603000D02*
X143806000Y-114783000D01*
X165038000Y-121352000D02*
X165076000Y-121278000D01*
D11*
X85754000Y-133143000D02*
X85703000Y-133248000D01*
D12*
X191568000Y-89129000D02*
X191568000Y-90227000D01*
D10*
X151987000Y-122558000D02*
X152012000Y-122503000D01*
X150633000Y-112243000D02*
X150633000Y-112497000D01*
X155642000Y-120951000D02*
X156120000Y-121133000D01*
D12*
X155667000Y-128718000D02*
X155609000Y-128540000D01*
D14*
X126853000Y-93473000D02*
G75*
G02*
X109851000Y-93473000I-8501000J0D01*
G01*
X109851000Y-93473000D02*
G75*
G02*
X126853000Y-93473000I8501000J0D01*
G01*
X79175000Y-110698000D02*
X79175000Y-120350000D01*
D10*
X137278000Y-111311000D02*
X137423000Y-111276000D01*
X163333000Y-115909000D02*
X163006000Y-115909000D01*
X152150000Y-122449000D02*
X152205000Y-122475000D01*
X142454000Y-117616000D02*
X142490000Y-117542000D01*
X137898000Y-112134000D02*
X137933000Y-112243000D01*
X141090000Y-121192000D02*
X141126000Y-121156000D01*
D11*
X103193000Y-128974000D02*
X103244000Y-129078000D01*
X118677000Y-77608000D02*
X118627000Y-77453000D01*
X176813000Y-128870000D02*
X176968000Y-128923000D01*
D10*
X143158000Y-120880000D02*
X142978000Y-120880000D01*
D11*
X164603000Y-102592000D02*
X164085000Y-103681000D01*
D10*
X99615000Y-82879000D02*
X99795000Y-82879000D01*
X147877000Y-122368000D02*
X147987000Y-122297000D01*
X165098000Y-118629000D02*
X165134000Y-118738000D01*
D12*
X122272000Y-128228000D02*
X122213000Y-128522000D01*
D10*
X143122000Y-121774000D02*
X143158000Y-121738000D01*
D11*
X165002000Y-105401000D02*
X164951000Y-105558000D01*
X166587000Y-103630000D02*
X166432000Y-103681000D01*
X196092000Y-133088000D02*
X196092000Y-134177000D01*
D10*
X140171000Y-119902000D02*
X140171000Y-119866000D01*
D12*
X130806000Y-91664000D02*
X130984000Y-91784000D01*
X162426000Y-128245000D02*
X162901000Y-129485000D01*
D10*
X139698000Y-119683000D02*
X139698000Y-119866000D01*
D12*
X193165000Y-90176000D02*
X193011000Y-90227000D01*
D10*
X142454000Y-114603000D02*
X142490000Y-114712000D01*
X137207000Y-111385000D02*
X137278000Y-111311000D01*
X140763000Y-121941000D02*
X140692000Y-122015000D01*
D12*
X155548000Y-128423000D02*
X155431000Y-128304000D01*
D10*
X97146000Y-82551000D02*
X97547000Y-82297000D01*
D12*
X155609000Y-128540000D02*
X155548000Y-128423000D01*
D11*
X164042000Y-77191000D02*
X164250000Y-77191000D01*
D12*
X130984000Y-91075000D02*
X130806000Y-91192000D01*
D14*
X178606000Y-82778000D02*
X178606000Y-82778000D01*
X137606000Y-101068000D02*
X135066000Y-101068000D01*
D15*
X176368000Y-108185000D02*
X176368000Y-108134000D01*
D10*
X140654000Y-121301000D02*
X140654000Y-121446000D01*
D11*
X163780000Y-78284000D02*
X164509000Y-78284000D01*
D12*
X190438000Y-89549000D02*
X190438000Y-89810000D01*
D11*
X85754000Y-133560000D02*
X85754000Y-133715000D01*
D10*
X159958000Y-122873000D02*
X159958000Y-122947000D01*
X143341000Y-120953000D02*
X143267000Y-120915000D01*
X104149000Y-83760000D02*
X104913000Y-84050000D01*
D12*
X119389000Y-128522000D02*
X119330000Y-128581000D01*
D10*
X166038000Y-113879000D02*
X166112000Y-113915000D01*
X145045000Y-123033000D02*
X145119000Y-122815000D01*
D11*
X178144000Y-129129000D02*
X178091000Y-129286000D01*
D12*
X150102000Y-128540000D02*
X150041000Y-128718000D01*
D10*
X164565000Y-120879000D02*
X164530000Y-120989000D01*
X144718000Y-121133000D02*
X145228000Y-121644000D01*
D12*
X130748000Y-97278000D02*
X130806000Y-97103000D01*
D10*
X163006000Y-115545000D02*
X163006000Y-116310000D01*
X145335000Y-111276000D02*
X145299000Y-111276000D01*
X102007000Y-83287000D02*
X102081000Y-83287000D01*
D15*
X176782000Y-107925000D02*
X176887000Y-107979000D01*
D10*
X167179000Y-109051000D02*
X167252000Y-109122000D01*
D12*
X154723000Y-128718000D02*
X154723000Y-129013000D01*
D11*
X166691000Y-103526000D02*
X166587000Y-103630000D01*
D10*
X145482000Y-122995000D02*
X145447000Y-123105000D01*
D12*
X193011000Y-90227000D02*
X192642000Y-90227000D01*
D10*
X165929000Y-113732000D02*
X165967000Y-113806000D01*
D12*
X191118000Y-87067000D02*
X191065000Y-86910000D01*
X161979000Y-129310000D02*
X161860000Y-129427000D01*
D15*
X176836000Y-108497000D02*
X176318000Y-109015000D01*
D10*
X140836000Y-122414000D02*
X140946000Y-122449000D01*
X168787000Y-109086000D02*
X168822000Y-109157000D01*
D12*
X146767000Y-129190000D02*
X146709000Y-129310000D01*
D10*
X140836000Y-121629000D02*
X140908000Y-121593000D01*
D14*
X145226000Y-98528000D02*
X135066000Y-98528000D01*
X131510000Y-110720000D02*
X111190000Y-110720000D01*
D10*
X140242000Y-117725000D02*
X140133000Y-117725000D01*
D12*
X162038000Y-129132000D02*
X161979000Y-129310000D01*
D10*
X142686000Y-122691000D02*
X143450000Y-122980000D01*
D11*
X135827000Y-97872000D02*
X135827000Y-97372000D01*
D10*
X145299000Y-111748000D02*
X145444000Y-111713000D01*
D11*
X117847000Y-77867000D02*
X117898000Y-78025000D01*
X87822000Y-93402000D02*
X88289000Y-93402000D01*
D10*
X148022000Y-122114000D02*
X147987000Y-122005000D01*
D14*
X197971000Y-119588000D02*
X199876000Y-119588000D01*
D10*
X157478000Y-123201000D02*
X157514000Y-123310000D01*
D11*
X167659000Y-103630000D02*
X167501000Y-103681000D01*
X116778000Y-77191000D02*
X117245000Y-77191000D01*
D10*
X142249000Y-112497000D02*
X143013000Y-112497000D01*
X155241000Y-111989000D02*
X155421000Y-111989000D01*
D12*
X130864000Y-95317000D02*
X130806000Y-95259000D01*
D14*
X174690000Y-107163000D02*
X174690000Y-101575000D01*
D10*
X150598000Y-112134000D02*
X150633000Y-112243000D01*
X159704000Y-123092000D02*
X159958000Y-123493000D01*
X158408000Y-123458000D02*
X158482000Y-123493000D01*
D11*
X164456000Y-77400000D02*
X164456000Y-77504000D01*
D12*
X122863000Y-129173000D02*
X122983000Y-128995000D01*
X121410000Y-127991000D02*
X121233000Y-128050000D01*
D10*
X102155000Y-83323000D02*
X102190000Y-83359000D01*
X164349000Y-123021000D02*
X164022000Y-123021000D01*
D11*
X88548000Y-93712000D02*
X88497000Y-93816000D01*
D10*
X154949000Y-112497000D02*
X154949000Y-112243000D01*
D12*
X130748000Y-99028000D02*
X131987000Y-98200000D01*
D11*
X162368000Y-77867000D02*
X162368000Y-77608000D01*
D12*
X144784000Y-128245000D02*
X144784000Y-129485000D01*
D10*
X147258000Y-122188000D02*
X147296000Y-122297000D01*
X145373000Y-121921000D02*
X145299000Y-121883000D01*
D11*
X88497000Y-93503000D02*
X88548000Y-93608000D01*
X191685000Y-93303000D02*
X191738000Y-93407000D01*
D14*
X197971000Y-111460000D02*
X197971000Y-108539000D01*
D11*
X191062000Y-93148000D02*
X191062000Y-94237000D01*
D12*
X122213000Y-128522000D02*
X122213000Y-128700000D01*
X120488000Y-129173000D02*
X120605000Y-129056000D01*
X125002000Y-129231000D02*
X125121000Y-129231000D01*
D14*
X172256000Y-82778000D02*
X172256000Y-78714000D01*
D10*
X140316000Y-114420000D02*
X139952000Y-114931000D01*
X153003000Y-120915000D02*
X153574000Y-121133000D01*
D11*
X165449000Y-105505000D02*
X165398000Y-105454000D01*
D10*
X101863000Y-82538000D02*
X102627000Y-83046000D01*
D11*
X165205000Y-103681000D02*
X165050000Y-103630000D01*
D10*
X142358000Y-112061000D02*
X142432000Y-112025000D01*
X167252000Y-109122000D02*
X167288000Y-109195000D01*
X107489000Y-82432000D02*
X107524000Y-82541000D01*
X144827000Y-112134000D02*
X144898000Y-112061000D01*
D11*
X135827000Y-96546000D02*
X135827000Y-96046000D01*
D10*
X152040000Y-122749000D02*
X152012000Y-122721000D01*
X143021000Y-114420000D02*
X143310000Y-115185000D01*
X143625000Y-114349000D02*
X143696000Y-114458000D01*
X145190000Y-111713000D02*
X145299000Y-111748000D01*
D12*
X121764000Y-128169000D02*
X121705000Y-128050000D01*
D10*
X166247000Y-118921000D02*
X166320000Y-118886000D01*
D11*
X162056000Y-77191000D02*
X161850000Y-77191000D01*
X92310000Y-93608000D02*
X92414000Y-93557000D01*
D10*
X160671000Y-123201000D02*
X160707000Y-123275000D01*
X143158000Y-121461000D02*
X143267000Y-121426000D01*
D12*
X121647000Y-129173000D02*
X121764000Y-129056000D01*
D10*
X96783000Y-84049000D02*
X96821000Y-83940000D01*
D12*
X150041000Y-128718000D02*
X150041000Y-129013000D01*
X121116000Y-128228000D02*
X121055000Y-128522000D01*
D11*
X165622000Y-103526000D02*
X165518000Y-103630000D01*
D10*
X142724000Y-122137000D02*
X142795000Y-122210000D01*
X140460000Y-117506000D02*
X140425000Y-117616000D01*
X107489000Y-83892000D02*
X107415000Y-83821000D01*
X137532000Y-111713000D02*
X137423000Y-111748000D01*
X141377000Y-114748000D02*
X141596000Y-114822000D01*
D11*
X86097000Y-133039000D02*
X86201000Y-132988000D01*
D10*
X140946000Y-121555000D02*
X140981000Y-121484000D01*
D12*
X122213000Y-128700000D02*
X122272000Y-128995000D01*
D14*
X195177000Y-124414000D02*
X197971000Y-124414000D01*
D11*
X135827000Y-96046000D02*
X136191000Y-96318000D01*
D12*
X123491000Y-129114000D02*
X123430000Y-128995000D01*
D10*
X154987000Y-111639000D02*
X154949000Y-111568000D01*
X140882000Y-117905000D02*
X140956000Y-117979000D01*
D12*
X124141000Y-127991000D02*
X123549000Y-127991000D01*
D10*
X99795000Y-82297000D02*
X99615000Y-82297000D01*
D12*
X146592000Y-128304000D02*
X146709000Y-128423000D01*
D11*
X195177000Y-133502000D02*
X195124000Y-133555000D01*
D10*
X141741000Y-114529000D02*
X141667000Y-114458000D01*
D14*
X96287000Y-99157000D02*
X104415000Y-99157000D01*
D11*
X165050000Y-103630000D02*
X164999000Y-103577000D01*
D10*
X165038000Y-120806000D02*
X164966000Y-120735000D01*
X145373000Y-122355000D02*
X145447000Y-122284000D01*
D12*
X193323000Y-89965000D02*
X193270000Y-90069000D01*
D10*
X140654000Y-122691000D02*
X141418000Y-122980000D01*
D11*
X88289000Y-93402000D02*
X88444000Y-93453000D01*
X136236000Y-97418000D02*
X136282000Y-97372000D01*
D10*
X142249000Y-112497000D02*
X142249000Y-112243000D01*
X144789000Y-112497000D02*
X144789000Y-112243000D01*
X139698000Y-119866000D02*
X139734000Y-120011000D01*
X143341000Y-121388000D02*
X143415000Y-121316000D01*
X140146000Y-111276000D02*
X140219000Y-111240000D01*
D12*
X130806000Y-94786000D02*
X130864000Y-94725000D01*
X161860000Y-129427000D02*
X161682000Y-129485000D01*
D11*
X127504000Y-98093000D02*
X127712000Y-98093000D01*
D10*
X157913000Y-123458000D02*
X157986000Y-123384000D01*
X141631000Y-117397000D02*
X141667000Y-117433000D01*
D11*
X189675000Y-100374000D02*
X189675000Y-100270000D01*
X103640000Y-128611000D02*
X103640000Y-128557000D01*
X118573000Y-77349000D02*
X118469000Y-77245000D01*
D14*
X174182000Y-136627000D02*
X174182000Y-130531000D01*
D10*
X165398000Y-113150000D02*
X165507000Y-113188000D01*
X141705000Y-117069000D02*
X141631000Y-116998000D01*
X147329000Y-112243000D02*
X147367000Y-112134000D01*
X153173000Y-111568000D02*
X153138000Y-111675000D01*
X163514000Y-115764000D02*
X163478000Y-115838000D01*
X140024000Y-117252000D02*
X140133000Y-117214000D01*
X144718000Y-122851000D02*
X144718000Y-122995000D01*
D12*
X176587000Y-77664000D02*
X176468000Y-77547000D01*
X124199000Y-129056000D02*
X124080000Y-129173000D01*
D10*
X152096000Y-122777000D02*
X152040000Y-122749000D01*
X164674000Y-120735000D02*
X164603000Y-120806000D01*
X165761000Y-116274000D02*
X165652000Y-116310000D01*
D12*
X155431000Y-128304000D02*
X155312000Y-128245000D01*
D10*
X141195000Y-117143000D02*
X141230000Y-117214000D01*
D12*
X193011000Y-86335000D02*
X193011000Y-87433000D01*
D11*
X165571000Y-103059000D02*
X165622000Y-103110000D01*
D10*
X152409000Y-111675000D02*
X152409000Y-111276000D01*
X158022000Y-122911000D02*
X157986000Y-122838000D01*
D11*
X189780000Y-100582000D02*
X189726000Y-100529000D01*
X117245000Y-77191000D02*
X117400000Y-77245000D01*
X90374000Y-99543000D02*
X90374000Y-100374000D01*
D10*
X140351000Y-117689000D02*
X140242000Y-117725000D01*
X106943000Y-82322000D02*
X107052000Y-82284000D01*
D14*
X176287000Y-99157000D02*
X184415000Y-99157000D01*
D12*
X121824000Y-128878000D02*
X121824000Y-128820000D01*
D10*
X152012000Y-122503000D02*
X152040000Y-122475000D01*
D11*
X136191000Y-96181000D02*
X136236000Y-96092000D01*
X91604000Y-94491000D02*
X91240000Y-94491000D01*
D10*
X166427000Y-121426000D02*
X166318000Y-121461000D01*
X106760000Y-83544000D02*
X107524000Y-83034000D01*
X104730000Y-82698000D02*
X104804000Y-82663000D01*
X157237000Y-122729000D02*
X156948000Y-123493000D01*
D12*
X191169000Y-90069000D02*
X191222000Y-89965000D01*
X193376000Y-89810000D02*
X193323000Y-89965000D01*
D10*
X158299000Y-122911000D02*
X158263000Y-123021000D01*
X106760000Y-84110000D02*
X106798000Y-84184000D01*
D14*
X195939000Y-101554000D02*
X184763000Y-101554000D01*
D10*
X147694000Y-121895000D02*
X147585000Y-121895000D01*
X145447000Y-122741000D02*
X145482000Y-122851000D01*
X158263000Y-123201000D02*
X158299000Y-123310000D01*
X141268000Y-117689000D02*
X141195000Y-117616000D01*
D12*
X152995000Y-128304000D02*
X153056000Y-128362000D01*
D11*
X188713000Y-93148000D02*
X189442000Y-94237000D01*
D12*
X190961000Y-89129000D02*
X190750000Y-89129000D01*
D11*
X165622000Y-102592000D02*
X165309000Y-103006000D01*
D10*
X96927000Y-82297000D02*
X97001000Y-82297000D01*
X139709000Y-112497000D02*
X140473000Y-112497000D01*
D15*
X175975000Y-108185000D02*
X175924000Y-108080000D01*
D10*
X166147000Y-115690000D02*
X166221000Y-115655000D01*
X155939000Y-120303000D02*
X155985000Y-120303000D01*
X140737000Y-114931000D02*
X140773000Y-115111000D01*
D12*
X155312000Y-128245000D02*
X155076000Y-128245000D01*
D10*
X157842000Y-122729000D02*
X157694000Y-122729000D01*
D11*
X181260000Y-100872000D02*
X181210000Y-100976000D01*
X91759000Y-94441000D02*
X91604000Y-94491000D01*
D10*
X140473000Y-111421000D02*
X140473000Y-111568000D01*
D14*
X182670000Y-82778000D02*
X178606000Y-82778000D01*
D10*
X164009000Y-113150000D02*
X163501000Y-113915000D01*
X143450000Y-121243000D02*
X143450000Y-121098000D01*
X145190000Y-122429000D02*
X145299000Y-122393000D01*
D11*
X163884000Y-77296000D02*
X163938000Y-77245000D01*
D10*
X99323000Y-83628000D02*
X100087000Y-83120000D01*
X157842000Y-123493000D02*
X157913000Y-123458000D01*
D12*
X147572000Y-129485000D02*
X147689000Y-129485000D01*
X176762000Y-76483000D02*
X176587000Y-76541000D01*
D11*
X191581000Y-94187000D02*
X191426000Y-94237000D01*
D10*
X155525000Y-122703000D02*
X155579000Y-122757000D01*
D11*
X102985000Y-129441000D02*
X102518000Y-129441000D01*
D14*
X197971000Y-111460000D02*
X199876000Y-111460000D01*
D11*
X136737000Y-96137000D02*
X136783000Y-96272000D01*
D15*
X175302000Y-108080000D02*
X175248000Y-108185000D01*
D11*
X127296000Y-97158000D02*
X127242000Y-97263000D01*
X164380000Y-104623000D02*
X164951000Y-104623000D01*
D10*
X155871000Y-120323000D02*
X155939000Y-120303000D01*
D12*
X121705000Y-128050000D02*
X121527000Y-127991000D01*
X150633000Y-128245000D02*
X150397000Y-128245000D01*
D10*
X152881000Y-111989000D02*
X152990000Y-112025000D01*
D12*
X119330000Y-128581000D02*
X119152000Y-128642000D01*
D14*
X99876000Y-111460000D02*
X99876000Y-119588000D01*
D12*
X121055000Y-128522000D02*
X121055000Y-128820000D01*
X146709000Y-128423000D02*
X146767000Y-128540000D01*
X123905000Y-129231000D02*
X123727000Y-129231000D01*
D10*
X149869000Y-111385000D02*
X150379000Y-111748000D01*
D11*
X166468000Y-105558000D02*
X166363000Y-105662000D01*
D10*
X140763000Y-122378000D02*
X140836000Y-122414000D01*
D12*
X143145000Y-61738000D02*
X143145000Y-56737000D01*
D10*
X163501000Y-113150000D02*
X164009000Y-113915000D01*
D12*
X145492000Y-128304000D02*
X145551000Y-128362000D01*
D10*
X141944000Y-117252000D02*
X141944000Y-117433000D01*
X143267000Y-121426000D02*
X143341000Y-121388000D01*
D12*
X120311000Y-129231000D02*
X120488000Y-129173000D01*
X130806000Y-91192000D02*
X130748000Y-91370000D01*
D10*
X144756000Y-122284000D02*
X144827000Y-122355000D01*
D12*
X143145000Y-65238000D02*
X140146000Y-65238000D01*
X123041000Y-128700000D02*
X123041000Y-128522000D01*
D10*
X158299000Y-123310000D02*
X158334000Y-123384000D01*
X147984000Y-112061000D02*
X148058000Y-112134000D01*
D12*
X130864000Y-97042000D02*
X130984000Y-96983000D01*
D11*
X85703000Y-133819000D02*
X85650000Y-133872000D01*
D14*
X185525000Y-124414000D02*
X182731000Y-124414000D01*
D11*
X181052000Y-100560000D02*
X181156000Y-100613000D01*
D10*
X148093000Y-111568000D02*
X148058000Y-111675000D01*
X164530000Y-120989000D02*
X164530000Y-121169000D01*
X104730000Y-83483000D02*
X104804000Y-83448000D01*
D12*
X146000000Y-128245000D02*
X146000000Y-129485000D01*
D10*
X140808000Y-116998000D02*
X140737000Y-117143000D01*
X149759000Y-122343000D02*
X149724000Y-122271000D01*
X165954000Y-118812000D02*
X166028000Y-118886000D01*
D12*
X121233000Y-128050000D02*
X121116000Y-128228000D01*
X147278000Y-129310000D02*
X147395000Y-129427000D01*
D10*
X166064000Y-120697000D02*
X166318000Y-120697000D01*
D12*
X119152000Y-127991000D02*
X119330000Y-128050000D01*
D11*
X164898000Y-105091000D02*
X164951000Y-105142000D01*
D12*
X117286000Y-127991000D02*
X117758000Y-129231000D01*
D10*
X143158000Y-121738000D02*
X143232000Y-121702000D01*
X100052000Y-82734000D02*
X100087000Y-82660000D01*
D11*
X90321000Y-100529000D02*
X90270000Y-100582000D01*
D12*
X178868000Y-76483000D02*
X178571000Y-77722000D01*
D10*
X104913000Y-83303000D02*
X104913000Y-83155000D01*
X140425000Y-117323000D02*
X140460000Y-117433000D01*
D11*
X163074000Y-77191000D02*
X163074000Y-78284000D01*
D10*
X143625000Y-117143000D02*
X143661000Y-117323000D01*
D12*
X178276000Y-76483000D02*
X178571000Y-77722000D01*
D11*
X127296000Y-97938000D02*
X127400000Y-98042000D01*
D10*
X164565000Y-121278000D02*
X164603000Y-121352000D01*
D14*
X182731000Y-120350000D02*
X182731000Y-124414000D01*
D10*
X163755000Y-115545000D02*
X164263000Y-116310000D01*
D11*
X187644000Y-93148000D02*
X188370000Y-93148000D01*
X136737000Y-97872000D02*
X136691000Y-97918000D01*
D12*
X193826000Y-86335000D02*
X193930000Y-86389000D01*
X191568000Y-89129000D02*
X192299000Y-90227000D01*
D10*
X141268000Y-116998000D02*
X141195000Y-117069000D01*
X147329000Y-112497000D02*
X148093000Y-112497000D01*
D13*
G36*
X169356000Y-126473000D02*
G01*
X136082000Y-126473000D01*
X136082000Y-126219000D01*
X169356000Y-126219000D01*
X169356000Y-126473000D01*
G37*
D10*
X140737000Y-117143000D02*
X140699000Y-117323000D01*
X141741000Y-114966000D02*
X141741000Y-115076000D01*
D12*
X148434000Y-128245000D02*
X148434000Y-129485000D01*
X119447000Y-128406000D02*
X119389000Y-128522000D01*
D10*
X167179000Y-109742000D02*
X167070000Y-109777000D01*
D11*
X161588000Y-77453000D02*
X161537000Y-77608000D01*
D10*
X141558000Y-114420000D02*
X141413000Y-114420000D01*
X139709000Y-111568000D02*
X139747000Y-111675000D01*
X141667000Y-114458000D02*
X141558000Y-114420000D01*
X153138000Y-111675000D02*
X153100000Y-111713000D01*
D11*
X103587000Y-129441000D02*
X104316000Y-129441000D01*
D12*
X130806000Y-95259000D02*
X130748000Y-95139000D01*
D10*
X137750000Y-112025000D02*
X137824000Y-112061000D01*
D14*
X95177000Y-124414000D02*
X97971000Y-124414000D01*
D12*
X130984000Y-90626000D02*
X130925000Y-90506000D01*
D10*
X106869000Y-84255000D02*
X106943000Y-84293000D01*
X99361000Y-82734000D02*
X99432000Y-82807000D01*
X141667000Y-114857000D02*
X141705000Y-114893000D01*
D11*
X162264000Y-77349000D02*
X162160000Y-77245000D01*
D10*
X139168000Y-121967000D02*
X139457000Y-122731000D01*
D12*
X140146000Y-65238000D02*
X137146000Y-65238000D01*
D10*
X96783000Y-82805000D02*
X96783000Y-82477000D01*
D12*
X130748000Y-91370000D02*
X130748000Y-91487000D01*
D11*
X179879000Y-100560000D02*
X179879000Y-101652000D01*
D12*
X130748000Y-90328000D02*
X131987000Y-90328000D01*
D15*
X175507000Y-109015000D02*
X175716000Y-109015000D01*
D11*
X104212000Y-128766000D02*
X104108000Y-128923000D01*
D10*
X104332000Y-82698000D02*
X104441000Y-82734000D01*
X145116000Y-111385000D02*
X145081000Y-111494000D01*
X155388000Y-122675000D02*
X155444000Y-122675000D01*
D12*
X190750000Y-86755000D02*
X190595000Y-86805000D01*
D11*
X177936000Y-128766000D02*
X178040000Y-128819000D01*
D14*
X189930000Y-85335000D02*
X189930000Y-90923000D01*
D10*
X159450000Y-122729000D02*
X159450000Y-123493000D01*
D11*
X166069000Y-103577000D02*
X166015000Y-103473000D01*
D14*
X195939000Y-101554000D02*
X195939000Y-108539000D01*
D10*
X141230000Y-114603000D02*
X141268000Y-114674000D01*
D11*
X194969000Y-133088000D02*
X195124000Y-133138000D01*
D10*
X147694000Y-122403000D02*
X147877000Y-122368000D01*
D12*
X131987000Y-95436000D02*
X131987000Y-94608000D01*
X135066000Y-104878000D02*
X132526000Y-104878000D01*
X176762000Y-77722000D02*
X176587000Y-77664000D01*
D10*
X155307000Y-122703000D02*
X155388000Y-122675000D01*
D14*
X178606000Y-82778000D02*
X178606000Y-82778000D01*
D12*
X190646000Y-90176000D02*
X190750000Y-90227000D01*
X131042000Y-95375000D02*
X130984000Y-95375000D01*
D11*
X195124000Y-134126000D02*
X194969000Y-134177000D01*
D12*
X153917000Y-128835000D02*
X154331000Y-129485000D01*
X152820000Y-128896000D02*
X152287000Y-128896000D01*
D10*
X164893000Y-121169000D02*
X165076000Y-121169000D01*
X166574000Y-120989000D02*
X166574000Y-121169000D01*
D11*
X127918000Y-97158000D02*
X127814000Y-97054000D01*
D10*
X165507000Y-113188000D02*
X165581000Y-113259000D01*
D14*
X179175000Y-110698000D02*
X179175000Y-120350000D01*
D10*
X150379000Y-111748000D02*
X150379000Y-111202000D01*
X155444000Y-122675000D02*
X155525000Y-122703000D01*
D12*
X122983000Y-128995000D02*
X123041000Y-128700000D01*
D10*
X137423000Y-111748000D02*
X137387000Y-111748000D01*
D11*
X194502000Y-133088000D02*
X194502000Y-134177000D01*
D10*
X142686000Y-123272000D02*
X143450000Y-123272000D01*
D11*
X180742000Y-100613000D02*
X180846000Y-100560000D01*
D12*
X177296000Y-76661000D02*
X177176000Y-76541000D01*
D10*
X165906000Y-115838000D02*
X165906000Y-116018000D01*
X139952000Y-114931000D02*
X140496000Y-114931000D01*
D11*
X177519000Y-129391000D02*
X177469000Y-129337000D01*
D12*
X190595000Y-87382000D02*
X190750000Y-87433000D01*
D14*
X192303000Y-135425000D02*
X198399000Y-135425000D01*
D10*
X104332000Y-82975000D02*
X104258000Y-83011000D01*
D11*
X191581000Y-93199000D02*
X191685000Y-93303000D01*
D10*
X99506000Y-82843000D02*
X99615000Y-82879000D01*
X149869000Y-112243000D02*
X149907000Y-112134000D01*
X142490000Y-114712000D02*
X142490000Y-114893000D01*
X167324000Y-109305000D02*
X167324000Y-109485000D01*
X166330000Y-115545000D02*
X166330000Y-116310000D01*
X96856000Y-82332000D02*
X96927000Y-82297000D01*
D11*
X127814000Y-97054000D02*
X127712000Y-97003000D01*
D10*
X151987000Y-122668000D02*
X151987000Y-122558000D01*
X141377000Y-117725000D02*
X141268000Y-117689000D01*
D11*
X163171000Y-102592000D02*
X163171000Y-103681000D01*
D12*
X131987000Y-92942000D02*
X131987000Y-92233000D01*
D10*
X140438000Y-111311000D02*
X140473000Y-111421000D01*
X152701000Y-111385000D02*
X152736000Y-111311000D01*
D11*
X167814000Y-103265000D02*
X167814000Y-103369000D01*
X181210000Y-100664000D02*
X181260000Y-100768000D01*
D12*
X130748000Y-93628000D02*
X131576000Y-94217000D01*
D10*
X140133000Y-117214000D02*
X140242000Y-117214000D01*
X154949000Y-111421000D02*
X154987000Y-111349000D01*
D12*
X121116000Y-129056000D02*
X121233000Y-129173000D01*
D10*
X104913000Y-82371000D02*
X104878000Y-82297000D01*
X140328000Y-111240000D02*
X140400000Y-111276000D01*
D12*
X191065000Y-86493000D02*
X191012000Y-86389000D01*
D11*
X127400000Y-98042000D02*
X127504000Y-98093000D01*
D10*
X139422000Y-114420000D02*
X139711000Y-115185000D01*
X141596000Y-114822000D02*
X141667000Y-114857000D01*
X141631000Y-116998000D02*
X141522000Y-116960000D01*
X139805000Y-120084000D02*
X139914000Y-120120000D01*
X142795000Y-120953000D02*
X142724000Y-121024000D01*
X106760000Y-82795000D02*
X107524000Y-82795000D01*
X140808000Y-117796000D02*
X140882000Y-117905000D01*
D14*
X97971000Y-119588000D02*
X99876000Y-119588000D01*
D10*
X152990000Y-112025000D02*
X153064000Y-112061000D01*
X141230000Y-114529000D02*
X141230000Y-114603000D01*
D12*
X150161000Y-128423000D02*
X150102000Y-128540000D01*
D11*
X162160000Y-78233000D02*
X162264000Y-78129000D01*
D10*
X140836000Y-121906000D02*
X140763000Y-121941000D01*
D12*
X150278000Y-129427000D02*
X150397000Y-129485000D01*
D10*
X145010000Y-122429000D02*
X145190000Y-122429000D01*
D11*
X88185000Y-93920000D02*
X88548000Y-94491000D01*
D10*
X144789000Y-112243000D02*
X144827000Y-112134000D01*
D14*
X190987000Y-115524000D02*
G75*
G02*
X189717000Y-115524000I-635000J0D01*
G01*
X189717000Y-115524000D02*
G75*
G02*
X190987000Y-115524000I635000J0D01*
G01*
D10*
X153384000Y-121052000D02*
X153384000Y-120778000D01*
D11*
X127814000Y-98042000D02*
X127918000Y-97938000D01*
D10*
X139168000Y-121967000D02*
X138876000Y-122731000D01*
D12*
X155609000Y-129190000D02*
X155667000Y-129013000D01*
D10*
X140946000Y-122449000D02*
X141126000Y-122449000D01*
X166391000Y-118812000D02*
X166429000Y-118738000D01*
D11*
X189726000Y-100529000D02*
X189675000Y-100374000D01*
D12*
X142645000Y-65238000D02*
X142645000Y-61738000D01*
D10*
X143661000Y-117323000D02*
X143661000Y-117471000D01*
X143696000Y-115256000D02*
X143625000Y-115365000D01*
D12*
X156968000Y-128245000D02*
X156968000Y-129485000D01*
D11*
X91916000Y-93661000D02*
X91967000Y-93816000D01*
D10*
X145154000Y-122741000D02*
X145190000Y-122706000D01*
D11*
X136236000Y-96092000D02*
X136282000Y-96046000D01*
D10*
X165533000Y-118886000D02*
X165606000Y-118812000D01*
X145264000Y-122670000D02*
X145373000Y-122670000D01*
D11*
X135827000Y-97372000D02*
X136191000Y-97646000D01*
D10*
X166401000Y-113806000D02*
X166440000Y-113732000D01*
D12*
X176468000Y-76777000D02*
X176526000Y-76897000D01*
X145314000Y-128245000D02*
X145492000Y-128304000D01*
D10*
X140654000Y-122691000D02*
X141418000Y-122691000D01*
X155022000Y-111311000D02*
X155093000Y-111276000D01*
X137606000Y-111276000D02*
X137788000Y-111311000D01*
D11*
X167710000Y-103059000D02*
X167763000Y-103110000D01*
D10*
X154987000Y-112134000D02*
X155058000Y-112061000D01*
D12*
X193981000Y-86440000D02*
X194034000Y-86544000D01*
D10*
X143407000Y-116815000D02*
X143478000Y-116889000D01*
X165581000Y-113806000D02*
X165507000Y-113879000D01*
D11*
X167763000Y-103526000D02*
X167659000Y-103630000D01*
D10*
X160526000Y-123493000D02*
X160379000Y-123493000D01*
X139805000Y-119394000D02*
X139734000Y-119500000D01*
X145553000Y-111494000D02*
X145518000Y-111385000D01*
D11*
X165050000Y-102592000D02*
X165622000Y-102592000D01*
D10*
X161202000Y-122729000D02*
X161202000Y-123493000D01*
X142795000Y-122210000D02*
X142868000Y-122210000D01*
D12*
X150161000Y-129310000D02*
X150278000Y-129427000D01*
D10*
X139709000Y-112243000D02*
X139747000Y-112134000D01*
X143013000Y-122066000D02*
X143087000Y-121847000D01*
D11*
X189442000Y-93148000D02*
X188713000Y-94237000D01*
D12*
X193407000Y-86544000D02*
X193460000Y-86440000D01*
X177176000Y-77664000D02*
X176998000Y-77722000D01*
D14*
X85525000Y-126954000D02*
X85525000Y-124414000D01*
D10*
X137352000Y-112025000D02*
X137461000Y-111989000D01*
D11*
X195571000Y-133814000D02*
X196351000Y-133814000D01*
D10*
X104441000Y-82734000D02*
X104621000Y-82734000D01*
D11*
X92414000Y-93557000D02*
X92571000Y-93402000D01*
D10*
X142686000Y-122449000D02*
X143450000Y-122449000D01*
X165076000Y-120879000D02*
X165038000Y-120806000D01*
X142830000Y-112025000D02*
X142904000Y-112061000D01*
D12*
X130984000Y-96983000D02*
X131101000Y-96983000D01*
D11*
X167763000Y-103110000D02*
X167814000Y-103265000D01*
D14*
X170853000Y-93473000D02*
G75*
G02*
X153851000Y-93473000I-8501000J0D01*
G01*
X153851000Y-93473000D02*
G75*
G02*
X170853000Y-93473000I8501000J0D01*
G01*
D11*
X177021000Y-129337000D02*
X176968000Y-129391000D01*
D10*
X104804000Y-82226000D02*
X104730000Y-82188000D01*
X139963000Y-111675000D02*
X140001000Y-111603000D01*
D11*
X180638000Y-100768000D02*
X180689000Y-100664000D01*
X85495000Y-133352000D02*
X85650000Y-133405000D01*
X90270000Y-100582000D02*
X90166000Y-100633000D01*
D10*
X142416000Y-114529000D02*
X142454000Y-114603000D01*
X140847000Y-114458000D02*
X140773000Y-114603000D01*
X148058000Y-111675000D02*
X148020000Y-111713000D01*
X142236000Y-115185000D02*
X141979000Y-115185000D01*
X147296000Y-122297000D02*
X147402000Y-122368000D01*
X158771000Y-122838000D02*
X158700000Y-122767000D01*
D12*
X130864000Y-94725000D02*
X130984000Y-94667000D01*
D10*
X142724000Y-121774000D02*
X142686000Y-121883000D01*
X101863000Y-83468000D02*
X101901000Y-83359000D01*
X140692000Y-121192000D02*
X140654000Y-121301000D01*
X152409000Y-112243000D02*
X152447000Y-112134000D01*
D11*
X86201000Y-132988000D02*
X86358000Y-132834000D01*
D10*
X143267000Y-120915000D02*
X143158000Y-120880000D01*
X166501000Y-120806000D02*
X166536000Y-120879000D01*
D12*
X176587000Y-76541000D02*
X176468000Y-76661000D01*
D14*
X199876000Y-111460000D02*
X199876000Y-119588000D01*
D12*
X193323000Y-89391000D02*
X193376000Y-89549000D01*
X147217000Y-129132000D02*
X147278000Y-129310000D01*
D10*
X140036000Y-111459000D02*
X140072000Y-111349000D01*
X144827000Y-111349000D02*
X144789000Y-111459000D01*
D12*
X122686000Y-129231000D02*
X122863000Y-129173000D01*
D10*
X145299000Y-122393000D02*
X145373000Y-122355000D01*
D11*
X102518000Y-128352000D02*
X102518000Y-129441000D01*
D10*
X166257000Y-113915000D02*
X166330000Y-113879000D01*
X166440000Y-113732000D02*
X166475000Y-113623000D01*
D11*
X181210000Y-100976000D02*
X181106000Y-101131000D01*
D10*
X147367000Y-112134000D02*
X147438000Y-112061000D01*
X141383000Y-122015000D02*
X141309000Y-121941000D01*
X104149000Y-83155000D02*
X104149000Y-83303000D01*
D15*
X175716000Y-109015000D02*
X175820000Y-108962000D01*
D12*
X177684000Y-76483000D02*
X177981000Y-77722000D01*
D10*
X152409000Y-111276000D02*
X152701000Y-111494000D01*
X140062000Y-120084000D02*
X140133000Y-120011000D01*
X152409000Y-112497000D02*
X152409000Y-112243000D01*
X143770000Y-115111000D02*
X143696000Y-115256000D01*
D12*
X190491000Y-89391000D02*
X190438000Y-89549000D01*
D10*
X140918000Y-115365000D02*
X140991000Y-115439000D01*
X139988000Y-117651000D02*
X139952000Y-117580000D01*
D11*
X165398000Y-105558000D02*
X165449000Y-105505000D01*
X178144000Y-129025000D02*
X178144000Y-129129000D01*
D10*
X160272000Y-123021000D02*
X160344000Y-123056000D01*
X104258000Y-82226000D02*
X104187000Y-82297000D01*
D11*
X192132000Y-93615000D02*
X192132000Y-93770000D01*
X91240000Y-93402000D02*
X91604000Y-93402000D01*
X136783000Y-97738000D02*
X136737000Y-97872000D01*
X103193000Y-128766000D02*
X103140000Y-128819000D01*
D10*
X142287000Y-112134000D02*
X142358000Y-112061000D01*
X160526000Y-122729000D02*
X160379000Y-122729000D01*
D11*
X165518000Y-103630000D02*
X165363000Y-103681000D01*
D10*
X137933000Y-112243000D02*
X137933000Y-112497000D01*
X165144000Y-113150000D02*
X165398000Y-113150000D01*
X165243000Y-118886000D02*
X165314000Y-118921000D01*
D14*
X182670000Y-78714000D02*
X182670000Y-82778000D01*
D10*
X166112000Y-113915000D02*
X166257000Y-113915000D01*
D14*
X198399000Y-135425000D02*
X198399000Y-141521000D01*
D10*
X153003000Y-120244000D02*
X153574000Y-120244000D01*
X147585000Y-122403000D02*
X147694000Y-122403000D01*
X166330000Y-113879000D02*
X166401000Y-113806000D01*
D11*
X161850000Y-78284000D02*
X162056000Y-78284000D01*
D12*
X153506000Y-128245000D02*
X153506000Y-129485000D01*
D10*
X104804000Y-82663000D02*
X104878000Y-82589000D01*
D11*
X85495000Y-132834000D02*
X85650000Y-132884000D01*
D10*
X166112000Y-113150000D02*
X166038000Y-113188000D01*
X96892000Y-83867000D02*
X96966000Y-83831000D01*
D12*
X154781000Y-129190000D02*
X154839000Y-129310000D01*
D14*
X185525000Y-126954000D02*
X185525000Y-124414000D01*
D10*
X142089000Y-117689000D02*
X142162000Y-117725000D01*
D12*
X125416000Y-128995000D02*
X125474000Y-128700000D01*
X193460000Y-86440000D02*
X193511000Y-86389000D01*
D10*
X140773000Y-115111000D02*
X140847000Y-115256000D01*
X147621000Y-111989000D02*
X147801000Y-111989000D01*
X147621000Y-111349000D02*
X147692000Y-111276000D01*
D12*
X194430000Y-86335000D02*
X194849000Y-87433000D01*
D11*
X99506000Y-100560000D02*
X100232000Y-100560000D01*
D10*
X165652000Y-116310000D02*
X165398000Y-116310000D01*
D11*
X89958000Y-100582000D02*
X89904000Y-100529000D01*
D10*
X141979000Y-117143000D02*
X141944000Y-117252000D01*
D11*
X136737000Y-96546000D02*
X136691000Y-96592000D01*
X166864000Y-104623000D02*
X167278000Y-105713000D01*
D10*
X140654000Y-123272000D02*
X141418000Y-123272000D01*
X104149000Y-84342000D02*
X104913000Y-84050000D01*
D11*
X100575000Y-100768000D02*
X100679000Y-100717000D01*
D14*
X97971000Y-111460000D02*
X99876000Y-111460000D01*
D10*
X144900000Y-122393000D02*
X145010000Y-122429000D01*
X165761000Y-115584000D02*
X165835000Y-115655000D01*
D11*
X116778000Y-77191000D02*
X116778000Y-78284000D01*
D14*
X198399000Y-141521000D02*
X192303000Y-141521000D01*
D10*
X166064000Y-120697000D02*
X166064000Y-121461000D01*
X165060000Y-122657000D02*
X165352000Y-123422000D01*
X156051000Y-120323000D02*
X156097000Y-120369000D01*
X145482000Y-122851000D02*
X145482000Y-122995000D01*
X104878000Y-82297000D02*
X104804000Y-82226000D01*
X154949000Y-111568000D02*
X154949000Y-111421000D01*
X137933000Y-111494000D02*
X137933000Y-111568000D01*
D11*
X127712000Y-98093000D02*
X127814000Y-98042000D01*
X192289000Y-94187000D02*
X192444000Y-94237000D01*
D10*
X164458000Y-122985000D02*
X164349000Y-123021000D01*
D14*
X106618000Y-130531000D02*
X106618000Y-136627000D01*
D11*
X118159000Y-77191000D02*
X118055000Y-77245000D01*
X176813000Y-129441000D02*
X176346000Y-129441000D01*
D10*
X97547000Y-84049000D02*
X97547000Y-84303000D01*
D12*
X193930000Y-86389000D02*
X193981000Y-86440000D01*
D10*
X155035000Y-123003000D02*
X155035000Y-122703000D01*
D11*
X118627000Y-78025000D02*
X118677000Y-77867000D01*
D12*
X125299000Y-129173000D02*
X125416000Y-128995000D01*
X190961000Y-87382000D02*
X191065000Y-87275000D01*
D10*
X143415000Y-121774000D02*
X143450000Y-121883000D01*
X153064000Y-112061000D02*
X153138000Y-112134000D01*
D12*
X191065000Y-90176000D02*
X191169000Y-90069000D01*
D10*
X166391000Y-118266000D02*
X166320000Y-118195000D01*
D12*
X131929000Y-91192000D02*
X131751000Y-91075000D01*
X157913000Y-128245000D02*
X157440000Y-129485000D01*
D10*
X155604000Y-112061000D02*
X155678000Y-112134000D01*
D11*
X166744000Y-103265000D02*
X166744000Y-103369000D01*
D12*
X154781000Y-128540000D02*
X154723000Y-128718000D01*
X131101000Y-94667000D02*
X131220000Y-94725000D01*
D10*
X155253000Y-122866000D02*
X155253000Y-122784000D01*
D12*
X119330000Y-128050000D02*
X119389000Y-128108000D01*
D10*
X107232000Y-83966000D02*
X107232000Y-83783000D01*
D11*
X117504000Y-77400000D02*
X117504000Y-77557000D01*
D10*
X141309000Y-121941000D02*
X141235000Y-121906000D01*
X137423000Y-111276000D02*
X137606000Y-111276000D01*
D12*
X146767000Y-128540000D02*
X146828000Y-128718000D01*
D10*
X143415000Y-121316000D02*
X143450000Y-121243000D01*
X147329000Y-111311000D02*
X147329000Y-111675000D01*
D11*
X164951000Y-105142000D02*
X165002000Y-105297000D01*
D10*
X155713000Y-112243000D02*
X155713000Y-112497000D01*
X144933000Y-111713000D02*
X145116000Y-111748000D01*
X166318000Y-120697000D02*
X166427000Y-120735000D01*
X137898000Y-111675000D02*
X137824000Y-111713000D01*
X160562000Y-123130000D02*
X160636000Y-123165000D01*
X143806000Y-114783000D02*
X143806000Y-114931000D01*
X140133000Y-119465000D02*
X140097000Y-119394000D01*
X143021000Y-114420000D02*
X142729000Y-115185000D01*
D11*
X166155000Y-105038000D02*
X166313000Y-105038000D01*
D10*
X155553000Y-123031000D02*
X155497000Y-123056000D01*
D12*
X121410000Y-129231000D02*
X121469000Y-129231000D01*
D10*
X138985000Y-119866000D02*
X139348000Y-119866000D01*
D11*
X91759000Y-93453000D02*
X91863000Y-93557000D01*
D10*
X145553000Y-112243000D02*
X145553000Y-112497000D01*
D11*
X120194000Y-77349000D02*
X120351000Y-77191000D01*
X103244000Y-129233000D02*
X103193000Y-129337000D01*
D10*
X141413000Y-115185000D02*
X141304000Y-115149000D01*
D11*
X127400000Y-97054000D02*
X127296000Y-97158000D01*
D10*
X143552000Y-117796000D02*
X143478000Y-117905000D01*
X150450000Y-112025000D02*
X150524000Y-112061000D01*
X166501000Y-121352000D02*
X166427000Y-121426000D01*
X160379000Y-123493000D02*
X160272000Y-123458000D01*
X148058000Y-112134000D02*
X148093000Y-112243000D01*
X145299000Y-111276000D02*
X145190000Y-111311000D01*
D11*
X136419000Y-96000000D02*
X136511000Y-96000000D01*
D10*
X152955000Y-111240000D02*
X153064000Y-111276000D01*
D11*
X191161000Y-99645000D02*
X191212000Y-99749000D01*
X161537000Y-77867000D02*
X161588000Y-78025000D01*
D10*
X104441000Y-83519000D02*
X104621000Y-83519000D01*
D11*
X119020000Y-77191000D02*
X119749000Y-77191000D01*
D12*
X190491000Y-89965000D02*
X190542000Y-90069000D01*
D11*
X90976000Y-99543000D02*
X90976000Y-100633000D01*
D10*
X137788000Y-111311000D02*
X137898000Y-111385000D01*
X142541000Y-111989000D02*
X142721000Y-111989000D01*
X104621000Y-82734000D02*
X104730000Y-82698000D01*
X139952000Y-119648000D02*
X139914000Y-119648000D01*
X145081000Y-111494000D02*
X145081000Y-111530000D01*
D12*
X146828000Y-128718000D02*
X146828000Y-129013000D01*
D10*
X140133000Y-119757000D02*
X140062000Y-119683000D01*
X155530000Y-112025000D02*
X155604000Y-112061000D01*
X101863000Y-83795000D02*
X101863000Y-83468000D01*
D11*
X136191000Y-97509000D02*
X136236000Y-97418000D01*
D10*
X99323000Y-84123000D02*
X100087000Y-84123000D01*
X104187000Y-82589000D02*
X104258000Y-82663000D01*
X142729000Y-117725000D02*
X143166000Y-117725000D01*
X165591000Y-122657000D02*
X165774000Y-123422000D01*
X155093000Y-111713000D02*
X155022000Y-111675000D01*
X137169000Y-112243000D02*
X137207000Y-112134000D01*
X104804000Y-83448000D02*
X104878000Y-83374000D01*
X155802000Y-120438000D02*
X155825000Y-120369000D01*
X140473000Y-111568000D02*
X140438000Y-111675000D01*
D14*
X96287000Y-99157000D02*
X96287000Y-85187000D01*
D10*
X139914000Y-120120000D02*
X139952000Y-120120000D01*
D11*
X85495000Y-133923000D02*
X85028000Y-133923000D01*
D10*
X137606000Y-111385000D02*
X137641000Y-111494000D01*
D11*
X136282000Y-96046000D02*
X136419000Y-96000000D01*
X165845000Y-105609000D02*
X165792000Y-105505000D01*
D12*
X155667000Y-129013000D02*
X155667000Y-128718000D01*
D11*
X177021000Y-128974000D02*
X177072000Y-129078000D01*
D10*
X143552000Y-114275000D02*
X143625000Y-114349000D01*
D11*
X164380000Y-105662000D02*
X164326000Y-105609000D01*
D10*
X155058000Y-112061000D02*
X155132000Y-112025000D01*
D12*
X121233000Y-129173000D02*
X121410000Y-129231000D01*
D10*
X141339000Y-117288000D02*
X141558000Y-117362000D01*
X153138000Y-111349000D02*
X153173000Y-111459000D01*
D14*
X197971000Y-108539000D02*
X195939000Y-108539000D01*
D11*
X190143000Y-100529000D02*
X190092000Y-100582000D01*
D10*
X155825000Y-120369000D02*
X155871000Y-120323000D01*
X142454000Y-115002000D02*
X142416000Y-115076000D01*
D12*
X145609000Y-128599000D02*
X145551000Y-128718000D01*
D10*
X107232000Y-84329000D02*
X107341000Y-84293000D01*
D11*
X85028000Y-132834000D02*
X85495000Y-132834000D01*
D10*
X152592000Y-112025000D02*
X152701000Y-111989000D01*
X142236000Y-114420000D02*
X142345000Y-114458000D01*
X140036000Y-111530000D02*
X140001000Y-111385000D01*
X166427000Y-120735000D02*
X166501000Y-120806000D01*
X142724000Y-121316000D02*
X142795000Y-121388000D01*
X165159000Y-115401000D02*
X164504000Y-116564000D01*
D11*
X85028000Y-132834000D02*
X85028000Y-133923000D01*
D10*
X144900000Y-123178000D02*
X144972000Y-123143000D01*
X157623000Y-122767000D02*
X157550000Y-122838000D01*
D12*
X124258000Y-128759000D02*
X124258000Y-128878000D01*
X142645000Y-64238000D02*
X147646000Y-64238000D01*
D14*
X97971000Y-108539000D02*
X95939000Y-108539000D01*
D10*
X142454000Y-117069000D02*
X142381000Y-116998000D01*
D12*
X159521000Y-128245000D02*
X159521000Y-129485000D01*
D10*
X142724000Y-121024000D02*
X142686000Y-121098000D01*
X139422000Y-114420000D02*
X139130000Y-115185000D01*
D11*
X104212000Y-128453000D02*
X104263000Y-128557000D01*
D10*
X141235000Y-122414000D02*
X141309000Y-122378000D01*
D12*
X124649000Y-128700000D02*
X124707000Y-128995000D01*
D14*
X180278000Y-136627000D02*
X174182000Y-136627000D01*
D12*
X152820000Y-128245000D02*
X152995000Y-128304000D01*
D10*
X165871000Y-116127000D02*
X165835000Y-116201000D01*
X97255000Y-83795000D02*
X97364000Y-83831000D01*
D12*
X191065000Y-89183000D02*
X190961000Y-89129000D01*
D11*
X164847000Y-105662000D02*
X164692000Y-105713000D01*
X117898000Y-77453000D02*
X117847000Y-77608000D01*
D12*
X159909000Y-128245000D02*
X159909000Y-129485000D01*
D10*
X139818000Y-112061000D02*
X139892000Y-112025000D01*
X168642000Y-109013000D02*
X168751000Y-109051000D01*
X165919000Y-118738000D02*
X165954000Y-118812000D01*
D15*
X175820000Y-108962000D02*
X175924000Y-108858000D01*
D10*
X107341000Y-83783000D02*
X107232000Y-83783000D01*
D12*
X161507000Y-128660000D02*
X161682000Y-128660000D01*
D11*
X176346000Y-128352000D02*
X176346000Y-129441000D01*
D10*
X152772000Y-111276000D02*
X152881000Y-111240000D01*
D12*
X150278000Y-128304000D02*
X150161000Y-128423000D01*
D11*
X136600000Y-97026000D02*
X136645000Y-96981000D01*
D12*
X191222000Y-89965000D02*
X191222000Y-89810000D01*
D11*
X118159000Y-78284000D02*
X118365000Y-78284000D01*
D10*
X150524000Y-112061000D02*
X150598000Y-112134000D01*
X143013000Y-112243000D02*
X143013000Y-112497000D01*
D12*
X130748000Y-96592000D02*
X130748000Y-95825000D01*
X119897000Y-129056000D02*
X120016000Y-129173000D01*
D11*
X178091000Y-129286000D02*
X177987000Y-129391000D01*
D14*
X100522000Y-130531000D02*
X106618000Y-130531000D01*
X111190000Y-110720000D02*
X111190000Y-125960000D01*
D10*
X139952000Y-120120000D02*
X140062000Y-120084000D01*
D11*
X195124000Y-133555000D02*
X194969000Y-133606000D01*
D12*
X190961000Y-86805000D02*
X190803000Y-86755000D01*
D10*
X144718000Y-121644000D02*
X145482000Y-121644000D01*
X99323000Y-82515000D02*
X99323000Y-82660000D01*
X137169000Y-112497000D02*
X137169000Y-112243000D01*
D15*
X176318000Y-109015000D02*
X177042000Y-109015000D01*
D11*
X103849000Y-128352000D02*
X104054000Y-128352000D01*
D10*
X140763000Y-121629000D02*
X140836000Y-121629000D01*
X164022000Y-122657000D02*
X164349000Y-122657000D01*
X141268000Y-114674000D02*
X141304000Y-114712000D01*
X141418000Y-121301000D02*
X141418000Y-121446000D01*
X143625000Y-117651000D02*
X143552000Y-117796000D01*
D11*
X90166000Y-100633000D02*
X90062000Y-100633000D01*
D10*
X144789000Y-111459000D02*
X144789000Y-111530000D01*
D15*
X175302000Y-108858000D02*
X175406000Y-108962000D01*
D10*
X138985000Y-122477000D02*
X139348000Y-122477000D01*
X145261000Y-111989000D02*
X145370000Y-112025000D01*
X137169000Y-111530000D02*
X137169000Y-111494000D01*
X107415000Y-84255000D02*
X107489000Y-84184000D01*
X141383000Y-122304000D02*
X141418000Y-122233000D01*
X165507000Y-113879000D02*
X165398000Y-113915000D01*
D12*
X131278000Y-97103000D02*
X131337000Y-97278000D01*
D11*
X99869000Y-100560000D02*
X99869000Y-101652000D01*
D10*
X165314000Y-118157000D02*
X165243000Y-118195000D01*
D12*
X150928000Y-129190000D02*
X150986000Y-129013000D01*
D10*
X166330000Y-113188000D02*
X166257000Y-113150000D01*
X140181000Y-111989000D02*
X140290000Y-112025000D01*
X166038000Y-113188000D02*
X165967000Y-113259000D01*
X165398000Y-115545000D02*
X165652000Y-115545000D01*
D12*
X132526000Y-64238000D02*
X137646000Y-64238000D01*
D11*
X120092000Y-77400000D02*
X120194000Y-77349000D01*
D10*
X145081000Y-111989000D02*
X145261000Y-111989000D01*
D11*
X90717000Y-99749000D02*
X90819000Y-99698000D01*
D10*
X141418000Y-122233000D02*
X141418000Y-122086000D01*
D11*
X117451000Y-77661000D02*
X117400000Y-77712000D01*
X88289000Y-93920000D02*
X87822000Y-93920000D01*
X192444000Y-93148000D02*
X192289000Y-93199000D01*
D10*
X166536000Y-121278000D02*
X166501000Y-121352000D01*
D11*
X166054000Y-105713000D02*
X165896000Y-105662000D01*
X191789000Y-93821000D02*
X191738000Y-93978000D01*
D10*
X165398000Y-115545000D02*
X165398000Y-116310000D01*
X145045000Y-121461000D02*
X145482000Y-121133000D01*
D11*
X119384000Y-77191000D02*
X119384000Y-78284000D01*
D10*
X140773000Y-114603000D02*
X140737000Y-114783000D01*
X153003000Y-120244000D02*
X153384000Y-120516000D01*
D11*
X161141000Y-77296000D02*
X161194000Y-77400000D01*
D10*
X145444000Y-111311000D02*
X145335000Y-111276000D01*
D11*
X162056000Y-78284000D02*
X162160000Y-78233000D01*
D10*
X139818000Y-111276000D02*
X139747000Y-111311000D01*
X97438000Y-83867000D02*
X97512000Y-83940000D01*
D11*
X127504000Y-97003000D02*
X127400000Y-97054000D01*
D10*
X143478000Y-117905000D02*
X143407000Y-117979000D01*
X141126000Y-121868000D02*
X140946000Y-121868000D01*
X140991000Y-114275000D02*
X140918000Y-114349000D01*
D11*
X127971000Y-97263000D02*
X127918000Y-97158000D01*
D10*
X147583000Y-111459000D02*
X147621000Y-111349000D01*
D11*
X164456000Y-77504000D02*
X164405000Y-77608000D01*
D10*
X137461000Y-111989000D02*
X137641000Y-111989000D01*
D12*
X121527000Y-127991000D02*
X121410000Y-127991000D01*
D10*
X139914000Y-119355000D02*
X139805000Y-119394000D01*
X165954000Y-118266000D02*
X165919000Y-118339000D01*
X140654000Y-120880000D02*
X141418000Y-120880000D01*
X107415000Y-83821000D02*
X107341000Y-83783000D01*
D12*
X155431000Y-129427000D02*
X155548000Y-129310000D01*
D10*
X166320000Y-122657000D02*
X166137000Y-123422000D01*
D11*
X88548000Y-93608000D02*
X88548000Y-93712000D01*
D10*
X163478000Y-115619000D02*
X163514000Y-115690000D01*
X155642000Y-120575000D02*
X155848000Y-120598000D01*
X160199000Y-122838000D02*
X160199000Y-122911000D01*
D12*
X123549000Y-127991000D02*
X123491000Y-128522000D01*
D10*
X140460000Y-117433000D02*
X140460000Y-117506000D01*
D11*
X191006000Y-99543000D02*
X191111000Y-99594000D01*
D10*
X137641000Y-111989000D02*
X137750000Y-112025000D01*
D11*
X104108000Y-128923000D02*
X103587000Y-129441000D01*
D10*
X143087000Y-121847000D02*
X143122000Y-121774000D01*
D12*
X153056000Y-128776000D02*
X152995000Y-128835000D01*
X154037000Y-128835000D02*
X153506000Y-128835000D01*
D10*
X166816000Y-109013000D02*
X166816000Y-109777000D01*
D11*
X87822000Y-93402000D02*
X87822000Y-94491000D01*
X165673000Y-103265000D02*
X165673000Y-103369000D01*
D12*
X137646000Y-65238000D02*
X137646000Y-61738000D01*
X156968000Y-128245000D02*
X157440000Y-129485000D01*
D10*
X159777000Y-122729000D02*
X159886000Y-122767000D01*
D12*
X191169000Y-89287000D02*
X191065000Y-89183000D01*
D10*
X156074000Y-120598000D02*
X156028000Y-120620000D01*
D12*
X130748000Y-95139000D02*
X130748000Y-94903000D01*
D10*
X144827000Y-122670000D02*
X144756000Y-122741000D01*
X147296000Y-122005000D02*
X147258000Y-122114000D01*
D11*
X85703000Y-133456000D02*
X85754000Y-133560000D01*
D10*
X142978000Y-120880000D02*
X142868000Y-120915000D01*
X160707000Y-123384000D02*
X160636000Y-123458000D01*
D11*
X178091000Y-128870000D02*
X178144000Y-129025000D01*
X85028000Y-133352000D02*
X85495000Y-133352000D01*
D10*
X140692000Y-121555000D02*
X140763000Y-121629000D01*
X140097000Y-119394000D02*
X139988000Y-119355000D01*
X106869000Y-82358000D02*
X106943000Y-82322000D01*
D11*
X162317000Y-77453000D02*
X162264000Y-77349000D01*
D10*
X142686000Y-123272000D02*
X143450000Y-122980000D01*
D11*
X117400000Y-77712000D02*
X117245000Y-77763000D01*
D10*
X140692000Y-122015000D02*
X140654000Y-122086000D01*
D12*
X161682000Y-128660000D02*
X161860000Y-128718000D01*
D10*
X167070000Y-109013000D02*
X167179000Y-109051000D01*
D12*
X154273000Y-128362000D02*
X154331000Y-128482000D01*
D15*
X176991000Y-108134000D02*
X176991000Y-108238000D01*
D10*
X164893000Y-121461000D02*
X164966000Y-121426000D01*
X107341000Y-82322000D02*
X107415000Y-82358000D01*
X140171000Y-119866000D02*
X140133000Y-119757000D01*
D12*
X148825000Y-128245000D02*
X149653000Y-129485000D01*
X130748000Y-96592000D02*
X131987000Y-96592000D01*
D10*
X165243000Y-118195000D02*
X165170000Y-118266000D01*
D11*
X195228000Y-133397000D02*
X195177000Y-133502000D01*
D10*
X149615000Y-122873000D02*
X150379000Y-123165000D01*
X147329000Y-112497000D02*
X147329000Y-112243000D01*
D12*
X161682000Y-129485000D02*
X161507000Y-129485000D01*
D10*
X158263000Y-123021000D02*
X158263000Y-123201000D01*
X158408000Y-122767000D02*
X158334000Y-122838000D01*
X153100000Y-111713000D02*
X153028000Y-111748000D01*
X141304000Y-114712000D02*
X141377000Y-114748000D01*
X139239000Y-114931000D02*
X139602000Y-114931000D01*
X140918000Y-114349000D02*
X140847000Y-114458000D01*
D14*
X186882000Y-90923000D02*
X186882000Y-85335000D01*
D10*
X141200000Y-121118000D02*
X141309000Y-121118000D01*
X142089000Y-116998000D02*
X142017000Y-117069000D01*
X137532000Y-111311000D02*
X137606000Y-111385000D01*
D12*
X130748000Y-91487000D02*
X130806000Y-91664000D01*
D15*
X175198000Y-108340000D02*
X175198000Y-108599000D01*
D11*
X161141000Y-77661000D02*
X161090000Y-77712000D01*
D10*
X147656000Y-111713000D02*
X147621000Y-111675000D01*
D15*
X175406000Y-108962000D02*
X175507000Y-109015000D01*
D12*
X146592000Y-129427000D02*
X146414000Y-129485000D01*
D11*
X165622000Y-103110000D02*
X165673000Y-103265000D01*
D10*
X149907000Y-112134000D02*
X149978000Y-112061000D01*
D12*
X147766000Y-64238000D02*
X147766000Y-104878000D01*
X122686000Y-127991000D02*
X122569000Y-127991000D01*
X191118000Y-87120000D02*
X191118000Y-87067000D01*
D11*
X165673000Y-103369000D02*
X165622000Y-103526000D01*
D10*
X140072000Y-111639000D02*
X140036000Y-111530000D01*
X140219000Y-111240000D02*
X140328000Y-111240000D01*
D12*
X153115000Y-128482000D02*
X153115000Y-128660000D01*
D10*
X143478000Y-116889000D02*
X143552000Y-116998000D01*
X165134000Y-118738000D02*
X165170000Y-118812000D01*
D11*
X88497000Y-93816000D02*
X88444000Y-93869000D01*
D10*
X168751000Y-109051000D02*
X168787000Y-109086000D01*
D12*
X122391000Y-129173000D02*
X122569000Y-129231000D01*
D10*
X155642000Y-120346000D02*
X155642000Y-120575000D01*
D11*
X127712000Y-97003000D02*
X127504000Y-97003000D01*
D14*
X169088000Y-101483000D02*
X169987000Y-101483000D01*
D10*
X104913000Y-83155000D02*
X104878000Y-83084000D01*
X157514000Y-123310000D02*
X157550000Y-123384000D01*
D12*
X123549000Y-128464000D02*
X123727000Y-128406000D01*
D10*
X143696000Y-114458000D02*
X143770000Y-114603000D01*
X155253000Y-122784000D02*
X155279000Y-122729000D01*
D14*
X182731000Y-110698000D02*
X179175000Y-110698000D01*
D12*
X119152000Y-128642000D02*
X118622000Y-128642000D01*
D10*
X164880000Y-123168000D02*
X165243000Y-123168000D01*
D15*
X176473000Y-107979000D02*
X176577000Y-107925000D01*
D10*
X150341000Y-111989000D02*
X150450000Y-112025000D01*
D11*
X135827000Y-94971000D02*
X136783000Y-95337000D01*
D10*
X165617000Y-113333000D02*
X165652000Y-113442000D01*
X141126000Y-121156000D02*
X141200000Y-121118000D01*
D11*
X127242000Y-97834000D02*
X127296000Y-97938000D01*
D12*
X137146000Y-71238000D02*
X143145000Y-71238000D01*
D15*
X175820000Y-107979000D02*
X175716000Y-107925000D01*
D11*
X128573000Y-97003000D02*
X128573000Y-98093000D01*
D10*
X99904000Y-82843000D02*
X99978000Y-82807000D01*
D12*
X131576000Y-94217000D02*
X131576000Y-93331000D01*
D10*
X141230000Y-117214000D02*
X141268000Y-117252000D01*
D14*
X95939000Y-101554000D02*
X95939000Y-108539000D01*
D11*
X118627000Y-77453000D02*
X118573000Y-77349000D01*
D10*
X139698000Y-121967000D02*
X140206000Y-121967000D01*
X139168000Y-119355000D02*
X139457000Y-120120000D01*
X149978000Y-112061000D02*
X150052000Y-112025000D01*
D12*
X125474000Y-128700000D02*
X125474000Y-128522000D01*
X154959000Y-128304000D02*
X154839000Y-128423000D01*
D10*
X139892000Y-111276000D02*
X139818000Y-111276000D01*
D11*
X195228000Y-133293000D02*
X195228000Y-133397000D01*
D12*
X125121000Y-127991000D02*
X125002000Y-127991000D01*
D10*
X165957000Y-122657000D02*
X166137000Y-123422000D01*
X99978000Y-82807000D02*
X100052000Y-82734000D01*
X166247000Y-118157000D02*
X166102000Y-118157000D01*
X160344000Y-123056000D02*
X160562000Y-123130000D01*
X140133000Y-120011000D02*
X140171000Y-119902000D01*
D12*
X121469000Y-128464000D02*
X121410000Y-128464000D01*
D10*
X104149000Y-82515000D02*
X104187000Y-82589000D01*
X145444000Y-111713000D02*
X145518000Y-111639000D01*
X144972000Y-123143000D02*
X145010000Y-123105000D01*
X164530000Y-121169000D02*
X164565000Y-121278000D01*
X106760000Y-82541000D02*
X106798000Y-82432000D01*
X139709000Y-111421000D02*
X139709000Y-111568000D01*
X106943000Y-83783000D02*
X106869000Y-83821000D01*
D11*
X103640000Y-128557000D02*
X103691000Y-128453000D01*
D10*
X160379000Y-122729000D02*
X160272000Y-122767000D01*
D14*
X195177000Y-126954000D02*
X195177000Y-124414000D01*
D12*
X153506000Y-128245000D02*
X154037000Y-128245000D01*
D10*
X144718000Y-122210000D02*
X144756000Y-122284000D01*
D11*
X117245000Y-77763000D02*
X116778000Y-77763000D01*
D10*
X165967000Y-113806000D02*
X166038000Y-113879000D01*
X165835000Y-115655000D02*
X165871000Y-115728000D01*
D11*
X100679000Y-100717000D02*
X100836000Y-100560000D01*
D10*
X107232000Y-82284000D02*
X107341000Y-82322000D01*
X140206000Y-121967000D02*
X139843000Y-122731000D01*
X107052000Y-82284000D02*
X107232000Y-82284000D01*
D12*
X121116000Y-128642000D02*
X121055000Y-128820000D01*
X143625000Y-129074000D02*
X144215000Y-129074000D01*
D10*
X158700000Y-122767000D02*
X158627000Y-122729000D01*
D11*
X192289000Y-93199000D02*
X192185000Y-93354000D01*
M02*
