%TF.GenerationSoftware,KiCad,Pcbnew,9.0.2*%
%TF.CreationDate,2025-06-02T23:35:36+05:30*%
%TF.ProjectId,RemoteV2,52656d6f-7465-4563-922e-6b696361645f,rev?*%
%TF.SameCoordinates,Original*%
%TF.FileFunction,Legend,Bot*%
%TF.FilePolarity,Positive*%
%FSLAX46Y46*%
G04 Gerber Fmt 4.6, Leading zero omitted, Abs format (unit mm)*
G04 Created by KiCad (PCBNEW 9.0.2) date 2025-06-02 23:35:36*
%MOMM*%
%LPD*%
G01*
G04 APERTURE LIST*
%ADD10C,0.200000*%
G04 APERTURE END LIST*
D10*
X167177945Y-92487667D02*
X167177945Y-92678143D01*
X166796993Y-92487667D02*
X166796993Y-92678143D01*
X166511278Y-92487667D02*
X165939850Y-92487667D01*
X166225564Y-93487667D02*
X166225564Y-92487667D01*
X165606516Y-93487667D02*
X165606516Y-92487667D01*
X165177945Y-93487667D02*
X165177945Y-92963857D01*
X165177945Y-92963857D02*
X165225564Y-92868619D01*
X165225564Y-92868619D02*
X165320802Y-92821000D01*
X165320802Y-92821000D02*
X165463659Y-92821000D01*
X165463659Y-92821000D02*
X165558897Y-92868619D01*
X165558897Y-92868619D02*
X165606516Y-92916238D01*
X164320802Y-93440048D02*
X164416040Y-93487667D01*
X164416040Y-93487667D02*
X164606516Y-93487667D01*
X164606516Y-93487667D02*
X164701754Y-93440048D01*
X164701754Y-93440048D02*
X164749373Y-93344809D01*
X164749373Y-93344809D02*
X164749373Y-92963857D01*
X164749373Y-92963857D02*
X164701754Y-92868619D01*
X164701754Y-92868619D02*
X164606516Y-92821000D01*
X164606516Y-92821000D02*
X164416040Y-92821000D01*
X164416040Y-92821000D02*
X164320802Y-92868619D01*
X164320802Y-92868619D02*
X164273183Y-92963857D01*
X164273183Y-92963857D02*
X164273183Y-93059095D01*
X164273183Y-93059095D02*
X164749373Y-93154333D01*
X163130325Y-93440048D02*
X163035087Y-93487667D01*
X163035087Y-93487667D02*
X162844611Y-93487667D01*
X162844611Y-93487667D02*
X162749373Y-93440048D01*
X162749373Y-93440048D02*
X162701754Y-93344809D01*
X162701754Y-93344809D02*
X162701754Y-93297190D01*
X162701754Y-93297190D02*
X162749373Y-93201952D01*
X162749373Y-93201952D02*
X162844611Y-93154333D01*
X162844611Y-93154333D02*
X162987468Y-93154333D01*
X162987468Y-93154333D02*
X163082706Y-93106714D01*
X163082706Y-93106714D02*
X163130325Y-93011476D01*
X163130325Y-93011476D02*
X163130325Y-92963857D01*
X163130325Y-92963857D02*
X163082706Y-92868619D01*
X163082706Y-92868619D02*
X162987468Y-92821000D01*
X162987468Y-92821000D02*
X162844611Y-92821000D01*
X162844611Y-92821000D02*
X162749373Y-92868619D01*
X161844611Y-93487667D02*
X161844611Y-92963857D01*
X161844611Y-92963857D02*
X161892230Y-92868619D01*
X161892230Y-92868619D02*
X161987468Y-92821000D01*
X161987468Y-92821000D02*
X162177944Y-92821000D01*
X162177944Y-92821000D02*
X162273182Y-92868619D01*
X161844611Y-93440048D02*
X161939849Y-93487667D01*
X161939849Y-93487667D02*
X162177944Y-93487667D01*
X162177944Y-93487667D02*
X162273182Y-93440048D01*
X162273182Y-93440048D02*
X162320801Y-93344809D01*
X162320801Y-93344809D02*
X162320801Y-93249571D01*
X162320801Y-93249571D02*
X162273182Y-93154333D01*
X162273182Y-93154333D02*
X162177944Y-93106714D01*
X162177944Y-93106714D02*
X161939849Y-93106714D01*
X161939849Y-93106714D02*
X161844611Y-93059095D01*
X160939849Y-93487667D02*
X160939849Y-92487667D01*
X160939849Y-93440048D02*
X161035087Y-93487667D01*
X161035087Y-93487667D02*
X161225563Y-93487667D01*
X161225563Y-93487667D02*
X161320801Y-93440048D01*
X161320801Y-93440048D02*
X161368420Y-93392428D01*
X161368420Y-93392428D02*
X161416039Y-93297190D01*
X161416039Y-93297190D02*
X161416039Y-93011476D01*
X161416039Y-93011476D02*
X161368420Y-92916238D01*
X161368420Y-92916238D02*
X161320801Y-92868619D01*
X161320801Y-92868619D02*
X161225563Y-92821000D01*
X161225563Y-92821000D02*
X161035087Y-92821000D01*
X161035087Y-92821000D02*
X160939849Y-92868619D01*
X160035087Y-93487667D02*
X160035087Y-92487667D01*
X160035087Y-93440048D02*
X160130325Y-93487667D01*
X160130325Y-93487667D02*
X160320801Y-93487667D01*
X160320801Y-93487667D02*
X160416039Y-93440048D01*
X160416039Y-93440048D02*
X160463658Y-93392428D01*
X160463658Y-93392428D02*
X160511277Y-93297190D01*
X160511277Y-93297190D02*
X160511277Y-93011476D01*
X160511277Y-93011476D02*
X160463658Y-92916238D01*
X160463658Y-92916238D02*
X160416039Y-92868619D01*
X160416039Y-92868619D02*
X160320801Y-92821000D01*
X160320801Y-92821000D02*
X160130325Y-92821000D01*
X160130325Y-92821000D02*
X160035087Y-92868619D01*
X159177944Y-93440048D02*
X159273182Y-93487667D01*
X159273182Y-93487667D02*
X159463658Y-93487667D01*
X159463658Y-93487667D02*
X159558896Y-93440048D01*
X159558896Y-93440048D02*
X159606515Y-93344809D01*
X159606515Y-93344809D02*
X159606515Y-92963857D01*
X159606515Y-92963857D02*
X159558896Y-92868619D01*
X159558896Y-92868619D02*
X159463658Y-92821000D01*
X159463658Y-92821000D02*
X159273182Y-92821000D01*
X159273182Y-92821000D02*
X159177944Y-92868619D01*
X159177944Y-92868619D02*
X159130325Y-92963857D01*
X159130325Y-92963857D02*
X159130325Y-93059095D01*
X159130325Y-93059095D02*
X159606515Y-93154333D01*
X158749372Y-93440048D02*
X158654134Y-93487667D01*
X158654134Y-93487667D02*
X158463658Y-93487667D01*
X158463658Y-93487667D02*
X158368420Y-93440048D01*
X158368420Y-93440048D02*
X158320801Y-93344809D01*
X158320801Y-93344809D02*
X158320801Y-93297190D01*
X158320801Y-93297190D02*
X158368420Y-93201952D01*
X158368420Y-93201952D02*
X158463658Y-93154333D01*
X158463658Y-93154333D02*
X158606515Y-93154333D01*
X158606515Y-93154333D02*
X158701753Y-93106714D01*
X158701753Y-93106714D02*
X158749372Y-93011476D01*
X158749372Y-93011476D02*
X158749372Y-92963857D01*
X158749372Y-92963857D02*
X158701753Y-92868619D01*
X158701753Y-92868619D02*
X158606515Y-92821000D01*
X158606515Y-92821000D02*
X158463658Y-92821000D01*
X158463658Y-92821000D02*
X158368420Y-92868619D01*
X158035086Y-92821000D02*
X157654134Y-92821000D01*
X157892229Y-92487667D02*
X157892229Y-93344809D01*
X157892229Y-93344809D02*
X157844610Y-93440048D01*
X157844610Y-93440048D02*
X157749372Y-93487667D01*
X157749372Y-93487667D02*
X157654134Y-93487667D01*
X156130324Y-93487667D02*
X156130324Y-92963857D01*
X156130324Y-92963857D02*
X156177943Y-92868619D01*
X156177943Y-92868619D02*
X156273181Y-92821000D01*
X156273181Y-92821000D02*
X156463657Y-92821000D01*
X156463657Y-92821000D02*
X156558895Y-92868619D01*
X156130324Y-93440048D02*
X156225562Y-93487667D01*
X156225562Y-93487667D02*
X156463657Y-93487667D01*
X156463657Y-93487667D02*
X156558895Y-93440048D01*
X156558895Y-93440048D02*
X156606514Y-93344809D01*
X156606514Y-93344809D02*
X156606514Y-93249571D01*
X156606514Y-93249571D02*
X156558895Y-93154333D01*
X156558895Y-93154333D02*
X156463657Y-93106714D01*
X156463657Y-93106714D02*
X156225562Y-93106714D01*
X156225562Y-93106714D02*
X156130324Y-93059095D01*
X155701752Y-93440048D02*
X155606514Y-93487667D01*
X155606514Y-93487667D02*
X155416038Y-93487667D01*
X155416038Y-93487667D02*
X155320800Y-93440048D01*
X155320800Y-93440048D02*
X155273181Y-93344809D01*
X155273181Y-93344809D02*
X155273181Y-93297190D01*
X155273181Y-93297190D02*
X155320800Y-93201952D01*
X155320800Y-93201952D02*
X155416038Y-93154333D01*
X155416038Y-93154333D02*
X155558895Y-93154333D01*
X155558895Y-93154333D02*
X155654133Y-93106714D01*
X155654133Y-93106714D02*
X155701752Y-93011476D01*
X155701752Y-93011476D02*
X155701752Y-92963857D01*
X155701752Y-92963857D02*
X155654133Y-92868619D01*
X155654133Y-92868619D02*
X155558895Y-92821000D01*
X155558895Y-92821000D02*
X155416038Y-92821000D01*
X155416038Y-92821000D02*
X155320800Y-92868619D01*
X154844609Y-92821000D02*
X154844609Y-93821000D01*
X154844609Y-92868619D02*
X154749371Y-92821000D01*
X154749371Y-92821000D02*
X154558895Y-92821000D01*
X154558895Y-92821000D02*
X154463657Y-92868619D01*
X154463657Y-92868619D02*
X154416038Y-92916238D01*
X154416038Y-92916238D02*
X154368419Y-93011476D01*
X154368419Y-93011476D02*
X154368419Y-93297190D01*
X154368419Y-93297190D02*
X154416038Y-93392428D01*
X154416038Y-93392428D02*
X154463657Y-93440048D01*
X154463657Y-93440048D02*
X154558895Y-93487667D01*
X154558895Y-93487667D02*
X154749371Y-93487667D01*
X154749371Y-93487667D02*
X154844609Y-93440048D01*
X153558895Y-93440048D02*
X153654133Y-93487667D01*
X153654133Y-93487667D02*
X153844609Y-93487667D01*
X153844609Y-93487667D02*
X153939847Y-93440048D01*
X153939847Y-93440048D02*
X153987466Y-93344809D01*
X153987466Y-93344809D02*
X153987466Y-92963857D01*
X153987466Y-92963857D02*
X153939847Y-92868619D01*
X153939847Y-92868619D02*
X153844609Y-92821000D01*
X153844609Y-92821000D02*
X153654133Y-92821000D01*
X153654133Y-92821000D02*
X153558895Y-92868619D01*
X153558895Y-92868619D02*
X153511276Y-92963857D01*
X153511276Y-92963857D02*
X153511276Y-93059095D01*
X153511276Y-93059095D02*
X153987466Y-93154333D01*
X152654133Y-93440048D02*
X152749371Y-93487667D01*
X152749371Y-93487667D02*
X152939847Y-93487667D01*
X152939847Y-93487667D02*
X153035085Y-93440048D01*
X153035085Y-93440048D02*
X153082704Y-93392428D01*
X153082704Y-93392428D02*
X153130323Y-93297190D01*
X153130323Y-93297190D02*
X153130323Y-93011476D01*
X153130323Y-93011476D02*
X153082704Y-92916238D01*
X153082704Y-92916238D02*
X153035085Y-92868619D01*
X153035085Y-92868619D02*
X152939847Y-92821000D01*
X152939847Y-92821000D02*
X152749371Y-92821000D01*
X152749371Y-92821000D02*
X152654133Y-92868619D01*
X152368418Y-92821000D02*
X151987466Y-92821000D01*
X152225561Y-92487667D02*
X152225561Y-93344809D01*
X152225561Y-93344809D02*
X152177942Y-93440048D01*
X152177942Y-93440048D02*
X152082704Y-93487667D01*
X152082704Y-93487667D02*
X151987466Y-93487667D01*
X150749370Y-93487667D02*
X150844608Y-93440048D01*
X150844608Y-93440048D02*
X150892227Y-93392428D01*
X150892227Y-93392428D02*
X150939846Y-93297190D01*
X150939846Y-93297190D02*
X150939846Y-93011476D01*
X150939846Y-93011476D02*
X150892227Y-92916238D01*
X150892227Y-92916238D02*
X150844608Y-92868619D01*
X150844608Y-92868619D02*
X150749370Y-92821000D01*
X150749370Y-92821000D02*
X150606513Y-92821000D01*
X150606513Y-92821000D02*
X150511275Y-92868619D01*
X150511275Y-92868619D02*
X150463656Y-92916238D01*
X150463656Y-92916238D02*
X150416037Y-93011476D01*
X150416037Y-93011476D02*
X150416037Y-93297190D01*
X150416037Y-93297190D02*
X150463656Y-93392428D01*
X150463656Y-93392428D02*
X150511275Y-93440048D01*
X150511275Y-93440048D02*
X150606513Y-93487667D01*
X150606513Y-93487667D02*
X150749370Y-93487667D01*
X150130322Y-92821000D02*
X149749370Y-92821000D01*
X149987465Y-93487667D02*
X149987465Y-92630524D01*
X149987465Y-92630524D02*
X149939846Y-92535286D01*
X149939846Y-92535286D02*
X149844608Y-92487667D01*
X149844608Y-92487667D02*
X149749370Y-92487667D01*
X148511274Y-93487667D02*
X148606512Y-93440048D01*
X148606512Y-93440048D02*
X148654131Y-93344809D01*
X148654131Y-93344809D02*
X148654131Y-92487667D01*
X148130321Y-93487667D02*
X148130321Y-92821000D01*
X148130321Y-92487667D02*
X148177940Y-92535286D01*
X148177940Y-92535286D02*
X148130321Y-92582905D01*
X148130321Y-92582905D02*
X148082702Y-92535286D01*
X148082702Y-92535286D02*
X148130321Y-92487667D01*
X148130321Y-92487667D02*
X148130321Y-92582905D01*
X147796988Y-92821000D02*
X147416036Y-92821000D01*
X147654131Y-93487667D02*
X147654131Y-92630524D01*
X147654131Y-92630524D02*
X147606512Y-92535286D01*
X147606512Y-92535286D02*
X147511274Y-92487667D01*
X147511274Y-92487667D02*
X147416036Y-92487667D01*
X146701750Y-93440048D02*
X146796988Y-93487667D01*
X146796988Y-93487667D02*
X146987464Y-93487667D01*
X146987464Y-93487667D02*
X147082702Y-93440048D01*
X147082702Y-93440048D02*
X147130321Y-93344809D01*
X147130321Y-93344809D02*
X147130321Y-92963857D01*
X147130321Y-92963857D02*
X147082702Y-92868619D01*
X147082702Y-92868619D02*
X146987464Y-92821000D01*
X146987464Y-92821000D02*
X146796988Y-92821000D01*
X146796988Y-92821000D02*
X146701750Y-92868619D01*
X146701750Y-92868619D02*
X146654131Y-92963857D01*
X146654131Y-92963857D02*
X146654131Y-93059095D01*
X146654131Y-93059095D02*
X147130321Y-93154333D01*
X145463654Y-93487667D02*
X145463654Y-92821000D01*
X145463654Y-93011476D02*
X145416035Y-92916238D01*
X145416035Y-92916238D02*
X145368416Y-92868619D01*
X145368416Y-92868619D02*
X145273178Y-92821000D01*
X145273178Y-92821000D02*
X145177940Y-92821000D01*
X144844606Y-93487667D02*
X144844606Y-92821000D01*
X144844606Y-92487667D02*
X144892225Y-92535286D01*
X144892225Y-92535286D02*
X144844606Y-92582905D01*
X144844606Y-92582905D02*
X144796987Y-92535286D01*
X144796987Y-92535286D02*
X144844606Y-92487667D01*
X144844606Y-92487667D02*
X144844606Y-92582905D01*
X143939845Y-92821000D02*
X143939845Y-93630524D01*
X143939845Y-93630524D02*
X143987464Y-93725762D01*
X143987464Y-93725762D02*
X144035083Y-93773381D01*
X144035083Y-93773381D02*
X144130321Y-93821000D01*
X144130321Y-93821000D02*
X144273178Y-93821000D01*
X144273178Y-93821000D02*
X144368416Y-93773381D01*
X143939845Y-93440048D02*
X144035083Y-93487667D01*
X144035083Y-93487667D02*
X144225559Y-93487667D01*
X144225559Y-93487667D02*
X144320797Y-93440048D01*
X144320797Y-93440048D02*
X144368416Y-93392428D01*
X144368416Y-93392428D02*
X144416035Y-93297190D01*
X144416035Y-93297190D02*
X144416035Y-93011476D01*
X144416035Y-93011476D02*
X144368416Y-92916238D01*
X144368416Y-92916238D02*
X144320797Y-92868619D01*
X144320797Y-92868619D02*
X144225559Y-92821000D01*
X144225559Y-92821000D02*
X144035083Y-92821000D01*
X144035083Y-92821000D02*
X143939845Y-92868619D01*
X143463654Y-93487667D02*
X143463654Y-92487667D01*
X143035083Y-93487667D02*
X143035083Y-92963857D01*
X143035083Y-92963857D02*
X143082702Y-92868619D01*
X143082702Y-92868619D02*
X143177940Y-92821000D01*
X143177940Y-92821000D02*
X143320797Y-92821000D01*
X143320797Y-92821000D02*
X143416035Y-92868619D01*
X143416035Y-92868619D02*
X143463654Y-92916238D01*
X142701749Y-92821000D02*
X142320797Y-92821000D01*
X142558892Y-92487667D02*
X142558892Y-93344809D01*
X142558892Y-93344809D02*
X142511273Y-93440048D01*
X142511273Y-93440048D02*
X142416035Y-93487667D01*
X142416035Y-93487667D02*
X142320797Y-93487667D01*
X141225558Y-92821000D02*
X141225558Y-93487667D01*
X141225558Y-92916238D02*
X141177939Y-92868619D01*
X141177939Y-92868619D02*
X141082701Y-92821000D01*
X141082701Y-92821000D02*
X140939844Y-92821000D01*
X140939844Y-92821000D02*
X140844606Y-92868619D01*
X140844606Y-92868619D02*
X140796987Y-92963857D01*
X140796987Y-92963857D02*
X140796987Y-93487667D01*
X140177939Y-93487667D02*
X140273177Y-93440048D01*
X140273177Y-93440048D02*
X140320796Y-93392428D01*
X140320796Y-93392428D02*
X140368415Y-93297190D01*
X140368415Y-93297190D02*
X140368415Y-93011476D01*
X140368415Y-93011476D02*
X140320796Y-92916238D01*
X140320796Y-92916238D02*
X140273177Y-92868619D01*
X140273177Y-92868619D02*
X140177939Y-92821000D01*
X140177939Y-92821000D02*
X140035082Y-92821000D01*
X140035082Y-92821000D02*
X139939844Y-92868619D01*
X139939844Y-92868619D02*
X139892225Y-92916238D01*
X139892225Y-92916238D02*
X139844606Y-93011476D01*
X139844606Y-93011476D02*
X139844606Y-93297190D01*
X139844606Y-93297190D02*
X139892225Y-93392428D01*
X139892225Y-93392428D02*
X139939844Y-93440048D01*
X139939844Y-93440048D02*
X140035082Y-93487667D01*
X140035082Y-93487667D02*
X140177939Y-93487667D01*
X139511272Y-92821000D02*
X139320796Y-93487667D01*
X139320796Y-93487667D02*
X139130320Y-93011476D01*
X139130320Y-93011476D02*
X138939844Y-93487667D01*
X138939844Y-93487667D02*
X138749368Y-92821000D01*
X137606510Y-93487667D02*
X137606510Y-92821000D01*
X137606510Y-92487667D02*
X137654129Y-92535286D01*
X137654129Y-92535286D02*
X137606510Y-92582905D01*
X137606510Y-92582905D02*
X137558891Y-92535286D01*
X137558891Y-92535286D02*
X137606510Y-92487667D01*
X137606510Y-92487667D02*
X137606510Y-92582905D01*
X137177939Y-93440048D02*
X137082701Y-93487667D01*
X137082701Y-93487667D02*
X136892225Y-93487667D01*
X136892225Y-93487667D02*
X136796987Y-93440048D01*
X136796987Y-93440048D02*
X136749368Y-93344809D01*
X136749368Y-93344809D02*
X136749368Y-93297190D01*
X136749368Y-93297190D02*
X136796987Y-93201952D01*
X136796987Y-93201952D02*
X136892225Y-93154333D01*
X136892225Y-93154333D02*
X137035082Y-93154333D01*
X137035082Y-93154333D02*
X137130320Y-93106714D01*
X137130320Y-93106714D02*
X137177939Y-93011476D01*
X137177939Y-93011476D02*
X137177939Y-92963857D01*
X137177939Y-92963857D02*
X137130320Y-92868619D01*
X137130320Y-92868619D02*
X137035082Y-92821000D01*
X137035082Y-92821000D02*
X136892225Y-92821000D01*
X136892225Y-92821000D02*
X136796987Y-92868619D01*
X135701748Y-92821000D02*
X135320796Y-92821000D01*
X135558891Y-92487667D02*
X135558891Y-93344809D01*
X135558891Y-93344809D02*
X135511272Y-93440048D01*
X135511272Y-93440048D02*
X135416034Y-93487667D01*
X135416034Y-93487667D02*
X135320796Y-93487667D01*
X134987462Y-93487667D02*
X134987462Y-92487667D01*
X134558891Y-93487667D02*
X134558891Y-92963857D01*
X134558891Y-92963857D02*
X134606510Y-92868619D01*
X134606510Y-92868619D02*
X134701748Y-92821000D01*
X134701748Y-92821000D02*
X134844605Y-92821000D01*
X134844605Y-92821000D02*
X134939843Y-92868619D01*
X134939843Y-92868619D02*
X134987462Y-92916238D01*
X133654129Y-93487667D02*
X133654129Y-92963857D01*
X133654129Y-92963857D02*
X133701748Y-92868619D01*
X133701748Y-92868619D02*
X133796986Y-92821000D01*
X133796986Y-92821000D02*
X133987462Y-92821000D01*
X133987462Y-92821000D02*
X134082700Y-92868619D01*
X133654129Y-93440048D02*
X133749367Y-93487667D01*
X133749367Y-93487667D02*
X133987462Y-93487667D01*
X133987462Y-93487667D02*
X134082700Y-93440048D01*
X134082700Y-93440048D02*
X134130319Y-93344809D01*
X134130319Y-93344809D02*
X134130319Y-93249571D01*
X134130319Y-93249571D02*
X134082700Y-93154333D01*
X134082700Y-93154333D02*
X133987462Y-93106714D01*
X133987462Y-93106714D02*
X133749367Y-93106714D01*
X133749367Y-93106714D02*
X133654129Y-93059095D01*
X133320795Y-92821000D02*
X132939843Y-92821000D01*
X133177938Y-92487667D02*
X133177938Y-93344809D01*
X133177938Y-93344809D02*
X133130319Y-93440048D01*
X133130319Y-93440048D02*
X133035081Y-93487667D01*
X133035081Y-93487667D02*
X132939843Y-93487667D01*
X131892223Y-93440048D02*
X131796985Y-93487667D01*
X131796985Y-93487667D02*
X131606509Y-93487667D01*
X131606509Y-93487667D02*
X131511271Y-93440048D01*
X131511271Y-93440048D02*
X131463652Y-93344809D01*
X131463652Y-93344809D02*
X131463652Y-93297190D01*
X131463652Y-93297190D02*
X131511271Y-93201952D01*
X131511271Y-93201952D02*
X131606509Y-93154333D01*
X131606509Y-93154333D02*
X131749366Y-93154333D01*
X131749366Y-93154333D02*
X131844604Y-93106714D01*
X131844604Y-93106714D02*
X131892223Y-93011476D01*
X131892223Y-93011476D02*
X131892223Y-92963857D01*
X131892223Y-92963857D02*
X131844604Y-92868619D01*
X131844604Y-92868619D02*
X131749366Y-92821000D01*
X131749366Y-92821000D02*
X131606509Y-92821000D01*
X131606509Y-92821000D02*
X131511271Y-92868619D01*
X130606509Y-93440048D02*
X130701747Y-93487667D01*
X130701747Y-93487667D02*
X130892223Y-93487667D01*
X130892223Y-93487667D02*
X130987461Y-93440048D01*
X130987461Y-93440048D02*
X131035080Y-93392428D01*
X131035080Y-93392428D02*
X131082699Y-93297190D01*
X131082699Y-93297190D02*
X131082699Y-93011476D01*
X131082699Y-93011476D02*
X131035080Y-92916238D01*
X131035080Y-92916238D02*
X130987461Y-92868619D01*
X130987461Y-92868619D02*
X130892223Y-92821000D01*
X130892223Y-92821000D02*
X130701747Y-92821000D01*
X130701747Y-92821000D02*
X130606509Y-92868619D01*
X130177937Y-93487667D02*
X130177937Y-92821000D01*
X130177937Y-92487667D02*
X130225556Y-92535286D01*
X130225556Y-92535286D02*
X130177937Y-92582905D01*
X130177937Y-92582905D02*
X130130318Y-92535286D01*
X130130318Y-92535286D02*
X130177937Y-92487667D01*
X130177937Y-92487667D02*
X130177937Y-92582905D01*
X129320795Y-93440048D02*
X129416033Y-93487667D01*
X129416033Y-93487667D02*
X129606509Y-93487667D01*
X129606509Y-93487667D02*
X129701747Y-93440048D01*
X129701747Y-93440048D02*
X129749366Y-93344809D01*
X129749366Y-93344809D02*
X129749366Y-92963857D01*
X129749366Y-92963857D02*
X129701747Y-92868619D01*
X129701747Y-92868619D02*
X129606509Y-92821000D01*
X129606509Y-92821000D02*
X129416033Y-92821000D01*
X129416033Y-92821000D02*
X129320795Y-92868619D01*
X129320795Y-92868619D02*
X129273176Y-92963857D01*
X129273176Y-92963857D02*
X129273176Y-93059095D01*
X129273176Y-93059095D02*
X129749366Y-93154333D01*
X128844604Y-92821000D02*
X128844604Y-93487667D01*
X128844604Y-92916238D02*
X128796985Y-92868619D01*
X128796985Y-92868619D02*
X128701747Y-92821000D01*
X128701747Y-92821000D02*
X128558890Y-92821000D01*
X128558890Y-92821000D02*
X128463652Y-92868619D01*
X128463652Y-92868619D02*
X128416033Y-92963857D01*
X128416033Y-92963857D02*
X128416033Y-93487667D01*
X127511271Y-93440048D02*
X127606509Y-93487667D01*
X127606509Y-93487667D02*
X127796985Y-93487667D01*
X127796985Y-93487667D02*
X127892223Y-93440048D01*
X127892223Y-93440048D02*
X127939842Y-93392428D01*
X127939842Y-93392428D02*
X127987461Y-93297190D01*
X127987461Y-93297190D02*
X127987461Y-93011476D01*
X127987461Y-93011476D02*
X127939842Y-92916238D01*
X127939842Y-92916238D02*
X127892223Y-92868619D01*
X127892223Y-92868619D02*
X127796985Y-92821000D01*
X127796985Y-92821000D02*
X127606509Y-92821000D01*
X127606509Y-92821000D02*
X127511271Y-92868619D01*
X126701747Y-93440048D02*
X126796985Y-93487667D01*
X126796985Y-93487667D02*
X126987461Y-93487667D01*
X126987461Y-93487667D02*
X127082699Y-93440048D01*
X127082699Y-93440048D02*
X127130318Y-93344809D01*
X127130318Y-93344809D02*
X127130318Y-92963857D01*
X127130318Y-92963857D02*
X127082699Y-92868619D01*
X127082699Y-92868619D02*
X126987461Y-92821000D01*
X126987461Y-92821000D02*
X126796985Y-92821000D01*
X126796985Y-92821000D02*
X126701747Y-92868619D01*
X126701747Y-92868619D02*
X126654128Y-92963857D01*
X126654128Y-92963857D02*
X126654128Y-93059095D01*
X126654128Y-93059095D02*
X127130318Y-93154333D01*
X125035080Y-92821000D02*
X125035080Y-93630524D01*
X125035080Y-93630524D02*
X125082699Y-93725762D01*
X125082699Y-93725762D02*
X125130318Y-93773381D01*
X125130318Y-93773381D02*
X125225556Y-93821000D01*
X125225556Y-93821000D02*
X125368413Y-93821000D01*
X125368413Y-93821000D02*
X125463651Y-93773381D01*
X125035080Y-93440048D02*
X125130318Y-93487667D01*
X125130318Y-93487667D02*
X125320794Y-93487667D01*
X125320794Y-93487667D02*
X125416032Y-93440048D01*
X125416032Y-93440048D02*
X125463651Y-93392428D01*
X125463651Y-93392428D02*
X125511270Y-93297190D01*
X125511270Y-93297190D02*
X125511270Y-93011476D01*
X125511270Y-93011476D02*
X125463651Y-92916238D01*
X125463651Y-92916238D02*
X125416032Y-92868619D01*
X125416032Y-92868619D02*
X125320794Y-92821000D01*
X125320794Y-92821000D02*
X125130318Y-92821000D01*
X125130318Y-92821000D02*
X125035080Y-92868619D01*
X124130318Y-93487667D02*
X124130318Y-92963857D01*
X124130318Y-92963857D02*
X124177937Y-92868619D01*
X124177937Y-92868619D02*
X124273175Y-92821000D01*
X124273175Y-92821000D02*
X124463651Y-92821000D01*
X124463651Y-92821000D02*
X124558889Y-92868619D01*
X124130318Y-93440048D02*
X124225556Y-93487667D01*
X124225556Y-93487667D02*
X124463651Y-93487667D01*
X124463651Y-93487667D02*
X124558889Y-93440048D01*
X124558889Y-93440048D02*
X124606508Y-93344809D01*
X124606508Y-93344809D02*
X124606508Y-93249571D01*
X124606508Y-93249571D02*
X124558889Y-93154333D01*
X124558889Y-93154333D02*
X124463651Y-93106714D01*
X124463651Y-93106714D02*
X124225556Y-93106714D01*
X124225556Y-93106714D02*
X124130318Y-93059095D01*
X123796984Y-92821000D02*
X123416032Y-92821000D01*
X123654127Y-92487667D02*
X123654127Y-93344809D01*
X123654127Y-93344809D02*
X123606508Y-93440048D01*
X123606508Y-93440048D02*
X123511270Y-93487667D01*
X123511270Y-93487667D02*
X123416032Y-93487667D01*
X123082698Y-93487667D02*
X123082698Y-92487667D01*
X122654127Y-93487667D02*
X122654127Y-92963857D01*
X122654127Y-92963857D02*
X122701746Y-92868619D01*
X122701746Y-92868619D02*
X122796984Y-92821000D01*
X122796984Y-92821000D02*
X122939841Y-92821000D01*
X122939841Y-92821000D02*
X123035079Y-92868619D01*
X123035079Y-92868619D02*
X123082698Y-92916238D01*
X121796984Y-93440048D02*
X121892222Y-93487667D01*
X121892222Y-93487667D02*
X122082698Y-93487667D01*
X122082698Y-93487667D02*
X122177936Y-93440048D01*
X122177936Y-93440048D02*
X122225555Y-93344809D01*
X122225555Y-93344809D02*
X122225555Y-92963857D01*
X122225555Y-92963857D02*
X122177936Y-92868619D01*
X122177936Y-92868619D02*
X122082698Y-92821000D01*
X122082698Y-92821000D02*
X121892222Y-92821000D01*
X121892222Y-92821000D02*
X121796984Y-92868619D01*
X121796984Y-92868619D02*
X121749365Y-92963857D01*
X121749365Y-92963857D02*
X121749365Y-93059095D01*
X121749365Y-93059095D02*
X122225555Y-93154333D01*
X121320793Y-93487667D02*
X121320793Y-92821000D01*
X121320793Y-93011476D02*
X121273174Y-92916238D01*
X121273174Y-92916238D02*
X121225555Y-92868619D01*
X121225555Y-92868619D02*
X121130317Y-92821000D01*
X121130317Y-92821000D02*
X121035079Y-92821000D01*
X120749364Y-93440048D02*
X120654126Y-93487667D01*
X120654126Y-93487667D02*
X120463650Y-93487667D01*
X120463650Y-93487667D02*
X120368412Y-93440048D01*
X120368412Y-93440048D02*
X120320793Y-93344809D01*
X120320793Y-93344809D02*
X120320793Y-93297190D01*
X120320793Y-93297190D02*
X120368412Y-93201952D01*
X120368412Y-93201952D02*
X120463650Y-93154333D01*
X120463650Y-93154333D02*
X120606507Y-93154333D01*
X120606507Y-93154333D02*
X120701745Y-93106714D01*
X120701745Y-93106714D02*
X120749364Y-93011476D01*
X120749364Y-93011476D02*
X120749364Y-92963857D01*
X120749364Y-92963857D02*
X120701745Y-92868619D01*
X120701745Y-92868619D02*
X120606507Y-92821000D01*
X120606507Y-92821000D02*
X120463650Y-92821000D01*
X120463650Y-92821000D02*
X120368412Y-92868619D01*
X119130316Y-93487667D02*
X119130316Y-92487667D01*
X119035078Y-93106714D02*
X118749364Y-93487667D01*
X118749364Y-92821000D02*
X119130316Y-93201952D01*
X118320792Y-92821000D02*
X118320792Y-93487667D01*
X118320792Y-92916238D02*
X118273173Y-92868619D01*
X118273173Y-92868619D02*
X118177935Y-92821000D01*
X118177935Y-92821000D02*
X118035078Y-92821000D01*
X118035078Y-92821000D02*
X117939840Y-92868619D01*
X117939840Y-92868619D02*
X117892221Y-92963857D01*
X117892221Y-92963857D02*
X117892221Y-93487667D01*
X117273173Y-93487667D02*
X117368411Y-93440048D01*
X117368411Y-93440048D02*
X117416030Y-93392428D01*
X117416030Y-93392428D02*
X117463649Y-93297190D01*
X117463649Y-93297190D02*
X117463649Y-93011476D01*
X117463649Y-93011476D02*
X117416030Y-92916238D01*
X117416030Y-92916238D02*
X117368411Y-92868619D01*
X117368411Y-92868619D02*
X117273173Y-92821000D01*
X117273173Y-92821000D02*
X117130316Y-92821000D01*
X117130316Y-92821000D02*
X117035078Y-92868619D01*
X117035078Y-92868619D02*
X116987459Y-92916238D01*
X116987459Y-92916238D02*
X116939840Y-93011476D01*
X116939840Y-93011476D02*
X116939840Y-93297190D01*
X116939840Y-93297190D02*
X116987459Y-93392428D01*
X116987459Y-93392428D02*
X117035078Y-93440048D01*
X117035078Y-93440048D02*
X117130316Y-93487667D01*
X117130316Y-93487667D02*
X117273173Y-93487667D01*
X116606506Y-92821000D02*
X116416030Y-93487667D01*
X116416030Y-93487667D02*
X116225554Y-93011476D01*
X116225554Y-93011476D02*
X116035078Y-93487667D01*
X116035078Y-93487667D02*
X115844602Y-92821000D01*
X115320792Y-93487667D02*
X115416030Y-93440048D01*
X115416030Y-93440048D02*
X115463649Y-93344809D01*
X115463649Y-93344809D02*
X115463649Y-92487667D01*
X114558887Y-93440048D02*
X114654125Y-93487667D01*
X114654125Y-93487667D02*
X114844601Y-93487667D01*
X114844601Y-93487667D02*
X114939839Y-93440048D01*
X114939839Y-93440048D02*
X114987458Y-93344809D01*
X114987458Y-93344809D02*
X114987458Y-92963857D01*
X114987458Y-92963857D02*
X114939839Y-92868619D01*
X114939839Y-92868619D02*
X114844601Y-92821000D01*
X114844601Y-92821000D02*
X114654125Y-92821000D01*
X114654125Y-92821000D02*
X114558887Y-92868619D01*
X114558887Y-92868619D02*
X114511268Y-92963857D01*
X114511268Y-92963857D02*
X114511268Y-93059095D01*
X114511268Y-93059095D02*
X114987458Y-93154333D01*
X113654125Y-93487667D02*
X113654125Y-92487667D01*
X113654125Y-93440048D02*
X113749363Y-93487667D01*
X113749363Y-93487667D02*
X113939839Y-93487667D01*
X113939839Y-93487667D02*
X114035077Y-93440048D01*
X114035077Y-93440048D02*
X114082696Y-93392428D01*
X114082696Y-93392428D02*
X114130315Y-93297190D01*
X114130315Y-93297190D02*
X114130315Y-93011476D01*
X114130315Y-93011476D02*
X114082696Y-92916238D01*
X114082696Y-92916238D02*
X114035077Y-92868619D01*
X114035077Y-92868619D02*
X113939839Y-92821000D01*
X113939839Y-92821000D02*
X113749363Y-92821000D01*
X113749363Y-92821000D02*
X113654125Y-92868619D01*
X112749363Y-92821000D02*
X112749363Y-93630524D01*
X112749363Y-93630524D02*
X112796982Y-93725762D01*
X112796982Y-93725762D02*
X112844601Y-93773381D01*
X112844601Y-93773381D02*
X112939839Y-93821000D01*
X112939839Y-93821000D02*
X113082696Y-93821000D01*
X113082696Y-93821000D02*
X113177934Y-93773381D01*
X112749363Y-93440048D02*
X112844601Y-93487667D01*
X112844601Y-93487667D02*
X113035077Y-93487667D01*
X113035077Y-93487667D02*
X113130315Y-93440048D01*
X113130315Y-93440048D02*
X113177934Y-93392428D01*
X113177934Y-93392428D02*
X113225553Y-93297190D01*
X113225553Y-93297190D02*
X113225553Y-93011476D01*
X113225553Y-93011476D02*
X113177934Y-92916238D01*
X113177934Y-92916238D02*
X113130315Y-92868619D01*
X113130315Y-92868619D02*
X113035077Y-92821000D01*
X113035077Y-92821000D02*
X112844601Y-92821000D01*
X112844601Y-92821000D02*
X112749363Y-92868619D01*
X111892220Y-93440048D02*
X111987458Y-93487667D01*
X111987458Y-93487667D02*
X112177934Y-93487667D01*
X112177934Y-93487667D02*
X112273172Y-93440048D01*
X112273172Y-93440048D02*
X112320791Y-93344809D01*
X112320791Y-93344809D02*
X112320791Y-92963857D01*
X112320791Y-92963857D02*
X112273172Y-92868619D01*
X112273172Y-92868619D02*
X112177934Y-92821000D01*
X112177934Y-92821000D02*
X111987458Y-92821000D01*
X111987458Y-92821000D02*
X111892220Y-92868619D01*
X111892220Y-92868619D02*
X111844601Y-92963857D01*
X111844601Y-92963857D02*
X111844601Y-93059095D01*
X111844601Y-93059095D02*
X112320791Y-93154333D01*
X166511278Y-94430944D02*
X166130326Y-94430944D01*
X166368421Y-95097611D02*
X166368421Y-94240468D01*
X166368421Y-94240468D02*
X166320802Y-94145230D01*
X166320802Y-94145230D02*
X166225564Y-94097611D01*
X166225564Y-94097611D02*
X166130326Y-94097611D01*
X165368421Y-95097611D02*
X165368421Y-94573801D01*
X165368421Y-94573801D02*
X165416040Y-94478563D01*
X165416040Y-94478563D02*
X165511278Y-94430944D01*
X165511278Y-94430944D02*
X165701754Y-94430944D01*
X165701754Y-94430944D02*
X165796992Y-94478563D01*
X165368421Y-95049992D02*
X165463659Y-95097611D01*
X165463659Y-95097611D02*
X165701754Y-95097611D01*
X165701754Y-95097611D02*
X165796992Y-95049992D01*
X165796992Y-95049992D02*
X165844611Y-94954753D01*
X165844611Y-94954753D02*
X165844611Y-94859515D01*
X165844611Y-94859515D02*
X165796992Y-94764277D01*
X165796992Y-94764277D02*
X165701754Y-94716658D01*
X165701754Y-94716658D02*
X165463659Y-94716658D01*
X165463659Y-94716658D02*
X165368421Y-94669039D01*
X164939849Y-95049992D02*
X164844611Y-95097611D01*
X164844611Y-95097611D02*
X164654135Y-95097611D01*
X164654135Y-95097611D02*
X164558897Y-95049992D01*
X164558897Y-95049992D02*
X164511278Y-94954753D01*
X164511278Y-94954753D02*
X164511278Y-94907134D01*
X164511278Y-94907134D02*
X164558897Y-94811896D01*
X164558897Y-94811896D02*
X164654135Y-94764277D01*
X164654135Y-94764277D02*
X164796992Y-94764277D01*
X164796992Y-94764277D02*
X164892230Y-94716658D01*
X164892230Y-94716658D02*
X164939849Y-94621420D01*
X164939849Y-94621420D02*
X164939849Y-94573801D01*
X164939849Y-94573801D02*
X164892230Y-94478563D01*
X164892230Y-94478563D02*
X164796992Y-94430944D01*
X164796992Y-94430944D02*
X164654135Y-94430944D01*
X164654135Y-94430944D02*
X164558897Y-94478563D01*
X164225563Y-94430944D02*
X163844611Y-94430944D01*
X164082706Y-94097611D02*
X164082706Y-94954753D01*
X164082706Y-94954753D02*
X164035087Y-95049992D01*
X164035087Y-95049992D02*
X163939849Y-95097611D01*
X163939849Y-95097611D02*
X163844611Y-95097611D01*
X163130325Y-95049992D02*
X163225563Y-95097611D01*
X163225563Y-95097611D02*
X163416039Y-95097611D01*
X163416039Y-95097611D02*
X163511277Y-95049992D01*
X163511277Y-95049992D02*
X163558896Y-94954753D01*
X163558896Y-94954753D02*
X163558896Y-94573801D01*
X163558896Y-94573801D02*
X163511277Y-94478563D01*
X163511277Y-94478563D02*
X163416039Y-94430944D01*
X163416039Y-94430944D02*
X163225563Y-94430944D01*
X163225563Y-94430944D02*
X163130325Y-94478563D01*
X163130325Y-94478563D02*
X163082706Y-94573801D01*
X163082706Y-94573801D02*
X163082706Y-94669039D01*
X163082706Y-94669039D02*
X163558896Y-94764277D01*
X162654134Y-95097611D02*
X162654134Y-94430944D01*
X162654134Y-94621420D02*
X162606515Y-94526182D01*
X162606515Y-94526182D02*
X162558896Y-94478563D01*
X162558896Y-94478563D02*
X162463658Y-94430944D01*
X162463658Y-94430944D02*
X162368420Y-94430944D01*
X161416038Y-94430944D02*
X161035086Y-94430944D01*
X161273181Y-94097611D02*
X161273181Y-94954753D01*
X161273181Y-94954753D02*
X161225562Y-95049992D01*
X161225562Y-95049992D02*
X161130324Y-95097611D01*
X161130324Y-95097611D02*
X161035086Y-95097611D01*
X160701752Y-95097611D02*
X160701752Y-94097611D01*
X160273181Y-95097611D02*
X160273181Y-94573801D01*
X160273181Y-94573801D02*
X160320800Y-94478563D01*
X160320800Y-94478563D02*
X160416038Y-94430944D01*
X160416038Y-94430944D02*
X160558895Y-94430944D01*
X160558895Y-94430944D02*
X160654133Y-94478563D01*
X160654133Y-94478563D02*
X160701752Y-94526182D01*
X159368419Y-95097611D02*
X159368419Y-94573801D01*
X159368419Y-94573801D02*
X159416038Y-94478563D01*
X159416038Y-94478563D02*
X159511276Y-94430944D01*
X159511276Y-94430944D02*
X159701752Y-94430944D01*
X159701752Y-94430944D02*
X159796990Y-94478563D01*
X159368419Y-95049992D02*
X159463657Y-95097611D01*
X159463657Y-95097611D02*
X159701752Y-95097611D01*
X159701752Y-95097611D02*
X159796990Y-95049992D01*
X159796990Y-95049992D02*
X159844609Y-94954753D01*
X159844609Y-94954753D02*
X159844609Y-94859515D01*
X159844609Y-94859515D02*
X159796990Y-94764277D01*
X159796990Y-94764277D02*
X159701752Y-94716658D01*
X159701752Y-94716658D02*
X159463657Y-94716658D01*
X159463657Y-94716658D02*
X159368419Y-94669039D01*
X158892228Y-94430944D02*
X158892228Y-95097611D01*
X158892228Y-94526182D02*
X158844609Y-94478563D01*
X158844609Y-94478563D02*
X158749371Y-94430944D01*
X158749371Y-94430944D02*
X158606514Y-94430944D01*
X158606514Y-94430944D02*
X158511276Y-94478563D01*
X158511276Y-94478563D02*
X158463657Y-94573801D01*
X158463657Y-94573801D02*
X158463657Y-95097611D01*
X157273180Y-95049992D02*
X157177942Y-95097611D01*
X157177942Y-95097611D02*
X156987466Y-95097611D01*
X156987466Y-95097611D02*
X156892228Y-95049992D01*
X156892228Y-95049992D02*
X156844609Y-94954753D01*
X156844609Y-94954753D02*
X156844609Y-94907134D01*
X156844609Y-94907134D02*
X156892228Y-94811896D01*
X156892228Y-94811896D02*
X156987466Y-94764277D01*
X156987466Y-94764277D02*
X157130323Y-94764277D01*
X157130323Y-94764277D02*
X157225561Y-94716658D01*
X157225561Y-94716658D02*
X157273180Y-94621420D01*
X157273180Y-94621420D02*
X157273180Y-94573801D01*
X157273180Y-94573801D02*
X157225561Y-94478563D01*
X157225561Y-94478563D02*
X157130323Y-94430944D01*
X157130323Y-94430944D02*
X156987466Y-94430944D01*
X156987466Y-94430944D02*
X156892228Y-94478563D01*
X156273180Y-95097611D02*
X156368418Y-95049992D01*
X156368418Y-95049992D02*
X156416037Y-95002372D01*
X156416037Y-95002372D02*
X156463656Y-94907134D01*
X156463656Y-94907134D02*
X156463656Y-94621420D01*
X156463656Y-94621420D02*
X156416037Y-94526182D01*
X156416037Y-94526182D02*
X156368418Y-94478563D01*
X156368418Y-94478563D02*
X156273180Y-94430944D01*
X156273180Y-94430944D02*
X156130323Y-94430944D01*
X156130323Y-94430944D02*
X156035085Y-94478563D01*
X156035085Y-94478563D02*
X155987466Y-94526182D01*
X155987466Y-94526182D02*
X155939847Y-94621420D01*
X155939847Y-94621420D02*
X155939847Y-94907134D01*
X155939847Y-94907134D02*
X155987466Y-95002372D01*
X155987466Y-95002372D02*
X156035085Y-95049992D01*
X156035085Y-95049992D02*
X156130323Y-95097611D01*
X156130323Y-95097611D02*
X156273180Y-95097611D01*
X155082704Y-95049992D02*
X155177942Y-95097611D01*
X155177942Y-95097611D02*
X155368418Y-95097611D01*
X155368418Y-95097611D02*
X155463656Y-95049992D01*
X155463656Y-95049992D02*
X155511275Y-95002372D01*
X155511275Y-95002372D02*
X155558894Y-94907134D01*
X155558894Y-94907134D02*
X155558894Y-94621420D01*
X155558894Y-94621420D02*
X155511275Y-94526182D01*
X155511275Y-94526182D02*
X155463656Y-94478563D01*
X155463656Y-94478563D02*
X155368418Y-94430944D01*
X155368418Y-94430944D02*
X155177942Y-94430944D01*
X155177942Y-94430944D02*
X155082704Y-94478563D01*
X154654132Y-95097611D02*
X154654132Y-94430944D01*
X154654132Y-94097611D02*
X154701751Y-94145230D01*
X154701751Y-94145230D02*
X154654132Y-94192849D01*
X154654132Y-94192849D02*
X154606513Y-94145230D01*
X154606513Y-94145230D02*
X154654132Y-94097611D01*
X154654132Y-94097611D02*
X154654132Y-94192849D01*
X153796990Y-95049992D02*
X153892228Y-95097611D01*
X153892228Y-95097611D02*
X154082704Y-95097611D01*
X154082704Y-95097611D02*
X154177942Y-95049992D01*
X154177942Y-95049992D02*
X154225561Y-94954753D01*
X154225561Y-94954753D02*
X154225561Y-94573801D01*
X154225561Y-94573801D02*
X154177942Y-94478563D01*
X154177942Y-94478563D02*
X154082704Y-94430944D01*
X154082704Y-94430944D02*
X153892228Y-94430944D01*
X153892228Y-94430944D02*
X153796990Y-94478563D01*
X153796990Y-94478563D02*
X153749371Y-94573801D01*
X153749371Y-94573801D02*
X153749371Y-94669039D01*
X153749371Y-94669039D02*
X154225561Y-94764277D01*
X153463656Y-94430944D02*
X153082704Y-94430944D01*
X153320799Y-94097611D02*
X153320799Y-94954753D01*
X153320799Y-94954753D02*
X153273180Y-95049992D01*
X153273180Y-95049992D02*
X153177942Y-95097611D01*
X153177942Y-95097611D02*
X153082704Y-95097611D01*
X152844608Y-94430944D02*
X152606513Y-95097611D01*
X152368418Y-94430944D02*
X152606513Y-95097611D01*
X152606513Y-95097611D02*
X152701751Y-95335706D01*
X152701751Y-95335706D02*
X152749370Y-95383325D01*
X152749370Y-95383325D02*
X152844608Y-95430944D01*
X150796989Y-94430944D02*
X150796989Y-95240468D01*
X150796989Y-95240468D02*
X150844608Y-95335706D01*
X150844608Y-95335706D02*
X150892227Y-95383325D01*
X150892227Y-95383325D02*
X150987465Y-95430944D01*
X150987465Y-95430944D02*
X151130322Y-95430944D01*
X151130322Y-95430944D02*
X151225560Y-95383325D01*
X150796989Y-95049992D02*
X150892227Y-95097611D01*
X150892227Y-95097611D02*
X151082703Y-95097611D01*
X151082703Y-95097611D02*
X151177941Y-95049992D01*
X151177941Y-95049992D02*
X151225560Y-95002372D01*
X151225560Y-95002372D02*
X151273179Y-94907134D01*
X151273179Y-94907134D02*
X151273179Y-94621420D01*
X151273179Y-94621420D02*
X151225560Y-94526182D01*
X151225560Y-94526182D02*
X151177941Y-94478563D01*
X151177941Y-94478563D02*
X151082703Y-94430944D01*
X151082703Y-94430944D02*
X150892227Y-94430944D01*
X150892227Y-94430944D02*
X150796989Y-94478563D01*
X149892227Y-95097611D02*
X149892227Y-94573801D01*
X149892227Y-94573801D02*
X149939846Y-94478563D01*
X149939846Y-94478563D02*
X150035084Y-94430944D01*
X150035084Y-94430944D02*
X150225560Y-94430944D01*
X150225560Y-94430944D02*
X150320798Y-94478563D01*
X149892227Y-95049992D02*
X149987465Y-95097611D01*
X149987465Y-95097611D02*
X150225560Y-95097611D01*
X150225560Y-95097611D02*
X150320798Y-95049992D01*
X150320798Y-95049992D02*
X150368417Y-94954753D01*
X150368417Y-94954753D02*
X150368417Y-94859515D01*
X150368417Y-94859515D02*
X150320798Y-94764277D01*
X150320798Y-94764277D02*
X150225560Y-94716658D01*
X150225560Y-94716658D02*
X149987465Y-94716658D01*
X149987465Y-94716658D02*
X149892227Y-94669039D01*
X149558893Y-94430944D02*
X149177941Y-94430944D01*
X149416036Y-94097611D02*
X149416036Y-94954753D01*
X149416036Y-94954753D02*
X149368417Y-95049992D01*
X149368417Y-95049992D02*
X149273179Y-95097611D01*
X149273179Y-95097611D02*
X149177941Y-95097611D01*
X148844607Y-95097611D02*
X148844607Y-94097611D01*
X148416036Y-95097611D02*
X148416036Y-94573801D01*
X148416036Y-94573801D02*
X148463655Y-94478563D01*
X148463655Y-94478563D02*
X148558893Y-94430944D01*
X148558893Y-94430944D02*
X148701750Y-94430944D01*
X148701750Y-94430944D02*
X148796988Y-94478563D01*
X148796988Y-94478563D02*
X148844607Y-94526182D01*
X147558893Y-95049992D02*
X147654131Y-95097611D01*
X147654131Y-95097611D02*
X147844607Y-95097611D01*
X147844607Y-95097611D02*
X147939845Y-95049992D01*
X147939845Y-95049992D02*
X147987464Y-94954753D01*
X147987464Y-94954753D02*
X147987464Y-94573801D01*
X147987464Y-94573801D02*
X147939845Y-94478563D01*
X147939845Y-94478563D02*
X147844607Y-94430944D01*
X147844607Y-94430944D02*
X147654131Y-94430944D01*
X147654131Y-94430944D02*
X147558893Y-94478563D01*
X147558893Y-94478563D02*
X147511274Y-94573801D01*
X147511274Y-94573801D02*
X147511274Y-94669039D01*
X147511274Y-94669039D02*
X147987464Y-94764277D01*
X147082702Y-95097611D02*
X147082702Y-94430944D01*
X147082702Y-94621420D02*
X147035083Y-94526182D01*
X147035083Y-94526182D02*
X146987464Y-94478563D01*
X146987464Y-94478563D02*
X146892226Y-94430944D01*
X146892226Y-94430944D02*
X146796988Y-94430944D01*
X146511273Y-95049992D02*
X146416035Y-95097611D01*
X146416035Y-95097611D02*
X146225559Y-95097611D01*
X146225559Y-95097611D02*
X146130321Y-95049992D01*
X146130321Y-95049992D02*
X146082702Y-94954753D01*
X146082702Y-94954753D02*
X146082702Y-94907134D01*
X146082702Y-94907134D02*
X146130321Y-94811896D01*
X146130321Y-94811896D02*
X146225559Y-94764277D01*
X146225559Y-94764277D02*
X146368416Y-94764277D01*
X146368416Y-94764277D02*
X146463654Y-94716658D01*
X146463654Y-94716658D02*
X146511273Y-94621420D01*
X146511273Y-94621420D02*
X146511273Y-94573801D01*
X146511273Y-94573801D02*
X146463654Y-94478563D01*
X146463654Y-94478563D02*
X146368416Y-94430944D01*
X146368416Y-94430944D02*
X146225559Y-94430944D01*
X146225559Y-94430944D02*
X146130321Y-94478563D01*
X144987463Y-94430944D02*
X144796987Y-95097611D01*
X144796987Y-95097611D02*
X144606511Y-94621420D01*
X144606511Y-94621420D02*
X144416035Y-95097611D01*
X144416035Y-95097611D02*
X144225559Y-94430944D01*
X143844606Y-95097611D02*
X143844606Y-94430944D01*
X143844606Y-94097611D02*
X143892225Y-94145230D01*
X143892225Y-94145230D02*
X143844606Y-94192849D01*
X143844606Y-94192849D02*
X143796987Y-94145230D01*
X143796987Y-94145230D02*
X143844606Y-94097611D01*
X143844606Y-94097611D02*
X143844606Y-94192849D01*
X143416035Y-95049992D02*
X143320797Y-95097611D01*
X143320797Y-95097611D02*
X143130321Y-95097611D01*
X143130321Y-95097611D02*
X143035083Y-95049992D01*
X143035083Y-95049992D02*
X142987464Y-94954753D01*
X142987464Y-94954753D02*
X142987464Y-94907134D01*
X142987464Y-94907134D02*
X143035083Y-94811896D01*
X143035083Y-94811896D02*
X143130321Y-94764277D01*
X143130321Y-94764277D02*
X143273178Y-94764277D01*
X143273178Y-94764277D02*
X143368416Y-94716658D01*
X143368416Y-94716658D02*
X143416035Y-94621420D01*
X143416035Y-94621420D02*
X143416035Y-94573801D01*
X143416035Y-94573801D02*
X143368416Y-94478563D01*
X143368416Y-94478563D02*
X143273178Y-94430944D01*
X143273178Y-94430944D02*
X143130321Y-94430944D01*
X143130321Y-94430944D02*
X143035083Y-94478563D01*
X142130321Y-95097611D02*
X142130321Y-94097611D01*
X142130321Y-95049992D02*
X142225559Y-95097611D01*
X142225559Y-95097611D02*
X142416035Y-95097611D01*
X142416035Y-95097611D02*
X142511273Y-95049992D01*
X142511273Y-95049992D02*
X142558892Y-95002372D01*
X142558892Y-95002372D02*
X142606511Y-94907134D01*
X142606511Y-94907134D02*
X142606511Y-94621420D01*
X142606511Y-94621420D02*
X142558892Y-94526182D01*
X142558892Y-94526182D02*
X142511273Y-94478563D01*
X142511273Y-94478563D02*
X142416035Y-94430944D01*
X142416035Y-94430944D02*
X142225559Y-94430944D01*
X142225559Y-94430944D02*
X142130321Y-94478563D01*
X141511273Y-95097611D02*
X141606511Y-95049992D01*
X141606511Y-95049992D02*
X141654130Y-95002372D01*
X141654130Y-95002372D02*
X141701749Y-94907134D01*
X141701749Y-94907134D02*
X141701749Y-94621420D01*
X141701749Y-94621420D02*
X141654130Y-94526182D01*
X141654130Y-94526182D02*
X141606511Y-94478563D01*
X141606511Y-94478563D02*
X141511273Y-94430944D01*
X141511273Y-94430944D02*
X141368416Y-94430944D01*
X141368416Y-94430944D02*
X141273178Y-94478563D01*
X141273178Y-94478563D02*
X141225559Y-94526182D01*
X141225559Y-94526182D02*
X141177940Y-94621420D01*
X141177940Y-94621420D02*
X141177940Y-94907134D01*
X141177940Y-94907134D02*
X141225559Y-95002372D01*
X141225559Y-95002372D02*
X141273178Y-95049992D01*
X141273178Y-95049992D02*
X141368416Y-95097611D01*
X141368416Y-95097611D02*
X141511273Y-95097611D01*
X140749368Y-95097611D02*
X140749368Y-94430944D01*
X140749368Y-94526182D02*
X140701749Y-94478563D01*
X140701749Y-94478563D02*
X140606511Y-94430944D01*
X140606511Y-94430944D02*
X140463654Y-94430944D01*
X140463654Y-94430944D02*
X140368416Y-94478563D01*
X140368416Y-94478563D02*
X140320797Y-94573801D01*
X140320797Y-94573801D02*
X140320797Y-95097611D01*
X140320797Y-94573801D02*
X140273178Y-94478563D01*
X140273178Y-94478563D02*
X140177940Y-94430944D01*
X140177940Y-94430944D02*
X140035083Y-94430944D01*
X140035083Y-94430944D02*
X139939844Y-94478563D01*
X139939844Y-94478563D02*
X139892225Y-94573801D01*
X139892225Y-94573801D02*
X139892225Y-95097611D01*
X139416035Y-95002372D02*
X139368416Y-95049992D01*
X139368416Y-95049992D02*
X139416035Y-95097611D01*
X139416035Y-95097611D02*
X139463654Y-95049992D01*
X139463654Y-95049992D02*
X139416035Y-95002372D01*
X139416035Y-95002372D02*
X139416035Y-95097611D01*
X138987464Y-94097611D02*
X138987464Y-94288087D01*
X138606512Y-94097611D02*
X138606512Y-94288087D01*
X167130326Y-96326602D02*
X166368422Y-96326602D01*
X165130326Y-96707555D02*
X165130326Y-95707555D01*
X164701755Y-96659936D02*
X164606517Y-96707555D01*
X164606517Y-96707555D02*
X164416041Y-96707555D01*
X164416041Y-96707555D02*
X164320803Y-96659936D01*
X164320803Y-96659936D02*
X164273184Y-96564697D01*
X164273184Y-96564697D02*
X164273184Y-96517078D01*
X164273184Y-96517078D02*
X164320803Y-96421840D01*
X164320803Y-96421840D02*
X164416041Y-96374221D01*
X164416041Y-96374221D02*
X164558898Y-96374221D01*
X164558898Y-96374221D02*
X164654136Y-96326602D01*
X164654136Y-96326602D02*
X164701755Y-96231364D01*
X164701755Y-96231364D02*
X164701755Y-96183745D01*
X164701755Y-96183745D02*
X164654136Y-96088507D01*
X164654136Y-96088507D02*
X164558898Y-96040888D01*
X164558898Y-96040888D02*
X164416041Y-96040888D01*
X164416041Y-96040888D02*
X164320803Y-96088507D01*
X163416041Y-96707555D02*
X163416041Y-96183745D01*
X163416041Y-96183745D02*
X163463660Y-96088507D01*
X163463660Y-96088507D02*
X163558898Y-96040888D01*
X163558898Y-96040888D02*
X163749374Y-96040888D01*
X163749374Y-96040888D02*
X163844612Y-96088507D01*
X163416041Y-96659936D02*
X163511279Y-96707555D01*
X163511279Y-96707555D02*
X163749374Y-96707555D01*
X163749374Y-96707555D02*
X163844612Y-96659936D01*
X163844612Y-96659936D02*
X163892231Y-96564697D01*
X163892231Y-96564697D02*
X163892231Y-96469459D01*
X163892231Y-96469459D02*
X163844612Y-96374221D01*
X163844612Y-96374221D02*
X163749374Y-96326602D01*
X163749374Y-96326602D02*
X163511279Y-96326602D01*
X163511279Y-96326602D02*
X163416041Y-96278983D01*
X162511279Y-96707555D02*
X162511279Y-96183745D01*
X162511279Y-96183745D02*
X162558898Y-96088507D01*
X162558898Y-96088507D02*
X162654136Y-96040888D01*
X162654136Y-96040888D02*
X162844612Y-96040888D01*
X162844612Y-96040888D02*
X162939850Y-96088507D01*
X162511279Y-96659936D02*
X162606517Y-96707555D01*
X162606517Y-96707555D02*
X162844612Y-96707555D01*
X162844612Y-96707555D02*
X162939850Y-96659936D01*
X162939850Y-96659936D02*
X162987469Y-96564697D01*
X162987469Y-96564697D02*
X162987469Y-96469459D01*
X162987469Y-96469459D02*
X162939850Y-96374221D01*
X162939850Y-96374221D02*
X162844612Y-96326602D01*
X162844612Y-96326602D02*
X162606517Y-96326602D01*
X162606517Y-96326602D02*
X162511279Y-96278983D01*
X161606517Y-96659936D02*
X161701755Y-96707555D01*
X161701755Y-96707555D02*
X161892231Y-96707555D01*
X161892231Y-96707555D02*
X161987469Y-96659936D01*
X161987469Y-96659936D02*
X162035088Y-96612316D01*
X162035088Y-96612316D02*
X162082707Y-96517078D01*
X162082707Y-96517078D02*
X162082707Y-96231364D01*
X162082707Y-96231364D02*
X162035088Y-96136126D01*
X162035088Y-96136126D02*
X161987469Y-96088507D01*
X161987469Y-96088507D02*
X161892231Y-96040888D01*
X161892231Y-96040888D02*
X161701755Y-96040888D01*
X161701755Y-96040888D02*
X161606517Y-96088507D01*
X160463659Y-96421840D02*
X159987469Y-96421840D01*
X160558897Y-96707555D02*
X160225564Y-95707555D01*
X160225564Y-95707555D02*
X159892231Y-96707555D01*
X159606516Y-96659936D02*
X159511278Y-96707555D01*
X159511278Y-96707555D02*
X159320802Y-96707555D01*
X159320802Y-96707555D02*
X159225564Y-96659936D01*
X159225564Y-96659936D02*
X159177945Y-96564697D01*
X159177945Y-96564697D02*
X159177945Y-96517078D01*
X159177945Y-96517078D02*
X159225564Y-96421840D01*
X159225564Y-96421840D02*
X159320802Y-96374221D01*
X159320802Y-96374221D02*
X159463659Y-96374221D01*
X159463659Y-96374221D02*
X159558897Y-96326602D01*
X159558897Y-96326602D02*
X159606516Y-96231364D01*
X159606516Y-96231364D02*
X159606516Y-96183745D01*
X159606516Y-96183745D02*
X159558897Y-96088507D01*
X159558897Y-96088507D02*
X159463659Y-96040888D01*
X159463659Y-96040888D02*
X159320802Y-96040888D01*
X159320802Y-96040888D02*
X159225564Y-96088507D01*
X158749373Y-96707555D02*
X158749373Y-96040888D01*
X158749373Y-95707555D02*
X158796992Y-95755174D01*
X158796992Y-95755174D02*
X158749373Y-95802793D01*
X158749373Y-95802793D02*
X158701754Y-95755174D01*
X158701754Y-95755174D02*
X158749373Y-95707555D01*
X158749373Y-95707555D02*
X158749373Y-95802793D01*
X158273183Y-96707555D02*
X158273183Y-96040888D01*
X158273183Y-96136126D02*
X158225564Y-96088507D01*
X158225564Y-96088507D02*
X158130326Y-96040888D01*
X158130326Y-96040888D02*
X157987469Y-96040888D01*
X157987469Y-96040888D02*
X157892231Y-96088507D01*
X157892231Y-96088507D02*
X157844612Y-96183745D01*
X157844612Y-96183745D02*
X157844612Y-96707555D01*
X157844612Y-96183745D02*
X157796993Y-96088507D01*
X157796993Y-96088507D02*
X157701755Y-96040888D01*
X157701755Y-96040888D02*
X157558898Y-96040888D01*
X157558898Y-96040888D02*
X157463659Y-96088507D01*
X157463659Y-96088507D02*
X157416040Y-96183745D01*
X157416040Y-96183745D02*
X157416040Y-96707555D01*
X156796993Y-96707555D02*
X156892231Y-96659936D01*
X156892231Y-96659936D02*
X156939850Y-96612316D01*
X156939850Y-96612316D02*
X156987469Y-96517078D01*
X156987469Y-96517078D02*
X156987469Y-96231364D01*
X156987469Y-96231364D02*
X156939850Y-96136126D01*
X156939850Y-96136126D02*
X156892231Y-96088507D01*
X156892231Y-96088507D02*
X156796993Y-96040888D01*
X156796993Y-96040888D02*
X156654136Y-96040888D01*
X156654136Y-96040888D02*
X156558898Y-96088507D01*
X156558898Y-96088507D02*
X156511279Y-96136126D01*
X156511279Y-96136126D02*
X156463660Y-96231364D01*
X156463660Y-96231364D02*
X156463660Y-96517078D01*
X156463660Y-96517078D02*
X156511279Y-96612316D01*
X156511279Y-96612316D02*
X156558898Y-96659936D01*
X156558898Y-96659936D02*
X156654136Y-96707555D01*
X156654136Y-96707555D02*
X156796993Y-96707555D01*
X156130326Y-96040888D02*
X155892231Y-96707555D01*
X155892231Y-96707555D02*
X155654136Y-96040888D01*
X155225564Y-96659936D02*
X155225564Y-96707555D01*
X155225564Y-96707555D02*
X155273183Y-96802793D01*
X155273183Y-96802793D02*
X155320802Y-96850412D01*
X153511279Y-96707555D02*
X154082707Y-96707555D01*
X153796993Y-96707555D02*
X153796993Y-95707555D01*
X153796993Y-95707555D02*
X153892231Y-95850412D01*
X153892231Y-95850412D02*
X153987469Y-95945650D01*
X153987469Y-95945650D02*
X154082707Y-95993269D01*
X153035088Y-96707555D02*
X152844612Y-96707555D01*
X152844612Y-96707555D02*
X152749374Y-96659936D01*
X152749374Y-96659936D02*
X152701755Y-96612316D01*
X152701755Y-96612316D02*
X152606517Y-96469459D01*
X152606517Y-96469459D02*
X152558898Y-96278983D01*
X152558898Y-96278983D02*
X152558898Y-95898031D01*
X152558898Y-95898031D02*
X152606517Y-95802793D01*
X152606517Y-95802793D02*
X152654136Y-95755174D01*
X152654136Y-95755174D02*
X152749374Y-95707555D01*
X152749374Y-95707555D02*
X152939850Y-95707555D01*
X152939850Y-95707555D02*
X153035088Y-95755174D01*
X153035088Y-95755174D02*
X153082707Y-95802793D01*
X153082707Y-95802793D02*
X153130326Y-95898031D01*
X153130326Y-95898031D02*
X153130326Y-96136126D01*
X153130326Y-96136126D02*
X153082707Y-96231364D01*
X153082707Y-96231364D02*
X153035088Y-96278983D01*
X153035088Y-96278983D02*
X152939850Y-96326602D01*
X152939850Y-96326602D02*
X152749374Y-96326602D01*
X152749374Y-96326602D02*
X152654136Y-96278983D01*
X152654136Y-96278983D02*
X152606517Y-96231364D01*
X152606517Y-96231364D02*
X152558898Y-96136126D01*
X151987469Y-96136126D02*
X152082707Y-96088507D01*
X152082707Y-96088507D02*
X152130326Y-96040888D01*
X152130326Y-96040888D02*
X152177945Y-95945650D01*
X152177945Y-95945650D02*
X152177945Y-95898031D01*
X152177945Y-95898031D02*
X152130326Y-95802793D01*
X152130326Y-95802793D02*
X152082707Y-95755174D01*
X152082707Y-95755174D02*
X151987469Y-95707555D01*
X151987469Y-95707555D02*
X151796993Y-95707555D01*
X151796993Y-95707555D02*
X151701755Y-95755174D01*
X151701755Y-95755174D02*
X151654136Y-95802793D01*
X151654136Y-95802793D02*
X151606517Y-95898031D01*
X151606517Y-95898031D02*
X151606517Y-95945650D01*
X151606517Y-95945650D02*
X151654136Y-96040888D01*
X151654136Y-96040888D02*
X151701755Y-96088507D01*
X151701755Y-96088507D02*
X151796993Y-96136126D01*
X151796993Y-96136126D02*
X151987469Y-96136126D01*
X151987469Y-96136126D02*
X152082707Y-96183745D01*
X152082707Y-96183745D02*
X152130326Y-96231364D01*
X152130326Y-96231364D02*
X152177945Y-96326602D01*
X152177945Y-96326602D02*
X152177945Y-96517078D01*
X152177945Y-96517078D02*
X152130326Y-96612316D01*
X152130326Y-96612316D02*
X152082707Y-96659936D01*
X152082707Y-96659936D02*
X151987469Y-96707555D01*
X151987469Y-96707555D02*
X151796993Y-96707555D01*
X151796993Y-96707555D02*
X151701755Y-96659936D01*
X151701755Y-96659936D02*
X151654136Y-96612316D01*
X151654136Y-96612316D02*
X151606517Y-96517078D01*
X151606517Y-96517078D02*
X151606517Y-96326602D01*
X151606517Y-96326602D02*
X151654136Y-96231364D01*
X151654136Y-96231364D02*
X151701755Y-96183745D01*
X151701755Y-96183745D02*
X151796993Y-96136126D01*
X151035088Y-96136126D02*
X151130326Y-96088507D01*
X151130326Y-96088507D02*
X151177945Y-96040888D01*
X151177945Y-96040888D02*
X151225564Y-95945650D01*
X151225564Y-95945650D02*
X151225564Y-95898031D01*
X151225564Y-95898031D02*
X151177945Y-95802793D01*
X151177945Y-95802793D02*
X151130326Y-95755174D01*
X151130326Y-95755174D02*
X151035088Y-95707555D01*
X151035088Y-95707555D02*
X150844612Y-95707555D01*
X150844612Y-95707555D02*
X150749374Y-95755174D01*
X150749374Y-95755174D02*
X150701755Y-95802793D01*
X150701755Y-95802793D02*
X150654136Y-95898031D01*
X150654136Y-95898031D02*
X150654136Y-95945650D01*
X150654136Y-95945650D02*
X150701755Y-96040888D01*
X150701755Y-96040888D02*
X150749374Y-96088507D01*
X150749374Y-96088507D02*
X150844612Y-96136126D01*
X150844612Y-96136126D02*
X151035088Y-96136126D01*
X151035088Y-96136126D02*
X151130326Y-96183745D01*
X151130326Y-96183745D02*
X151177945Y-96231364D01*
X151177945Y-96231364D02*
X151225564Y-96326602D01*
X151225564Y-96326602D02*
X151225564Y-96517078D01*
X151225564Y-96517078D02*
X151177945Y-96612316D01*
X151177945Y-96612316D02*
X151130326Y-96659936D01*
X151130326Y-96659936D02*
X151035088Y-96707555D01*
X151035088Y-96707555D02*
X150844612Y-96707555D01*
X150844612Y-96707555D02*
X150749374Y-96659936D01*
X150749374Y-96659936D02*
X150701755Y-96612316D01*
X150701755Y-96612316D02*
X150654136Y-96517078D01*
X150654136Y-96517078D02*
X150654136Y-96326602D01*
X150654136Y-96326602D02*
X150701755Y-96231364D01*
X150701755Y-96231364D02*
X150749374Y-96183745D01*
X150749374Y-96183745D02*
X150844612Y-96136126D01*
X167177945Y-98031784D02*
X166701755Y-98031784D01*
X167273183Y-98317499D02*
X166939850Y-97317499D01*
X166939850Y-97317499D02*
X166606517Y-98317499D01*
X165844612Y-97650832D02*
X165844612Y-98317499D01*
X166273183Y-97650832D02*
X166273183Y-98174641D01*
X166273183Y-98174641D02*
X166225564Y-98269880D01*
X166225564Y-98269880D02*
X166130326Y-98317499D01*
X166130326Y-98317499D02*
X165987469Y-98317499D01*
X165987469Y-98317499D02*
X165892231Y-98269880D01*
X165892231Y-98269880D02*
X165844612Y-98222260D01*
X165511278Y-97650832D02*
X165130326Y-97650832D01*
X165368421Y-97317499D02*
X165368421Y-98174641D01*
X165368421Y-98174641D02*
X165320802Y-98269880D01*
X165320802Y-98269880D02*
X165225564Y-98317499D01*
X165225564Y-98317499D02*
X165130326Y-98317499D01*
X164796992Y-98317499D02*
X164796992Y-97317499D01*
X164368421Y-98317499D02*
X164368421Y-97793689D01*
X164368421Y-97793689D02*
X164416040Y-97698451D01*
X164416040Y-97698451D02*
X164511278Y-97650832D01*
X164511278Y-97650832D02*
X164654135Y-97650832D01*
X164654135Y-97650832D02*
X164749373Y-97698451D01*
X164749373Y-97698451D02*
X164796992Y-97746070D01*
X163749373Y-98317499D02*
X163844611Y-98269880D01*
X163844611Y-98269880D02*
X163892230Y-98222260D01*
X163892230Y-98222260D02*
X163939849Y-98127022D01*
X163939849Y-98127022D02*
X163939849Y-97841308D01*
X163939849Y-97841308D02*
X163892230Y-97746070D01*
X163892230Y-97746070D02*
X163844611Y-97698451D01*
X163844611Y-97698451D02*
X163749373Y-97650832D01*
X163749373Y-97650832D02*
X163606516Y-97650832D01*
X163606516Y-97650832D02*
X163511278Y-97698451D01*
X163511278Y-97698451D02*
X163463659Y-97746070D01*
X163463659Y-97746070D02*
X163416040Y-97841308D01*
X163416040Y-97841308D02*
X163416040Y-98127022D01*
X163416040Y-98127022D02*
X163463659Y-98222260D01*
X163463659Y-98222260D02*
X163511278Y-98269880D01*
X163511278Y-98269880D02*
X163606516Y-98317499D01*
X163606516Y-98317499D02*
X163749373Y-98317499D01*
X162987468Y-98317499D02*
X162987468Y-97650832D01*
X162987468Y-97841308D02*
X162939849Y-97746070D01*
X162939849Y-97746070D02*
X162892230Y-97698451D01*
X162892230Y-97698451D02*
X162796992Y-97650832D01*
X162796992Y-97650832D02*
X162701754Y-97650832D01*
X161463658Y-98317499D02*
X161558896Y-98269880D01*
X161558896Y-98269880D02*
X161606515Y-98222260D01*
X161606515Y-98222260D02*
X161654134Y-98127022D01*
X161654134Y-98127022D02*
X161654134Y-97841308D01*
X161654134Y-97841308D02*
X161606515Y-97746070D01*
X161606515Y-97746070D02*
X161558896Y-97698451D01*
X161558896Y-97698451D02*
X161463658Y-97650832D01*
X161463658Y-97650832D02*
X161320801Y-97650832D01*
X161320801Y-97650832D02*
X161225563Y-97698451D01*
X161225563Y-97698451D02*
X161177944Y-97746070D01*
X161177944Y-97746070D02*
X161130325Y-97841308D01*
X161130325Y-97841308D02*
X161130325Y-98127022D01*
X161130325Y-98127022D02*
X161177944Y-98222260D01*
X161177944Y-98222260D02*
X161225563Y-98269880D01*
X161225563Y-98269880D02*
X161320801Y-98317499D01*
X161320801Y-98317499D02*
X161463658Y-98317499D01*
X160844610Y-97650832D02*
X160463658Y-97650832D01*
X160701753Y-98317499D02*
X160701753Y-97460356D01*
X160701753Y-97460356D02*
X160654134Y-97365118D01*
X160654134Y-97365118D02*
X160558896Y-97317499D01*
X160558896Y-97317499D02*
X160463658Y-97317499D01*
X159368419Y-98317499D02*
X159368419Y-97317499D01*
X158844610Y-98269880D02*
X158844610Y-98317499D01*
X158844610Y-98317499D02*
X158892229Y-98412737D01*
X158892229Y-98412737D02*
X158939848Y-98460356D01*
X157082706Y-98317499D02*
X157416039Y-97841308D01*
X157654134Y-98317499D02*
X157654134Y-97317499D01*
X157654134Y-97317499D02*
X157273182Y-97317499D01*
X157273182Y-97317499D02*
X157177944Y-97365118D01*
X157177944Y-97365118D02*
X157130325Y-97412737D01*
X157130325Y-97412737D02*
X157082706Y-97507975D01*
X157082706Y-97507975D02*
X157082706Y-97650832D01*
X157082706Y-97650832D02*
X157130325Y-97746070D01*
X157130325Y-97746070D02*
X157177944Y-97793689D01*
X157177944Y-97793689D02*
X157273182Y-97841308D01*
X157273182Y-97841308D02*
X157654134Y-97841308D01*
X156511277Y-98317499D02*
X156606515Y-98269880D01*
X156606515Y-98269880D02*
X156654134Y-98222260D01*
X156654134Y-98222260D02*
X156701753Y-98127022D01*
X156701753Y-98127022D02*
X156701753Y-97841308D01*
X156701753Y-97841308D02*
X156654134Y-97746070D01*
X156654134Y-97746070D02*
X156606515Y-97698451D01*
X156606515Y-97698451D02*
X156511277Y-97650832D01*
X156511277Y-97650832D02*
X156368420Y-97650832D01*
X156368420Y-97650832D02*
X156273182Y-97698451D01*
X156273182Y-97698451D02*
X156225563Y-97746070D01*
X156225563Y-97746070D02*
X156177944Y-97841308D01*
X156177944Y-97841308D02*
X156177944Y-98127022D01*
X156177944Y-98127022D02*
X156225563Y-98222260D01*
X156225563Y-98222260D02*
X156273182Y-98269880D01*
X156273182Y-98269880D02*
X156368420Y-98317499D01*
X156368420Y-98317499D02*
X156511277Y-98317499D01*
X155749372Y-98317499D02*
X155749372Y-97317499D01*
X155749372Y-97698451D02*
X155654134Y-97650832D01*
X155654134Y-97650832D02*
X155463658Y-97650832D01*
X155463658Y-97650832D02*
X155368420Y-97698451D01*
X155368420Y-97698451D02*
X155320801Y-97746070D01*
X155320801Y-97746070D02*
X155273182Y-97841308D01*
X155273182Y-97841308D02*
X155273182Y-98127022D01*
X155273182Y-98127022D02*
X155320801Y-98222260D01*
X155320801Y-98222260D02*
X155368420Y-98269880D01*
X155368420Y-98269880D02*
X155463658Y-98317499D01*
X155463658Y-98317499D02*
X155654134Y-98317499D01*
X155654134Y-98317499D02*
X155749372Y-98269880D01*
X154701753Y-98317499D02*
X154796991Y-98269880D01*
X154796991Y-98269880D02*
X154844610Y-98222260D01*
X154844610Y-98222260D02*
X154892229Y-98127022D01*
X154892229Y-98127022D02*
X154892229Y-97841308D01*
X154892229Y-97841308D02*
X154844610Y-97746070D01*
X154844610Y-97746070D02*
X154796991Y-97698451D01*
X154796991Y-97698451D02*
X154701753Y-97650832D01*
X154701753Y-97650832D02*
X154558896Y-97650832D01*
X154558896Y-97650832D02*
X154463658Y-97698451D01*
X154463658Y-97698451D02*
X154416039Y-97746070D01*
X154416039Y-97746070D02*
X154368420Y-97841308D01*
X154368420Y-97841308D02*
X154368420Y-98127022D01*
X154368420Y-98127022D02*
X154416039Y-98222260D01*
X154416039Y-98222260D02*
X154463658Y-98269880D01*
X154463658Y-98269880D02*
X154558896Y-98317499D01*
X154558896Y-98317499D02*
X154701753Y-98317499D01*
X154082705Y-97650832D02*
X153701753Y-97650832D01*
X153939848Y-97317499D02*
X153939848Y-98174641D01*
X153939848Y-98174641D02*
X153892229Y-98269880D01*
X153892229Y-98269880D02*
X153796991Y-98317499D01*
X153796991Y-98317499D02*
X153701753Y-98317499D01*
X151796990Y-98317499D02*
X151844610Y-98317499D01*
X151844610Y-98317499D02*
X151939848Y-98269880D01*
X151939848Y-98269880D02*
X152082705Y-98127022D01*
X152082705Y-98127022D02*
X152320800Y-97841308D01*
X152320800Y-97841308D02*
X152416038Y-97698451D01*
X152416038Y-97698451D02*
X152463657Y-97555594D01*
X152463657Y-97555594D02*
X152463657Y-97460356D01*
X152463657Y-97460356D02*
X152416038Y-97365118D01*
X152416038Y-97365118D02*
X152320800Y-97317499D01*
X152320800Y-97317499D02*
X152273181Y-97317499D01*
X152273181Y-97317499D02*
X152177943Y-97365118D01*
X152177943Y-97365118D02*
X152130324Y-97460356D01*
X152130324Y-97460356D02*
X152130324Y-97507975D01*
X152130324Y-97507975D02*
X152177943Y-97603213D01*
X152177943Y-97603213D02*
X152225562Y-97650832D01*
X152225562Y-97650832D02*
X152511276Y-97841308D01*
X152511276Y-97841308D02*
X152558895Y-97888927D01*
X152558895Y-97888927D02*
X152606514Y-97984165D01*
X152606514Y-97984165D02*
X152606514Y-98127022D01*
X152606514Y-98127022D02*
X152558895Y-98222260D01*
X152558895Y-98222260D02*
X152511276Y-98269880D01*
X152511276Y-98269880D02*
X152416038Y-98317499D01*
X152416038Y-98317499D02*
X152273181Y-98317499D01*
X152273181Y-98317499D02*
X152177943Y-98269880D01*
X152177943Y-98269880D02*
X152130324Y-98222260D01*
X152130324Y-98222260D02*
X151987467Y-98031784D01*
X151987467Y-98031784D02*
X151939848Y-97888927D01*
X151939848Y-97888927D02*
X151939848Y-97793689D01*
X150749371Y-97317499D02*
X150177943Y-97317499D01*
X150463657Y-98317499D02*
X150463657Y-97317499D01*
X149844609Y-98317499D02*
X149844609Y-97317499D01*
X149416038Y-98317499D02*
X149416038Y-97793689D01*
X149416038Y-97793689D02*
X149463657Y-97698451D01*
X149463657Y-97698451D02*
X149558895Y-97650832D01*
X149558895Y-97650832D02*
X149701752Y-97650832D01*
X149701752Y-97650832D02*
X149796990Y-97698451D01*
X149796990Y-97698451D02*
X149844609Y-97746070D01*
X148558895Y-98269880D02*
X148654133Y-98317499D01*
X148654133Y-98317499D02*
X148844609Y-98317499D01*
X148844609Y-98317499D02*
X148939847Y-98269880D01*
X148939847Y-98269880D02*
X148987466Y-98174641D01*
X148987466Y-98174641D02*
X148987466Y-97793689D01*
X148987466Y-97793689D02*
X148939847Y-97698451D01*
X148939847Y-97698451D02*
X148844609Y-97650832D01*
X148844609Y-97650832D02*
X148654133Y-97650832D01*
X148654133Y-97650832D02*
X148558895Y-97698451D01*
X148558895Y-97698451D02*
X148511276Y-97793689D01*
X148511276Y-97793689D02*
X148511276Y-97888927D01*
X148511276Y-97888927D02*
X148987466Y-97984165D01*
X147463656Y-97317499D02*
X146892228Y-97317499D01*
X147177942Y-98317499D02*
X147177942Y-97317499D01*
X146558894Y-98317499D02*
X146558894Y-97317499D01*
X146130323Y-98317499D02*
X146130323Y-97793689D01*
X146130323Y-97793689D02*
X146177942Y-97698451D01*
X146177942Y-97698451D02*
X146273180Y-97650832D01*
X146273180Y-97650832D02*
X146416037Y-97650832D01*
X146416037Y-97650832D02*
X146511275Y-97698451D01*
X146511275Y-97698451D02*
X146558894Y-97746070D01*
X145654132Y-98317499D02*
X145654132Y-97650832D01*
X145654132Y-97841308D02*
X145606513Y-97746070D01*
X145606513Y-97746070D02*
X145558894Y-97698451D01*
X145558894Y-97698451D02*
X145463656Y-97650832D01*
X145463656Y-97650832D02*
X145368418Y-97650832D01*
X144654132Y-98269880D02*
X144749370Y-98317499D01*
X144749370Y-98317499D02*
X144939846Y-98317499D01*
X144939846Y-98317499D02*
X145035084Y-98269880D01*
X145035084Y-98269880D02*
X145082703Y-98174641D01*
X145082703Y-98174641D02*
X145082703Y-97793689D01*
X145082703Y-97793689D02*
X145035084Y-97698451D01*
X145035084Y-97698451D02*
X144939846Y-97650832D01*
X144939846Y-97650832D02*
X144749370Y-97650832D01*
X144749370Y-97650832D02*
X144654132Y-97698451D01*
X144654132Y-97698451D02*
X144606513Y-97793689D01*
X144606513Y-97793689D02*
X144606513Y-97888927D01*
X144606513Y-97888927D02*
X145082703Y-97984165D01*
X143796989Y-98269880D02*
X143892227Y-98317499D01*
X143892227Y-98317499D02*
X144082703Y-98317499D01*
X144082703Y-98317499D02*
X144177941Y-98269880D01*
X144177941Y-98269880D02*
X144225560Y-98174641D01*
X144225560Y-98174641D02*
X144225560Y-97793689D01*
X144225560Y-97793689D02*
X144177941Y-97698451D01*
X144177941Y-97698451D02*
X144082703Y-97650832D01*
X144082703Y-97650832D02*
X143892227Y-97650832D01*
X143892227Y-97650832D02*
X143796989Y-97698451D01*
X143796989Y-97698451D02*
X143749370Y-97793689D01*
X143749370Y-97793689D02*
X143749370Y-97888927D01*
X143749370Y-97888927D02*
X144225560Y-97984165D01*
X142082703Y-98317499D02*
X142558893Y-98317499D01*
X142558893Y-98317499D02*
X142558893Y-97317499D01*
X141320798Y-98317499D02*
X141320798Y-97793689D01*
X141320798Y-97793689D02*
X141368417Y-97698451D01*
X141368417Y-97698451D02*
X141463655Y-97650832D01*
X141463655Y-97650832D02*
X141654131Y-97650832D01*
X141654131Y-97650832D02*
X141749369Y-97698451D01*
X141320798Y-98269880D02*
X141416036Y-98317499D01*
X141416036Y-98317499D02*
X141654131Y-98317499D01*
X141654131Y-98317499D02*
X141749369Y-98269880D01*
X141749369Y-98269880D02*
X141796988Y-98174641D01*
X141796988Y-98174641D02*
X141796988Y-98079403D01*
X141796988Y-98079403D02*
X141749369Y-97984165D01*
X141749369Y-97984165D02*
X141654131Y-97936546D01*
X141654131Y-97936546D02*
X141416036Y-97936546D01*
X141416036Y-97936546D02*
X141320798Y-97888927D01*
X140939845Y-97650832D02*
X140749369Y-98317499D01*
X140749369Y-98317499D02*
X140558893Y-97841308D01*
X140558893Y-97841308D02*
X140368417Y-98317499D01*
X140368417Y-98317499D02*
X140177941Y-97650832D01*
X139844607Y-98269880D02*
X139749369Y-98317499D01*
X139749369Y-98317499D02*
X139558893Y-98317499D01*
X139558893Y-98317499D02*
X139463655Y-98269880D01*
X139463655Y-98269880D02*
X139416036Y-98174641D01*
X139416036Y-98174641D02*
X139416036Y-98127022D01*
X139416036Y-98127022D02*
X139463655Y-98031784D01*
X139463655Y-98031784D02*
X139558893Y-97984165D01*
X139558893Y-97984165D02*
X139701750Y-97984165D01*
X139701750Y-97984165D02*
X139796988Y-97936546D01*
X139796988Y-97936546D02*
X139844607Y-97841308D01*
X139844607Y-97841308D02*
X139844607Y-97793689D01*
X139844607Y-97793689D02*
X139796988Y-97698451D01*
X139796988Y-97698451D02*
X139701750Y-97650832D01*
X139701750Y-97650832D02*
X139558893Y-97650832D01*
X139558893Y-97650832D02*
X139463655Y-97698451D01*
X138082702Y-98317499D02*
X138177940Y-98269880D01*
X138177940Y-98269880D02*
X138225559Y-98222260D01*
X138225559Y-98222260D02*
X138273178Y-98127022D01*
X138273178Y-98127022D02*
X138273178Y-97841308D01*
X138273178Y-97841308D02*
X138225559Y-97746070D01*
X138225559Y-97746070D02*
X138177940Y-97698451D01*
X138177940Y-97698451D02*
X138082702Y-97650832D01*
X138082702Y-97650832D02*
X137939845Y-97650832D01*
X137939845Y-97650832D02*
X137844607Y-97698451D01*
X137844607Y-97698451D02*
X137796988Y-97746070D01*
X137796988Y-97746070D02*
X137749369Y-97841308D01*
X137749369Y-97841308D02*
X137749369Y-98127022D01*
X137749369Y-98127022D02*
X137796988Y-98222260D01*
X137796988Y-98222260D02*
X137844607Y-98269880D01*
X137844607Y-98269880D02*
X137939845Y-98317499D01*
X137939845Y-98317499D02*
X138082702Y-98317499D01*
X137463654Y-97650832D02*
X137082702Y-97650832D01*
X137320797Y-98317499D02*
X137320797Y-97460356D01*
X137320797Y-97460356D02*
X137273178Y-97365118D01*
X137273178Y-97365118D02*
X137177940Y-97317499D01*
X137177940Y-97317499D02*
X137082702Y-97317499D01*
X135416035Y-98317499D02*
X135749368Y-97841308D01*
X135987463Y-98317499D02*
X135987463Y-97317499D01*
X135987463Y-97317499D02*
X135606511Y-97317499D01*
X135606511Y-97317499D02*
X135511273Y-97365118D01*
X135511273Y-97365118D02*
X135463654Y-97412737D01*
X135463654Y-97412737D02*
X135416035Y-97507975D01*
X135416035Y-97507975D02*
X135416035Y-97650832D01*
X135416035Y-97650832D02*
X135463654Y-97746070D01*
X135463654Y-97746070D02*
X135511273Y-97793689D01*
X135511273Y-97793689D02*
X135606511Y-97841308D01*
X135606511Y-97841308D02*
X135987463Y-97841308D01*
X134844606Y-98317499D02*
X134939844Y-98269880D01*
X134939844Y-98269880D02*
X134987463Y-98222260D01*
X134987463Y-98222260D02*
X135035082Y-98127022D01*
X135035082Y-98127022D02*
X135035082Y-97841308D01*
X135035082Y-97841308D02*
X134987463Y-97746070D01*
X134987463Y-97746070D02*
X134939844Y-97698451D01*
X134939844Y-97698451D02*
X134844606Y-97650832D01*
X134844606Y-97650832D02*
X134701749Y-97650832D01*
X134701749Y-97650832D02*
X134606511Y-97698451D01*
X134606511Y-97698451D02*
X134558892Y-97746070D01*
X134558892Y-97746070D02*
X134511273Y-97841308D01*
X134511273Y-97841308D02*
X134511273Y-98127022D01*
X134511273Y-98127022D02*
X134558892Y-98222260D01*
X134558892Y-98222260D02*
X134606511Y-98269880D01*
X134606511Y-98269880D02*
X134701749Y-98317499D01*
X134701749Y-98317499D02*
X134844606Y-98317499D01*
X134082701Y-98317499D02*
X134082701Y-97317499D01*
X134082701Y-97698451D02*
X133987463Y-97650832D01*
X133987463Y-97650832D02*
X133796987Y-97650832D01*
X133796987Y-97650832D02*
X133701749Y-97698451D01*
X133701749Y-97698451D02*
X133654130Y-97746070D01*
X133654130Y-97746070D02*
X133606511Y-97841308D01*
X133606511Y-97841308D02*
X133606511Y-98127022D01*
X133606511Y-98127022D02*
X133654130Y-98222260D01*
X133654130Y-98222260D02*
X133701749Y-98269880D01*
X133701749Y-98269880D02*
X133796987Y-98317499D01*
X133796987Y-98317499D02*
X133987463Y-98317499D01*
X133987463Y-98317499D02*
X134082701Y-98269880D01*
X133035082Y-98317499D02*
X133130320Y-98269880D01*
X133130320Y-98269880D02*
X133177939Y-98222260D01*
X133177939Y-98222260D02*
X133225558Y-98127022D01*
X133225558Y-98127022D02*
X133225558Y-97841308D01*
X133225558Y-97841308D02*
X133177939Y-97746070D01*
X133177939Y-97746070D02*
X133130320Y-97698451D01*
X133130320Y-97698451D02*
X133035082Y-97650832D01*
X133035082Y-97650832D02*
X132892225Y-97650832D01*
X132892225Y-97650832D02*
X132796987Y-97698451D01*
X132796987Y-97698451D02*
X132749368Y-97746070D01*
X132749368Y-97746070D02*
X132701749Y-97841308D01*
X132701749Y-97841308D02*
X132701749Y-98127022D01*
X132701749Y-98127022D02*
X132749368Y-98222260D01*
X132749368Y-98222260D02*
X132796987Y-98269880D01*
X132796987Y-98269880D02*
X132892225Y-98317499D01*
X132892225Y-98317499D02*
X133035082Y-98317499D01*
X132416034Y-97650832D02*
X132035082Y-97650832D01*
X132273177Y-97317499D02*
X132273177Y-98174641D01*
X132273177Y-98174641D02*
X132225558Y-98269880D01*
X132225558Y-98269880D02*
X132130320Y-98317499D01*
X132130320Y-98317499D02*
X132035082Y-98317499D01*
X131701748Y-98317499D02*
X131701748Y-97650832D01*
X131701748Y-97317499D02*
X131749367Y-97365118D01*
X131749367Y-97365118D02*
X131701748Y-97412737D01*
X131701748Y-97412737D02*
X131654129Y-97365118D01*
X131654129Y-97365118D02*
X131701748Y-97317499D01*
X131701748Y-97317499D02*
X131701748Y-97412737D01*
X130796987Y-98269880D02*
X130892225Y-98317499D01*
X130892225Y-98317499D02*
X131082701Y-98317499D01*
X131082701Y-98317499D02*
X131177939Y-98269880D01*
X131177939Y-98269880D02*
X131225558Y-98222260D01*
X131225558Y-98222260D02*
X131273177Y-98127022D01*
X131273177Y-98127022D02*
X131273177Y-97841308D01*
X131273177Y-97841308D02*
X131225558Y-97746070D01*
X131225558Y-97746070D02*
X131177939Y-97698451D01*
X131177939Y-97698451D02*
X131082701Y-97650832D01*
X131082701Y-97650832D02*
X130892225Y-97650832D01*
X130892225Y-97650832D02*
X130796987Y-97698451D01*
X130416034Y-98269880D02*
X130320796Y-98317499D01*
X130320796Y-98317499D02*
X130130320Y-98317499D01*
X130130320Y-98317499D02*
X130035082Y-98269880D01*
X130035082Y-98269880D02*
X129987463Y-98174641D01*
X129987463Y-98174641D02*
X129987463Y-98127022D01*
X129987463Y-98127022D02*
X130035082Y-98031784D01*
X130035082Y-98031784D02*
X130130320Y-97984165D01*
X130130320Y-97984165D02*
X130273177Y-97984165D01*
X130273177Y-97984165D02*
X130368415Y-97936546D01*
X130368415Y-97936546D02*
X130416034Y-97841308D01*
X130416034Y-97841308D02*
X130416034Y-97793689D01*
X130416034Y-97793689D02*
X130368415Y-97698451D01*
X130368415Y-97698451D02*
X130273177Y-97650832D01*
X130273177Y-97650832D02*
X130130320Y-97650832D01*
X130130320Y-97650832D02*
X130035082Y-97698451D01*
X166558898Y-103052092D02*
X166606517Y-103099712D01*
X166606517Y-103099712D02*
X166749374Y-103147331D01*
X166749374Y-103147331D02*
X166844612Y-103147331D01*
X166844612Y-103147331D02*
X166987469Y-103099712D01*
X166987469Y-103099712D02*
X167082707Y-103004473D01*
X167082707Y-103004473D02*
X167130326Y-102909235D01*
X167130326Y-102909235D02*
X167177945Y-102718759D01*
X167177945Y-102718759D02*
X167177945Y-102575902D01*
X167177945Y-102575902D02*
X167130326Y-102385426D01*
X167130326Y-102385426D02*
X167082707Y-102290188D01*
X167082707Y-102290188D02*
X166987469Y-102194950D01*
X166987469Y-102194950D02*
X166844612Y-102147331D01*
X166844612Y-102147331D02*
X166749374Y-102147331D01*
X166749374Y-102147331D02*
X166606517Y-102194950D01*
X166606517Y-102194950D02*
X166558898Y-102242569D01*
X165701755Y-102480664D02*
X165701755Y-103147331D01*
X166130326Y-102480664D02*
X166130326Y-103004473D01*
X166130326Y-103004473D02*
X166082707Y-103099712D01*
X166082707Y-103099712D02*
X165987469Y-103147331D01*
X165987469Y-103147331D02*
X165844612Y-103147331D01*
X165844612Y-103147331D02*
X165749374Y-103099712D01*
X165749374Y-103099712D02*
X165701755Y-103052092D01*
X165273183Y-103099712D02*
X165177945Y-103147331D01*
X165177945Y-103147331D02*
X164987469Y-103147331D01*
X164987469Y-103147331D02*
X164892231Y-103099712D01*
X164892231Y-103099712D02*
X164844612Y-103004473D01*
X164844612Y-103004473D02*
X164844612Y-102956854D01*
X164844612Y-102956854D02*
X164892231Y-102861616D01*
X164892231Y-102861616D02*
X164987469Y-102813997D01*
X164987469Y-102813997D02*
X165130326Y-102813997D01*
X165130326Y-102813997D02*
X165225564Y-102766378D01*
X165225564Y-102766378D02*
X165273183Y-102671140D01*
X165273183Y-102671140D02*
X165273183Y-102623521D01*
X165273183Y-102623521D02*
X165225564Y-102528283D01*
X165225564Y-102528283D02*
X165130326Y-102480664D01*
X165130326Y-102480664D02*
X164987469Y-102480664D01*
X164987469Y-102480664D02*
X164892231Y-102528283D01*
X164558897Y-102480664D02*
X164177945Y-102480664D01*
X164416040Y-102147331D02*
X164416040Y-103004473D01*
X164416040Y-103004473D02*
X164368421Y-103099712D01*
X164368421Y-103099712D02*
X164273183Y-103147331D01*
X164273183Y-103147331D02*
X164177945Y-103147331D01*
X163701754Y-103147331D02*
X163796992Y-103099712D01*
X163796992Y-103099712D02*
X163844611Y-103052092D01*
X163844611Y-103052092D02*
X163892230Y-102956854D01*
X163892230Y-102956854D02*
X163892230Y-102671140D01*
X163892230Y-102671140D02*
X163844611Y-102575902D01*
X163844611Y-102575902D02*
X163796992Y-102528283D01*
X163796992Y-102528283D02*
X163701754Y-102480664D01*
X163701754Y-102480664D02*
X163558897Y-102480664D01*
X163558897Y-102480664D02*
X163463659Y-102528283D01*
X163463659Y-102528283D02*
X163416040Y-102575902D01*
X163416040Y-102575902D02*
X163368421Y-102671140D01*
X163368421Y-102671140D02*
X163368421Y-102956854D01*
X163368421Y-102956854D02*
X163416040Y-103052092D01*
X163416040Y-103052092D02*
X163463659Y-103099712D01*
X163463659Y-103099712D02*
X163558897Y-103147331D01*
X163558897Y-103147331D02*
X163701754Y-103147331D01*
X162939849Y-103147331D02*
X162939849Y-102480664D01*
X162939849Y-102575902D02*
X162892230Y-102528283D01*
X162892230Y-102528283D02*
X162796992Y-102480664D01*
X162796992Y-102480664D02*
X162654135Y-102480664D01*
X162654135Y-102480664D02*
X162558897Y-102528283D01*
X162558897Y-102528283D02*
X162511278Y-102623521D01*
X162511278Y-102623521D02*
X162511278Y-103147331D01*
X162511278Y-102623521D02*
X162463659Y-102528283D01*
X162463659Y-102528283D02*
X162368421Y-102480664D01*
X162368421Y-102480664D02*
X162225564Y-102480664D01*
X162225564Y-102480664D02*
X162130325Y-102528283D01*
X162130325Y-102528283D02*
X162082706Y-102623521D01*
X162082706Y-102623521D02*
X162082706Y-103147331D01*
X161606516Y-103147331D02*
X161606516Y-102480664D01*
X161606516Y-102147331D02*
X161654135Y-102194950D01*
X161654135Y-102194950D02*
X161606516Y-102242569D01*
X161606516Y-102242569D02*
X161558897Y-102194950D01*
X161558897Y-102194950D02*
X161606516Y-102147331D01*
X161606516Y-102147331D02*
X161606516Y-102242569D01*
X161225564Y-102480664D02*
X160701755Y-102480664D01*
X160701755Y-102480664D02*
X161225564Y-103147331D01*
X161225564Y-103147331D02*
X160701755Y-103147331D01*
X159939850Y-103099712D02*
X160035088Y-103147331D01*
X160035088Y-103147331D02*
X160225564Y-103147331D01*
X160225564Y-103147331D02*
X160320802Y-103099712D01*
X160320802Y-103099712D02*
X160368421Y-103004473D01*
X160368421Y-103004473D02*
X160368421Y-102623521D01*
X160368421Y-102623521D02*
X160320802Y-102528283D01*
X160320802Y-102528283D02*
X160225564Y-102480664D01*
X160225564Y-102480664D02*
X160035088Y-102480664D01*
X160035088Y-102480664D02*
X159939850Y-102528283D01*
X159939850Y-102528283D02*
X159892231Y-102623521D01*
X159892231Y-102623521D02*
X159892231Y-102718759D01*
X159892231Y-102718759D02*
X160368421Y-102813997D01*
X159035088Y-103147331D02*
X159035088Y-102147331D01*
X159035088Y-103099712D02*
X159130326Y-103147331D01*
X159130326Y-103147331D02*
X159320802Y-103147331D01*
X159320802Y-103147331D02*
X159416040Y-103099712D01*
X159416040Y-103099712D02*
X159463659Y-103052092D01*
X159463659Y-103052092D02*
X159511278Y-102956854D01*
X159511278Y-102956854D02*
X159511278Y-102671140D01*
X159511278Y-102671140D02*
X159463659Y-102575902D01*
X159463659Y-102575902D02*
X159416040Y-102528283D01*
X159416040Y-102528283D02*
X159320802Y-102480664D01*
X159320802Y-102480664D02*
X159130326Y-102480664D01*
X159130326Y-102480664D02*
X159035088Y-102528283D01*
X157796992Y-103147331D02*
X157796992Y-102147331D01*
X157796992Y-102528283D02*
X157701754Y-102480664D01*
X157701754Y-102480664D02*
X157511278Y-102480664D01*
X157511278Y-102480664D02*
X157416040Y-102528283D01*
X157416040Y-102528283D02*
X157368421Y-102575902D01*
X157368421Y-102575902D02*
X157320802Y-102671140D01*
X157320802Y-102671140D02*
X157320802Y-102956854D01*
X157320802Y-102956854D02*
X157368421Y-103052092D01*
X157368421Y-103052092D02*
X157416040Y-103099712D01*
X157416040Y-103099712D02*
X157511278Y-103147331D01*
X157511278Y-103147331D02*
X157701754Y-103147331D01*
X157701754Y-103147331D02*
X157796992Y-103099712D01*
X156987468Y-102480664D02*
X156749373Y-103147331D01*
X156511278Y-102480664D02*
X156749373Y-103147331D01*
X156749373Y-103147331D02*
X156844611Y-103385426D01*
X156844611Y-103385426D02*
X156892230Y-103433045D01*
X156892230Y-103433045D02*
X156987468Y-103480664D01*
X155416039Y-102861616D02*
X154939849Y-102861616D01*
X155511277Y-103147331D02*
X155177944Y-102147331D01*
X155177944Y-102147331D02*
X154844611Y-103147331D01*
X154082706Y-103147331D02*
X154082706Y-102623521D01*
X154082706Y-102623521D02*
X154130325Y-102528283D01*
X154130325Y-102528283D02*
X154225563Y-102480664D01*
X154225563Y-102480664D02*
X154416039Y-102480664D01*
X154416039Y-102480664D02*
X154511277Y-102528283D01*
X154082706Y-103099712D02*
X154177944Y-103147331D01*
X154177944Y-103147331D02*
X154416039Y-103147331D01*
X154416039Y-103147331D02*
X154511277Y-103099712D01*
X154511277Y-103099712D02*
X154558896Y-103004473D01*
X154558896Y-103004473D02*
X154558896Y-102909235D01*
X154558896Y-102909235D02*
X154511277Y-102813997D01*
X154511277Y-102813997D02*
X154416039Y-102766378D01*
X154416039Y-102766378D02*
X154177944Y-102766378D01*
X154177944Y-102766378D02*
X154082706Y-102718759D01*
X153606515Y-103147331D02*
X153606515Y-102480664D01*
X153606515Y-102575902D02*
X153558896Y-102528283D01*
X153558896Y-102528283D02*
X153463658Y-102480664D01*
X153463658Y-102480664D02*
X153320801Y-102480664D01*
X153320801Y-102480664D02*
X153225563Y-102528283D01*
X153225563Y-102528283D02*
X153177944Y-102623521D01*
X153177944Y-102623521D02*
X153177944Y-103147331D01*
X153177944Y-102623521D02*
X153130325Y-102528283D01*
X153130325Y-102528283D02*
X153035087Y-102480664D01*
X153035087Y-102480664D02*
X152892230Y-102480664D01*
X152892230Y-102480664D02*
X152796991Y-102528283D01*
X152796991Y-102528283D02*
X152749372Y-102623521D01*
X152749372Y-102623521D02*
X152749372Y-103147331D01*
X152130325Y-103147331D02*
X152225563Y-103099712D01*
X152225563Y-103099712D02*
X152273182Y-103052092D01*
X152273182Y-103052092D02*
X152320801Y-102956854D01*
X152320801Y-102956854D02*
X152320801Y-102671140D01*
X152320801Y-102671140D02*
X152273182Y-102575902D01*
X152273182Y-102575902D02*
X152225563Y-102528283D01*
X152225563Y-102528283D02*
X152130325Y-102480664D01*
X152130325Y-102480664D02*
X151987468Y-102480664D01*
X151987468Y-102480664D02*
X151892230Y-102528283D01*
X151892230Y-102528283D02*
X151844611Y-102575902D01*
X151844611Y-102575902D02*
X151796992Y-102671140D01*
X151796992Y-102671140D02*
X151796992Y-102956854D01*
X151796992Y-102956854D02*
X151844611Y-103052092D01*
X151844611Y-103052092D02*
X151892230Y-103099712D01*
X151892230Y-103099712D02*
X151987468Y-103147331D01*
X151987468Y-103147331D02*
X152130325Y-103147331D01*
X150939849Y-103147331D02*
X150939849Y-102147331D01*
X150939849Y-103099712D02*
X151035087Y-103147331D01*
X151035087Y-103147331D02*
X151225563Y-103147331D01*
X151225563Y-103147331D02*
X151320801Y-103099712D01*
X151320801Y-103099712D02*
X151368420Y-103052092D01*
X151368420Y-103052092D02*
X151416039Y-102956854D01*
X151416039Y-102956854D02*
X151416039Y-102671140D01*
X151416039Y-102671140D02*
X151368420Y-102575902D01*
X151368420Y-102575902D02*
X151320801Y-102528283D01*
X151320801Y-102528283D02*
X151225563Y-102480664D01*
X151225563Y-102480664D02*
X151035087Y-102480664D01*
X151035087Y-102480664D02*
X150939849Y-102528283D01*
X149701753Y-103147331D02*
X149701753Y-102147331D01*
X149130325Y-103147331D02*
X149558896Y-102575902D01*
X149130325Y-102147331D02*
X149701753Y-102718759D01*
X148273182Y-102480664D02*
X148273182Y-103147331D01*
X148701753Y-102480664D02*
X148701753Y-103004473D01*
X148701753Y-103004473D02*
X148654134Y-103099712D01*
X148654134Y-103099712D02*
X148558896Y-103147331D01*
X148558896Y-103147331D02*
X148416039Y-103147331D01*
X148416039Y-103147331D02*
X148320801Y-103099712D01*
X148320801Y-103099712D02*
X148273182Y-103052092D01*
X147796991Y-103147331D02*
X147796991Y-102480664D01*
X147796991Y-102575902D02*
X147749372Y-102528283D01*
X147749372Y-102528283D02*
X147654134Y-102480664D01*
X147654134Y-102480664D02*
X147511277Y-102480664D01*
X147511277Y-102480664D02*
X147416039Y-102528283D01*
X147416039Y-102528283D02*
X147368420Y-102623521D01*
X147368420Y-102623521D02*
X147368420Y-103147331D01*
X147368420Y-102623521D02*
X147320801Y-102528283D01*
X147320801Y-102528283D02*
X147225563Y-102480664D01*
X147225563Y-102480664D02*
X147082706Y-102480664D01*
X147082706Y-102480664D02*
X146987467Y-102528283D01*
X146987467Y-102528283D02*
X146939848Y-102623521D01*
X146939848Y-102623521D02*
X146939848Y-103147331D01*
X146035087Y-103147331D02*
X146035087Y-102623521D01*
X146035087Y-102623521D02*
X146082706Y-102528283D01*
X146082706Y-102528283D02*
X146177944Y-102480664D01*
X146177944Y-102480664D02*
X146368420Y-102480664D01*
X146368420Y-102480664D02*
X146463658Y-102528283D01*
X146035087Y-103099712D02*
X146130325Y-103147331D01*
X146130325Y-103147331D02*
X146368420Y-103147331D01*
X146368420Y-103147331D02*
X146463658Y-103099712D01*
X146463658Y-103099712D02*
X146511277Y-103004473D01*
X146511277Y-103004473D02*
X146511277Y-102909235D01*
X146511277Y-102909235D02*
X146463658Y-102813997D01*
X146463658Y-102813997D02*
X146368420Y-102766378D01*
X146368420Y-102766378D02*
X146130325Y-102766378D01*
X146130325Y-102766378D02*
X146035087Y-102718759D01*
X145558896Y-103147331D02*
X145558896Y-102480664D01*
X145558896Y-102671140D02*
X145511277Y-102575902D01*
X145511277Y-102575902D02*
X145463658Y-102528283D01*
X145463658Y-102528283D02*
X145368420Y-102480664D01*
X145368420Y-102480664D02*
X145273182Y-102480664D01*
X167273183Y-103757275D02*
X166939850Y-104757275D01*
X166939850Y-104757275D02*
X166606517Y-103757275D01*
X165892231Y-104709656D02*
X165987469Y-104757275D01*
X165987469Y-104757275D02*
X166177945Y-104757275D01*
X166177945Y-104757275D02*
X166273183Y-104709656D01*
X166273183Y-104709656D02*
X166320802Y-104614417D01*
X166320802Y-104614417D02*
X166320802Y-104233465D01*
X166320802Y-104233465D02*
X166273183Y-104138227D01*
X166273183Y-104138227D02*
X166177945Y-104090608D01*
X166177945Y-104090608D02*
X165987469Y-104090608D01*
X165987469Y-104090608D02*
X165892231Y-104138227D01*
X165892231Y-104138227D02*
X165844612Y-104233465D01*
X165844612Y-104233465D02*
X165844612Y-104328703D01*
X165844612Y-104328703D02*
X166320802Y-104423941D01*
X165416040Y-104757275D02*
X165416040Y-104090608D01*
X165416040Y-104281084D02*
X165368421Y-104185846D01*
X165368421Y-104185846D02*
X165320802Y-104138227D01*
X165320802Y-104138227D02*
X165225564Y-104090608D01*
X165225564Y-104090608D02*
X165130326Y-104090608D01*
X164844611Y-104709656D02*
X164749373Y-104757275D01*
X164749373Y-104757275D02*
X164558897Y-104757275D01*
X164558897Y-104757275D02*
X164463659Y-104709656D01*
X164463659Y-104709656D02*
X164416040Y-104614417D01*
X164416040Y-104614417D02*
X164416040Y-104566798D01*
X164416040Y-104566798D02*
X164463659Y-104471560D01*
X164463659Y-104471560D02*
X164558897Y-104423941D01*
X164558897Y-104423941D02*
X164701754Y-104423941D01*
X164701754Y-104423941D02*
X164796992Y-104376322D01*
X164796992Y-104376322D02*
X164844611Y-104281084D01*
X164844611Y-104281084D02*
X164844611Y-104233465D01*
X164844611Y-104233465D02*
X164796992Y-104138227D01*
X164796992Y-104138227D02*
X164701754Y-104090608D01*
X164701754Y-104090608D02*
X164558897Y-104090608D01*
X164558897Y-104090608D02*
X164463659Y-104138227D01*
X163987468Y-104757275D02*
X163987468Y-104090608D01*
X163987468Y-103757275D02*
X164035087Y-103804894D01*
X164035087Y-103804894D02*
X163987468Y-103852513D01*
X163987468Y-103852513D02*
X163939849Y-103804894D01*
X163939849Y-103804894D02*
X163987468Y-103757275D01*
X163987468Y-103757275D02*
X163987468Y-103852513D01*
X163368421Y-104757275D02*
X163463659Y-104709656D01*
X163463659Y-104709656D02*
X163511278Y-104662036D01*
X163511278Y-104662036D02*
X163558897Y-104566798D01*
X163558897Y-104566798D02*
X163558897Y-104281084D01*
X163558897Y-104281084D02*
X163511278Y-104185846D01*
X163511278Y-104185846D02*
X163463659Y-104138227D01*
X163463659Y-104138227D02*
X163368421Y-104090608D01*
X163368421Y-104090608D02*
X163225564Y-104090608D01*
X163225564Y-104090608D02*
X163130326Y-104138227D01*
X163130326Y-104138227D02*
X163082707Y-104185846D01*
X163082707Y-104185846D02*
X163035088Y-104281084D01*
X163035088Y-104281084D02*
X163035088Y-104566798D01*
X163035088Y-104566798D02*
X163082707Y-104662036D01*
X163082707Y-104662036D02*
X163130326Y-104709656D01*
X163130326Y-104709656D02*
X163225564Y-104757275D01*
X163225564Y-104757275D02*
X163368421Y-104757275D01*
X162606516Y-104090608D02*
X162606516Y-104757275D01*
X162606516Y-104185846D02*
X162558897Y-104138227D01*
X162558897Y-104138227D02*
X162463659Y-104090608D01*
X162463659Y-104090608D02*
X162320802Y-104090608D01*
X162320802Y-104090608D02*
X162225564Y-104138227D01*
X162225564Y-104138227D02*
X162177945Y-104233465D01*
X162177945Y-104233465D02*
X162177945Y-104757275D01*
X161701754Y-104662036D02*
X161654135Y-104709656D01*
X161654135Y-104709656D02*
X161701754Y-104757275D01*
X161701754Y-104757275D02*
X161749373Y-104709656D01*
X161749373Y-104709656D02*
X161701754Y-104662036D01*
X161701754Y-104662036D02*
X161701754Y-104757275D01*
X161701754Y-104138227D02*
X161654135Y-104185846D01*
X161654135Y-104185846D02*
X161701754Y-104233465D01*
X161701754Y-104233465D02*
X161749373Y-104185846D01*
X161749373Y-104185846D02*
X161701754Y-104138227D01*
X161701754Y-104138227D02*
X161701754Y-104233465D01*
X160463659Y-104757275D02*
X160463659Y-103757275D01*
X160463659Y-104233465D02*
X159892231Y-104233465D01*
X159892231Y-104757275D02*
X159892231Y-103757275D01*
X159035088Y-104709656D02*
X159130326Y-104757275D01*
X159130326Y-104757275D02*
X159320802Y-104757275D01*
X159320802Y-104757275D02*
X159416040Y-104709656D01*
X159416040Y-104709656D02*
X159463659Y-104614417D01*
X159463659Y-104614417D02*
X159463659Y-104233465D01*
X159463659Y-104233465D02*
X159416040Y-104138227D01*
X159416040Y-104138227D02*
X159320802Y-104090608D01*
X159320802Y-104090608D02*
X159130326Y-104090608D01*
X159130326Y-104090608D02*
X159035088Y-104138227D01*
X159035088Y-104138227D02*
X158987469Y-104233465D01*
X158987469Y-104233465D02*
X158987469Y-104328703D01*
X158987469Y-104328703D02*
X159463659Y-104423941D01*
X158654135Y-104757275D02*
X158130326Y-104090608D01*
X158654135Y-104090608D02*
X158130326Y-104757275D01*
X157320802Y-104757275D02*
X157320802Y-104233465D01*
X157320802Y-104233465D02*
X157368421Y-104138227D01*
X157368421Y-104138227D02*
X157463659Y-104090608D01*
X157463659Y-104090608D02*
X157654135Y-104090608D01*
X157654135Y-104090608D02*
X157749373Y-104138227D01*
X157320802Y-104709656D02*
X157416040Y-104757275D01*
X157416040Y-104757275D02*
X157654135Y-104757275D01*
X157654135Y-104757275D02*
X157749373Y-104709656D01*
X157749373Y-104709656D02*
X157796992Y-104614417D01*
X157796992Y-104614417D02*
X157796992Y-104519179D01*
X157796992Y-104519179D02*
X157749373Y-104423941D01*
X157749373Y-104423941D02*
X157654135Y-104376322D01*
X157654135Y-104376322D02*
X157416040Y-104376322D01*
X157416040Y-104376322D02*
X157320802Y-104328703D01*
X156511278Y-104233465D02*
X156844611Y-104233465D01*
X156844611Y-104757275D02*
X156844611Y-103757275D01*
X156844611Y-103757275D02*
X156368421Y-103757275D01*
X155844611Y-104757275D02*
X155939849Y-104709656D01*
X155939849Y-104709656D02*
X155987468Y-104614417D01*
X155987468Y-104614417D02*
X155987468Y-103757275D01*
X155558896Y-104090608D02*
X155320801Y-104757275D01*
X155082706Y-104090608D02*
X155320801Y-104757275D01*
X155320801Y-104757275D02*
X155416039Y-104995370D01*
X155416039Y-104995370D02*
X155463658Y-105042989D01*
X155463658Y-105042989D02*
X155558896Y-105090608D01*
X153368420Y-104757275D02*
X153701753Y-104281084D01*
X153939848Y-104757275D02*
X153939848Y-103757275D01*
X153939848Y-103757275D02*
X153558896Y-103757275D01*
X153558896Y-103757275D02*
X153463658Y-103804894D01*
X153463658Y-103804894D02*
X153416039Y-103852513D01*
X153416039Y-103852513D02*
X153368420Y-103947751D01*
X153368420Y-103947751D02*
X153368420Y-104090608D01*
X153368420Y-104090608D02*
X153416039Y-104185846D01*
X153416039Y-104185846D02*
X153463658Y-104233465D01*
X153463658Y-104233465D02*
X153558896Y-104281084D01*
X153558896Y-104281084D02*
X153939848Y-104281084D01*
X152368420Y-104662036D02*
X152416039Y-104709656D01*
X152416039Y-104709656D02*
X152558896Y-104757275D01*
X152558896Y-104757275D02*
X152654134Y-104757275D01*
X152654134Y-104757275D02*
X152796991Y-104709656D01*
X152796991Y-104709656D02*
X152892229Y-104614417D01*
X152892229Y-104614417D02*
X152939848Y-104519179D01*
X152939848Y-104519179D02*
X152987467Y-104328703D01*
X152987467Y-104328703D02*
X152987467Y-104185846D01*
X152987467Y-104185846D02*
X152939848Y-103995370D01*
X152939848Y-103995370D02*
X152892229Y-103900132D01*
X152892229Y-103900132D02*
X152796991Y-103804894D01*
X152796991Y-103804894D02*
X152654134Y-103757275D01*
X152654134Y-103757275D02*
X152558896Y-103757275D01*
X152558896Y-103757275D02*
X152416039Y-103804894D01*
X152416039Y-103804894D02*
X152368420Y-103852513D01*
X151273181Y-104090608D02*
X151035086Y-104757275D01*
X151035086Y-104757275D02*
X150796991Y-104090608D01*
X149892229Y-104757275D02*
X150463657Y-104757275D01*
X150177943Y-104757275D02*
X150177943Y-103757275D01*
X150177943Y-103757275D02*
X150273181Y-103900132D01*
X150273181Y-103900132D02*
X150368419Y-103995370D01*
X150368419Y-103995370D02*
X150463657Y-104042989D01*
X149463657Y-104662036D02*
X149416038Y-104709656D01*
X149416038Y-104709656D02*
X149463657Y-104757275D01*
X149463657Y-104757275D02*
X149511276Y-104709656D01*
X149511276Y-104709656D02*
X149463657Y-104662036D01*
X149463657Y-104662036D02*
X149463657Y-104757275D01*
X148796991Y-103757275D02*
X148701753Y-103757275D01*
X148701753Y-103757275D02*
X148606515Y-103804894D01*
X148606515Y-103804894D02*
X148558896Y-103852513D01*
X148558896Y-103852513D02*
X148511277Y-103947751D01*
X148511277Y-103947751D02*
X148463658Y-104138227D01*
X148463658Y-104138227D02*
X148463658Y-104376322D01*
X148463658Y-104376322D02*
X148511277Y-104566798D01*
X148511277Y-104566798D02*
X148558896Y-104662036D01*
X148558896Y-104662036D02*
X148606515Y-104709656D01*
X148606515Y-104709656D02*
X148701753Y-104757275D01*
X148701753Y-104757275D02*
X148796991Y-104757275D01*
X148796991Y-104757275D02*
X148892229Y-104709656D01*
X148892229Y-104709656D02*
X148939848Y-104662036D01*
X148939848Y-104662036D02*
X148987467Y-104566798D01*
X148987467Y-104566798D02*
X149035086Y-104376322D01*
X149035086Y-104376322D02*
X149035086Y-104138227D01*
X149035086Y-104138227D02*
X148987467Y-103947751D01*
X148987467Y-103947751D02*
X148939848Y-103852513D01*
X148939848Y-103852513D02*
X148892229Y-103804894D01*
X148892229Y-103804894D02*
X148796991Y-103757275D01*
X147035086Y-105090608D02*
X147035086Y-103662036D01*
X145558895Y-104757275D02*
X145558895Y-103757275D01*
X145558895Y-103757275D02*
X145320800Y-103757275D01*
X145320800Y-103757275D02*
X145177943Y-103804894D01*
X145177943Y-103804894D02*
X145082705Y-103900132D01*
X145082705Y-103900132D02*
X145035086Y-103995370D01*
X145035086Y-103995370D02*
X144987467Y-104185846D01*
X144987467Y-104185846D02*
X144987467Y-104328703D01*
X144987467Y-104328703D02*
X145035086Y-104519179D01*
X145035086Y-104519179D02*
X145082705Y-104614417D01*
X145082705Y-104614417D02*
X145177943Y-104709656D01*
X145177943Y-104709656D02*
X145320800Y-104757275D01*
X145320800Y-104757275D02*
X145558895Y-104757275D01*
X144130324Y-104757275D02*
X144130324Y-104233465D01*
X144130324Y-104233465D02*
X144177943Y-104138227D01*
X144177943Y-104138227D02*
X144273181Y-104090608D01*
X144273181Y-104090608D02*
X144463657Y-104090608D01*
X144463657Y-104090608D02*
X144558895Y-104138227D01*
X144130324Y-104709656D02*
X144225562Y-104757275D01*
X144225562Y-104757275D02*
X144463657Y-104757275D01*
X144463657Y-104757275D02*
X144558895Y-104709656D01*
X144558895Y-104709656D02*
X144606514Y-104614417D01*
X144606514Y-104614417D02*
X144606514Y-104519179D01*
X144606514Y-104519179D02*
X144558895Y-104423941D01*
X144558895Y-104423941D02*
X144463657Y-104376322D01*
X144463657Y-104376322D02*
X144225562Y-104376322D01*
X144225562Y-104376322D02*
X144130324Y-104328703D01*
X143796990Y-104090608D02*
X143416038Y-104090608D01*
X143654133Y-103757275D02*
X143654133Y-104614417D01*
X143654133Y-104614417D02*
X143606514Y-104709656D01*
X143606514Y-104709656D02*
X143511276Y-104757275D01*
X143511276Y-104757275D02*
X143416038Y-104757275D01*
X142701752Y-104709656D02*
X142796990Y-104757275D01*
X142796990Y-104757275D02*
X142987466Y-104757275D01*
X142987466Y-104757275D02*
X143082704Y-104709656D01*
X143082704Y-104709656D02*
X143130323Y-104614417D01*
X143130323Y-104614417D02*
X143130323Y-104233465D01*
X143130323Y-104233465D02*
X143082704Y-104138227D01*
X143082704Y-104138227D02*
X142987466Y-104090608D01*
X142987466Y-104090608D02*
X142796990Y-104090608D01*
X142796990Y-104090608D02*
X142701752Y-104138227D01*
X142701752Y-104138227D02*
X142654133Y-104233465D01*
X142654133Y-104233465D02*
X142654133Y-104328703D01*
X142654133Y-104328703D02*
X143130323Y-104423941D01*
X142225561Y-104662036D02*
X142177942Y-104709656D01*
X142177942Y-104709656D02*
X142225561Y-104757275D01*
X142225561Y-104757275D02*
X142273180Y-104709656D01*
X142273180Y-104709656D02*
X142225561Y-104662036D01*
X142225561Y-104662036D02*
X142225561Y-104757275D01*
X142225561Y-104138227D02*
X142177942Y-104185846D01*
X142177942Y-104185846D02*
X142225561Y-104233465D01*
X142225561Y-104233465D02*
X142273180Y-104185846D01*
X142273180Y-104185846D02*
X142225561Y-104138227D01*
X142225561Y-104138227D02*
X142225561Y-104233465D01*
X140701752Y-103757275D02*
X140701752Y-104471560D01*
X140701752Y-104471560D02*
X140749371Y-104614417D01*
X140749371Y-104614417D02*
X140844609Y-104709656D01*
X140844609Y-104709656D02*
X140987466Y-104757275D01*
X140987466Y-104757275D02*
X141082704Y-104757275D01*
X139796990Y-104090608D02*
X139796990Y-104757275D01*
X140225561Y-104090608D02*
X140225561Y-104614417D01*
X140225561Y-104614417D02*
X140177942Y-104709656D01*
X140177942Y-104709656D02*
X140082704Y-104757275D01*
X140082704Y-104757275D02*
X139939847Y-104757275D01*
X139939847Y-104757275D02*
X139844609Y-104709656D01*
X139844609Y-104709656D02*
X139796990Y-104662036D01*
X139320799Y-104090608D02*
X139320799Y-104757275D01*
X139320799Y-104185846D02*
X139273180Y-104138227D01*
X139273180Y-104138227D02*
X139177942Y-104090608D01*
X139177942Y-104090608D02*
X139035085Y-104090608D01*
X139035085Y-104090608D02*
X138939847Y-104138227D01*
X138939847Y-104138227D02*
X138892228Y-104233465D01*
X138892228Y-104233465D02*
X138892228Y-104757275D01*
X138035085Y-104709656D02*
X138130323Y-104757275D01*
X138130323Y-104757275D02*
X138320799Y-104757275D01*
X138320799Y-104757275D02*
X138416037Y-104709656D01*
X138416037Y-104709656D02*
X138463656Y-104614417D01*
X138463656Y-104614417D02*
X138463656Y-104233465D01*
X138463656Y-104233465D02*
X138416037Y-104138227D01*
X138416037Y-104138227D02*
X138320799Y-104090608D01*
X138320799Y-104090608D02*
X138130323Y-104090608D01*
X138130323Y-104090608D02*
X138035085Y-104138227D01*
X138035085Y-104138227D02*
X137987466Y-104233465D01*
X137987466Y-104233465D02*
X137987466Y-104328703D01*
X137987466Y-104328703D02*
X138463656Y-104423941D01*
X136844608Y-103852513D02*
X136796989Y-103804894D01*
X136796989Y-103804894D02*
X136701751Y-103757275D01*
X136701751Y-103757275D02*
X136463656Y-103757275D01*
X136463656Y-103757275D02*
X136368418Y-103804894D01*
X136368418Y-103804894D02*
X136320799Y-103852513D01*
X136320799Y-103852513D02*
X136273180Y-103947751D01*
X136273180Y-103947751D02*
X136273180Y-104042989D01*
X136273180Y-104042989D02*
X136320799Y-104185846D01*
X136320799Y-104185846D02*
X136892227Y-104757275D01*
X136892227Y-104757275D02*
X136273180Y-104757275D01*
X135654132Y-103757275D02*
X135558894Y-103757275D01*
X135558894Y-103757275D02*
X135463656Y-103804894D01*
X135463656Y-103804894D02*
X135416037Y-103852513D01*
X135416037Y-103852513D02*
X135368418Y-103947751D01*
X135368418Y-103947751D02*
X135320799Y-104138227D01*
X135320799Y-104138227D02*
X135320799Y-104376322D01*
X135320799Y-104376322D02*
X135368418Y-104566798D01*
X135368418Y-104566798D02*
X135416037Y-104662036D01*
X135416037Y-104662036D02*
X135463656Y-104709656D01*
X135463656Y-104709656D02*
X135558894Y-104757275D01*
X135558894Y-104757275D02*
X135654132Y-104757275D01*
X135654132Y-104757275D02*
X135749370Y-104709656D01*
X135749370Y-104709656D02*
X135796989Y-104662036D01*
X135796989Y-104662036D02*
X135844608Y-104566798D01*
X135844608Y-104566798D02*
X135892227Y-104376322D01*
X135892227Y-104376322D02*
X135892227Y-104138227D01*
X135892227Y-104138227D02*
X135844608Y-103947751D01*
X135844608Y-103947751D02*
X135796989Y-103852513D01*
X135796989Y-103852513D02*
X135749370Y-103804894D01*
X135749370Y-103804894D02*
X135654132Y-103757275D01*
X134939846Y-103852513D02*
X134892227Y-103804894D01*
X134892227Y-103804894D02*
X134796989Y-103757275D01*
X134796989Y-103757275D02*
X134558894Y-103757275D01*
X134558894Y-103757275D02*
X134463656Y-103804894D01*
X134463656Y-103804894D02*
X134416037Y-103852513D01*
X134416037Y-103852513D02*
X134368418Y-103947751D01*
X134368418Y-103947751D02*
X134368418Y-104042989D01*
X134368418Y-104042989D02*
X134416037Y-104185846D01*
X134416037Y-104185846D02*
X134987465Y-104757275D01*
X134987465Y-104757275D02*
X134368418Y-104757275D01*
X133463656Y-103757275D02*
X133939846Y-103757275D01*
X133939846Y-103757275D02*
X133987465Y-104233465D01*
X133987465Y-104233465D02*
X133939846Y-104185846D01*
X133939846Y-104185846D02*
X133844608Y-104138227D01*
X133844608Y-104138227D02*
X133606513Y-104138227D01*
X133606513Y-104138227D02*
X133511275Y-104185846D01*
X133511275Y-104185846D02*
X133463656Y-104233465D01*
X133463656Y-104233465D02*
X133416037Y-104328703D01*
X133416037Y-104328703D02*
X133416037Y-104566798D01*
X133416037Y-104566798D02*
X133463656Y-104662036D01*
X133463656Y-104662036D02*
X133511275Y-104709656D01*
X133511275Y-104709656D02*
X133606513Y-104757275D01*
X133606513Y-104757275D02*
X133844608Y-104757275D01*
X133844608Y-104757275D02*
X133939846Y-104709656D01*
X133939846Y-104709656D02*
X133987465Y-104662036D01*
M02*
